SplineFontDB: 3.0
FontName: GROBOLD
FullName: GROBOLD Regular
FamilyName: GROBOLD
Weight: Medium
Version: 001.000
ItalicAngle: 0
UnderlinePosition: -292
UnderlineWidth: 40
Ascent: 1638
Descent: 410
InvalidEm: 0
sfntRevision: 0x00010000
woffMajor: 1
woffMinor: 0
LayerCount: 2
Layer: 0 1 "+BBcEMAQ0BD0EOAQ5 +BD8EOwQwBD0A" 1
Layer: 1 1 "+BB8ENQRABDUENAQ9BDgEOQAA +BD8EOwQwBD0A" 0
XUID: [1021 531 1121597755 5871]
StyleMap: 0x0040
FSType: 4
OS2Version: 3
OS2_WeightWidthSlopeOnly: 0
OS2_UseTypoMetrics: 0
CreationTime: 1141733518
ModificationTime: 1548687531
PfmFamily: 17
TTFWeight: 500
TTFWidth: 5
LineGap: 0
VLineGap: 0
Panose: 2 0 6 3 3 0 0 2 0 4
OS2TypoAscent: 1638
OS2TypoAOffset: 0
OS2TypoDescent: -410
OS2TypoDOffset: 0
OS2TypoLinegap: 0
OS2WinAscent: 2028
OS2WinAOffset: 0
OS2WinDescent: 454
OS2WinDOffset: 0
HheadAscent: 2028
HheadAOffset: 0
HheadDescent: -454
HheadDOffset: 0
OS2SubXSize: 418
OS2SubYSize: 418
OS2SubXOff: 0
OS2SubYOff: 586
OS2SupXSize: 418
OS2SupYSize: 418
OS2SupXOff: 0
OS2SupYOff: 586
OS2StrikeYSize: 102
OS2StrikeYPos: 512
OS2CapHeight: 1691
OS2XHeight: 1188
OS2Vendor: 'pyrs'
OS2CodePages: 00000001.00000000
OS2UnicodeRanges: 00000003.00000000.00000000.00000000
DEI: 91125
TtTable: prep
PUSHW_1
 511
SCANCTRL
PUSHB_1
 1
SCANTYPE
SVTCA[y-axis]
MPPEM
PUSHB_1
 8
LT
IF
PUSHB_2
 1
 1
INSTCTRL
EIF
PUSHB_2
 70
 6
CALL
IF
POP
PUSHB_1
 16
EIF
MPPEM
PUSHB_1
 20
GT
IF
POP
PUSHB_1
 128
EIF
SCVTCI
PUSHB_1
 6
CALL
NOT
IF
SVTCA[y-axis]
PUSHB_1
 3
DUP
RCVT
PUSHB_1
 3
CALL
WCVTP
PUSHB_1
 4
DUP
RCVT
PUSHB_3
 3
 11
 2
CALL
PUSHB_1
 3
CALL
WCVTP
PUSHB_1
 5
DUP
RCVT
PUSHB_3
 4
 13
 2
CALL
PUSHB_1
 3
CALL
WCVTP
PUSHB_1
 6
DUP
RCVT
PUSHB_3
 5
 79
 2
CALL
PUSHB_1
 3
CALL
WCVTP
PUSHB_1
 7
DUP
RCVT
PUSHB_3
 6
 29
 2
CALL
PUSHB_1
 3
CALL
WCVTP
PUSHB_1
 8
DUP
RCVT
PUSHB_3
 7
 24
 2
CALL
PUSHB_1
 3
CALL
WCVTP
PUSHB_1
 9
DUP
RCVT
PUSHB_3
 8
 19
 2
CALL
PUSHB_1
 3
CALL
WCVTP
PUSHB_1
 10
DUP
RCVT
PUSHB_3
 9
 87
 2
CALL
PUSHB_1
 3
CALL
WCVTP
PUSHB_1
 11
DUP
RCVT
PUSHB_3
 10
 68
 2
CALL

StartChar: .notdef
Encoding: 65536 -1 0
Width: 748
Flags: W
LayerCount: 2
Fore
SplineSet
68 0 m 1,0,-1
 68 1365 l 1,1,-1
 612 1365 l 1,2,-1
 612 0 l 1,3,-1
 68 0 l 1,0,-1
136 68 m 1,4,-1
 544 68 l 1,5,-1
 544 1297 l 1,6,-1
 136 1297 l 1,7,-1
 136 68 l 1,4,-1
EndSplineSet
EndChar

StartChar: exclam
Encoding: 33 33 4
Width: 1585
GlyphClass: 2
Flags: W
LayerCount: 2
Fore
SplineSet
621.5 164 m 128,-1,1
 610 211 610 211 627 254 c 0,2,3
 641 297 641 297 678 327.5 c 128,-1,4
 715 358 715 358 767 372.5 c 128,-1,5
 819 387 819 387 880.5 384 c 128,-1,6
 942 381 942 381 1006 360 c 0,7,8
 1069 337 1069 337 1119 301.5 c 128,-1,9
 1169 266 1169 266 1201 223 c 128,-1,10
 1233 180 1233 180 1243 133 c 128,-1,11
 1253 86 1253 86 1239 43 c 256,12,13
 1225 0 1225 0 1188 -29.5 c 128,-1,14
 1151 -59 1151 -59 1099 -74.5 c 128,-1,15
 1047 -90 1047 -90 985 -88 c 128,-1,16
 923 -86 923 -86 860 -63 c 256,17,18
 797 -40 797 -40 746.5 -4.5 c 128,-1,19
 696 31 696 31 664.5 74 c 128,-1,0
 633 117 633 117 621.5 164 c 128,-1,1
715 463 m 1,20,-1
 823 1880 l 1,21,-1
 1430 1905 l 1,22,-1
 1253 416 l 1,23,24
 1200 453 1200 453 1131.5 476.5 c 128,-1,25
 1063 500 1063 500 985 506 c 0,26,27
 909 512 909 512 840.5 500.5 c 128,-1,28
 772 489 772 489 715 463 c 1,20,-1
EndSplineSet
EndChar

StartChar: numbersign
Encoding: 35 35 5
Width: 2009
GlyphClass: 2
Flags: W
LayerCount: 2
Fore
SplineSet
14 379 m 1,0,-1
 127 379 l 1,1,-1
 127 965 l 1,2,-1
 144 960 l 2,3,4
 162 954 162 954 190 938 c 1,5,6
 196 1096 196 1096 263 1233 c 128,-1,7
 330 1370 330 1370 439.5 1472.5 c 128,-1,8
 549 1575 549 1575 694.5 1633.5 c 128,-1,9
 840 1692 840 1692 1006 1692 c 0,10,11
 1219 1692 1219 1692 1397 1596.5 c 128,-1,12
 1575 1501 1575 1501 1686 1341 c 1,13,-1
 1686 1264 l 1,14,15
 1637 1350 1637 1350 1565 1421.5 c 128,-1,16
 1493 1493 1493 1493 1405 1544 c 128,-1,17
 1317 1595 1317 1595 1216.5 1623 c 128,-1,18
 1116 1651 1116 1651 1006 1651 c 0,19,20
 846 1651 846 1651 705.5 1592.5 c 128,-1,21
 565 1534 565 1534 460.5 1434.5 c 128,-1,22
 356 1335 356 1335 294.5 1201 c 128,-1,23
 233 1067 233 1067 231 913 c 1,24,25
 245 903 245 903 259.5 890 c 128,-1,26
 274 877 274 877 291 860 c 0,27,28
 297 854 297 854 299 850 c 1,29,30
 299 864 299 864 298 877.5 c 128,-1,31
 297 891 297 891 297 905 c 0,32,33
 297 1046 297 1046 352.5 1170 c 128,-1,34
 408 1294 408 1294 504 1387.5 c 128,-1,35
 600 1481 600 1481 729 1534 c 128,-1,36
 858 1587 858 1587 1006 1587 c 0,37,38
 1127 1587 1127 1587 1235 1550 c 128,-1,39
 1343 1513 1343 1513 1432.5 1447.5 c 128,-1,40
 1522 1382 1522 1382 1587.5 1293 c 128,-1,41
 1653 1204 1653 1204 1686 1098 c 1,42,-1
 1686 1030 l 1,43,44
 1663 1145 1663 1145 1601.5 1244 c 128,-1,45
 1540 1343 1540 1343 1450 1416 c 128,-1,46
 1360 1489 1360 1489 1246.5 1530 c 128,-1,47
 1133 1571 1133 1571 1006 1571 c 0,48,49
 863 1571 863 1571 736.5 1518.5 c 128,-1,50
 610 1466 610 1466 516 1375 c 128,-1,51
 422 1284 422 1284 367.5 1163 c 128,-1,52
 313 1042 313 1042 313 905 c 0,53,54
 313 864 313 864 319 825 c 1,55,56
 350 778 350 778 368.5 723 c 128,-1,57
 387 668 387 668 387 608 c 1,58,59
 397 588 397 588 408.5 569.5 c 128,-1,60
 420 551 420 551 432 532 c 1,61,-1
 432 506 l 1,62,63
 405 543 405 543 385 578 c 1,64,65
 381 529 381 529 367 485 c 1,66,67
 381 462 381 462 397.5 442.5 c 128,-1,68
 414 423 414 423 432 403 c 1,69,-1
 432 356 l 1,70,-1
 432 346 l 1,71,72
 389 387 389 387 346 442 c 1,73,74
 330 409 330 409 305 379 c 1,75,76
 387 356 387 356 387 279 c 2,77,-1
 387 242 l 2,78,79
 387 191 387 191 353 161 c 128,-1,80
 319 131 319 131 264 131 c 2,81,-1
 127 131 l 1,82,-1
 127 297 l 1,83,-1
 57 297 l 1,84,-1
 14 379 l 1,0,-1
207 217 m 1,85,-1
 272 217 l 2,86,87
 307 217 307 217 307 252 c 2,88,-1
 307 264 l 2,89,90
 307 297 307 297 272 297 c 2,91,-1
 207 297 l 1,92,-1
 207 217 l 1,85,-1
207 379 m 1,93,-1
 233 406 l 2,94,95
 270 441 270 441 288.5 492 c 128,-1,96
 307 543 307 543 307 598 c 0,97,98
 307 674 307 674 281.5 723 c 128,-1,99
 256 772 256 772 233 799 c 0,100,101
 223 809 223 809 214 817 c 128,-1,102
 205 825 205 825 207 825 c 2,103,-1
 207 752 l 1,104,105
 230 723 230 723 251 676 c 128,-1,106
 272 629 272 629 274 559 c 2,107,-1
 274 557 l 1,108,109
 227 643 227 643 207 741 c 1,110,-1
 207 379 l 1,93,-1
461 391 m 2,111,-1
 461 991 l 1,112,-1
 547 1010 l 1,113,-1
 547 408 l 2,114,115
 549 377 549 377 556 374 c 2,116,-1
 575 365 l 1,117,-1
 600 367 l 1,118,119
 655 381 655 381 655 444 c 2,120,-1
 655 1042 l 1,121,-1
 743 1075 l 1,122,-1
 743 475 l 2,123,124
 743 409 743 409 705.5 358 c 128,-1,125
 668 307 668 307 600 287 c 0,126,127
 534 269 534 269 497.5 297.5 c 128,-1,128
 461 326 461 326 461 391 c 2,111,-1
484.5 154.5 m 128,-1,130
 479 176 479 176 492 195 c 0,131,132
 504 211 504 211 526.5 215 c 128,-1,133
 549 219 549 219 569 207 c 0,134,135
 592 191 592 191 596 162 c 1,136,-1
 584 162 l 1,137,138
 580 185 580 185 563 197 c 0,139,140
 547 207 547 207 530.5 204 c 128,-1,141
 514 201 514 201 506 186 c 0,142,143
 496 172 496 172 499 155.5 c 128,-1,144
 502 139 502 139 518 129 c 0,145,146
 528 121 528 121 542.5 122 c 128,-1,147
 557 123 557 123 565 133 c 1,148,-1
 541 147 l 1,149,-1
 547 158 l 1,150,-1
 584 133 l 1,151,-1
 582 131 l 1,152,153
 572 115 572 115 551 110.5 c 128,-1,154
 530 106 530 106 510 119 c 0,155,129
 490 133 490 133 484.5 154.5 c 128,-1,130
557 248 m 1,156,157
 561 250 561 250 563 250 c 0,158,159
 567 250 567 250 571 252 c 0,160,161
 581 256 581 256 589.5 259 c 128,-1,162
 598 262 598 262 606 266 c 1,163,164
 694 215 694 215 794.5 187.5 c 128,-1,165
 895 160 895 160 1006 160 c 0,166,167
 1147 160 1147 160 1274 206 c 128,-1,168
 1401 252 1401 252 1502.5 333 c 128,-1,169
 1604 414 1604 414 1672.5 524.5 c 128,-1,170
 1741 635 1741 635 1767 764 c 1,171,172
 1771 762 1771 762 1784 758 c 1,173,-1
 1784 719 l 1,174,-1
 1784 678 l 1,175,-1
 1784 664 l 1,176,177
 1743 545 1743 545 1668 445.5 c 128,-1,178
 1593 346 1593 346 1492 273.5 c 128,-1,179
 1391 201 1391 201 1267 160 c 128,-1,180
 1143 119 1143 119 1006 119 c 0,181,182
 881 119 881 119 768 153.5 c 128,-1,183
 655 188 655 188 557 248 c 1,156,157
586 1327 m 0,184,185
 586 1401 586 1401 666 1456 c 0,186,187
 684 1468 684 1468 705.5 1477.5 c 128,-1,188
 727 1487 727 1487 745.5 1492 c 128,-1,189
 764 1497 764 1497 775 1499 c 2,190,-1
 786 1501 l 1,191,-1
 786 1470 l 2,192,193
 788 1470 788 1470 760.5 1462 c 128,-1,194
 733 1454 733 1454 709 1438 c 0,195,196
 643 1397 643 1397 643 1331 c 0,197,198
 643 1268 643 1268 713 1237 c 1,199,-1
 729 1231 l 1,200,-1
 729 1335 l 1,201,-1
 786 1343 l 1,202,-1
 786 1188 l 1,203,204
 786 1188 786 1188 776 1187 c 256,205,206
 766 1186 766 1186 748.5 1187 c 128,-1,207
 731 1188 731 1188 710.5 1192 c 128,-1,208
 690 1196 690 1196 670 1204 c 0,209,210
 586 1239 586 1239 586 1327 c 0,184,185
664 309 m 1,211,212
 668 313 668 313 669 315 c 128,-1,213
 670 317 670 317 674 322 c 1,214,215
 748 283 748 283 830.5 261.5 c 128,-1,216
 913 240 913 240 1006 240 c 0,217,218
 1108 240 1108 240 1203 267.5 c 128,-1,219
 1298 295 1298 295 1379 345 c 128,-1,220
 1460 395 1460 395 1523.5 465 c 128,-1,221
 1587 535 1587 535 1630 618 c 1,222,-1
 1544 608 l 1,223,-1
 1544 727 l 2,224,225
 1544 750 1544 750 1536 756 c 128,-1,226
 1528 762 1528 762 1505 758 c 2,227,-1
 1432 743 l 1,228,-1
 1432 590 l 1,229,-1
 1343 567 l 1,230,-1
 1343 721 l 1,231,-1
 1268 702 l 1,232,-1
 1217 762 l 1,233,-1
 1224 764 l 2,234,235
 1231 766 1231 766 1259.5 774 c 128,-1,236
 1288 782 1288 782 1343 799 c 1,237,-1
 1343 1339 l 1,238,239
 1347 1339 1347 1339 1372 1339 c 256,240,241
 1397 1339 1397 1339 1441 1328 c 128,-1,242
 1485 1317 1485 1317 1524 1288 c 0,243,244
 1633 1208 1633 1208 1632 1065 c 0,245,246
 1632 946 1632 946 1540 842 c 1,247,248
 1597 842 1597 842 1620 811 c 0,249,250
 1628 801 1628 801 1630 787.5 c 128,-1,251
 1632 774 1632 774 1632 739 c 2,252,-1
 1632 623 l 1,253,254
 1655 672 1655 672 1671.5 725 c 128,-1,255
 1688 778 1688 778 1694 834 c 1,256,257
 1696 826 1696 826 1699 819.5 c 128,-1,258
 1702 813 1702 813 1706 807 c 1,259,260
 1688 684 1688 684 1626.5 577.5 c 128,-1,261
 1565 471 1565 471 1471.5 392 c 128,-1,262
 1378 313 1378 313 1258.5 269 c 128,-1,263
 1139 225 1139 225 1006 225 c 0,264,265
 912 225 912 225 825.5 246.5 c 128,-1,266
 739 268 739 268 664 309 c 1,211,212
672 39 m 1,267,-1
 705 131 l 1,268,-1
 721 127 l 2,269,270
 727 123 727 123 734 119 c 128,-1,271
 741 115 741 115 745 111 c 0,272,273
 757 99 757 99 752 84 c 0,274,275
 744 62 744 62 717 68 c 1,276,-1
 735 14 l 1,277,-1
 719 18 l 1,278,-1
 702 72 l 1,279,-1
 698 74 l 1,280,-1
 684 33 l 1,281,-1
 672 39 l 1,267,-1
702 82 m 1,282,-1
 705 78 l 1,283,284
 715 74 715 74 726 75 c 128,-1,285
 737 76 737 76 741 88 c 0,286,287
 745 98 745 98 736 104.5 c 128,-1,288
 727 111 727 111 717 115 c 1,289,-1
 715 115 l 1,290,-1
 702 82 l 1,282,-1
770 588 m 1,291,-1
 897 637 l 1,292,-1
 897 1135 l 1,293,-1
 987 1174 l 1,294,-1
 987 674 l 1,295,-1
 1098 719 l 1,296,-1
 1098 1221 l 1,297,-1
 1186 1255 l 1,298,-1
 1186 522 l 1,299,-1
 1098 492 l 1,300,-1
 1098 643 l 1,301,-1
 987 600 l 1,302,-1
 987 449 l 1,303,-1
 897 412 l 1,304,-1
 897 561 l 1,305,-1
 821 530 l 1,306,-1
 813 540 l 2,307,308
 805 549 805 549 770 588 c 1,291,-1
844 -14 m 1,309,-1
 909 82 l 1,310,-1
 950 -29 l 1,311,-1
 936 -27 l 1,312,-1
 926 2 l 1,313,-1
 874 6 l 1,314,-1
 858 -14 l 1,315,-1
 844 -14 l 1,309,-1
862 1262 m 2,316,-1
 862 1489 l 1,317,-1
 918 1489 l 1,318,-1
 918 1276 l 2,319,320
 918 1251 918 1251 952 1264 c 1,321,322
 987 1270 987 1270 987 1292 c 2,323,-1
 987 1489 l 1,324,-1
 1044 1489 l 1,325,-1
 1044 1311 l 2,326,327
 1044 1288 1044 1288 1019.5 1269.5 c 128,-1,328
 995 1251 995 1251 952 1237 c 0,329,330
 862 1208 862 1208 862 1262 c 2,316,-1
883 18 m 1,331,-1
 922 14 l 1,332,-1
 905 55 l 1,333,-1
 883 18 l 1,331,-1
1059 70 m 1,334,-1
 1075 72 l 2,335,336
 1102 74 1102 74 1111 67.5 c 128,-1,337
 1120 61 1120 61 1122 47 c 0,338,339
 1124 18 1124 18 1085 14 c 1,340,-1
 1079 14 l 1,341,-1
 1081 -27 l 1,342,-1
 1069 -29 l 1,343,-1
 1059 70 l 1,334,-1
1075 61 m 1,344,-1
 1077 27 l 1,345,-1
 1081 27 l 2,346,347
 1091 27 1091 27 1101.5 31 c 128,-1,348
 1112 35 1112 35 1110 45 c 0,349,350
 1108 57 1108 57 1099 59 c 128,-1,351
 1090 61 1090 61 1079 61 c 2,352,-1
 1075 61 l 1,344,-1
1104 1370 m 2,353,-1
 1104 1489 l 1,354,-1
 1161 1489 l 1,355,-1
 1161 1380 l 2,356,357
 1161 1364 1161 1364 1198 1370 c 0,358,359
 1233 1374 1233 1374 1233 1386 c 2,360,-1
 1233 1489 l 1,361,-1
 1292 1489 l 1,362,-1
 1292 1395 l 2,363,364
 1292 1368 1292 1368 1227 1356 c 1,365,-1
 1227 1317 l 1,366,-1
 1169 1305 l 1,367,-1
 1169 1346 l 1,368,369
 1103 1342 1103 1342 1104 1370 c 2,353,-1
1221 92 m 1,370,-1
 1233 98 l 1,371,-1
 1245 59 l 1,372,-1
 1296 76 l 1,373,-1
 1286 115 l 1,374,-1
 1296 117 l 1,375,-1
 1327 23 l 1,376,-1
 1315 18 l 1,377,-1
 1300 63 l 1,378,-1
 1249 49 l 1,379,-1
 1264 2 l 1,380,-1
 1249 0 l 1,381,-1
 1221 92 l 1,370,-1
1399 162 m 1,382,-1
 1411 170 l 1,383,-1
 1456 82 l 1,384,-1
 1444 74 l 1,385,-1
 1399 162 l 1,382,-1
1432 821 m 2,386,387
 1432 819 1432 819 1443 829.5 c 128,-1,388
 1454 840 1454 840 1464 852 c 0,389,390
 1544 938 1544 938 1544 1047 c 0,391,392
 1544 1110 1544 1110 1518.5 1150 c 128,-1,393
 1493 1190 1493 1190 1468 1208 c 0,394,395
 1452 1222 1452 1222 1442 1228 c 2,396,-1
 1432 1233 l 1,397,-1
 1432 821 l 2,386,387
1514 229.5 m 128,-1,399
 1518 240 1518 240 1528 250 c 0,400,401
 1543 260 1543 260 1559 254 c 1,402,-1
 1554 242 l 1,403,404
 1544 244 1544 244 1534 240 c 1,405,406
 1522 228 1522 228 1528 217 c 0,407,408
 1536 209 1536 209 1550 215 c 2,409,-1
 1556 217 l 2,410,411
 1568 221 1568 221 1579 221 c 0,412,413
 1589 221 1589 221 1597 211 c 0,414,415
 1607 201 1607 201 1603 188.5 c 128,-1,416
 1599 176 1599 176 1589 166 c 0,417,418
 1564 150 1564 150 1544 166 c 1,419,-1
 1554 176 l 1,420,421
 1564 164 1564 164 1583 174 c 1,422,423
 1597 188 1597 188 1587 203 c 0,424,425
 1583 209 1583 209 1575 209 c 256,426,427
 1567 209 1567 209 1561 207 c 2,428,-1
 1552 203 l 2,429,430
 1542 201 1542 201 1532 201 c 0,431,432
 1524 201 1524 201 1518 209 c 0,433,398
 1510 219 1510 219 1514 229.5 c 128,-1,399
1624 330 m 1,434,-1
 1667 381 l 1,435,-1
 1673 375 l 1,436,-1
 1657 354 l 1,437,-1
 1724 297 l 1,438,-1
 1714 287 l 1,439,-1
 1649 344 l 1,440,-1
 1630 326 l 1,441,-1
 1624 330 l 1,434,-1
1716 926 m 2,442,-1
 1716 1380 l 1,443,-1
 1802 1386 l 1,444,-1
 1802 1079 l 1,445,446
 1822 999 1822 999 1823 905 c 2,447,-1
 1823 887 l 1,448,449
 1839 875 1839 875 1860 874 c 0,450,451
 1913 878 1913 878 1913 936 c 2,452,-1
 1913 1391 l 1,453,-1
 2001 1391 l 1,454,-1
 2001 936 l 2,455,456
 2001 823 2001 823 1903 797 c 1,457,-1
 1903 633 l 1,458,-1
 1815 633 l 1,459,-1
 1815 795 l 1,460,461
 1717 820 1717 820 1716 926 c 2,442,-1
1724 465 m 1,462,-1
 1753 518 l 1,463,-1
 1763 510 l 1,464,-1
 1741 473 l 1,465,-1
 1765 459 l 1,466,-1
 1788 496 l 1,467,-1
 1796 492 l 1,468,-1
 1776 453 l 1,469,-1
 1808 434 l 1,470,-1
 1831 475 l 1,471,-1
 1839 467 l 1,472,-1
 1810 414 l 1,473,-1
 1724 465 l 1,462,-1
EndSplineSet
EndChar

StartChar: dollar
Encoding: 36 36 6
Width: 1312
GlyphClass: 2
Flags: W
LayerCount: 2
Fore
SplineSet
10 109 m 1,0,-1
 166 545 l 1,1,2
 197 533 197 533 240 513.5 c 128,-1,3
 283 494 283 494 332 477.5 c 128,-1,4
 381 461 381 461 433 448.5 c 128,-1,5
 485 436 485 436 537 438 c 0,6,7
 613 442 613 442 665 464.5 c 128,-1,8
 717 487 717 487 715 541 c 0,9,10
 713 576 713 576 680 594 c 128,-1,11
 647 612 647 612 598 631 c 0,12,13
 567 639 567 639 518 653.5 c 128,-1,14
 469 668 469 668 411.5 692.5 c 128,-1,15
 354 717 354 717 295 751.5 c 128,-1,16
 236 786 236 786 187.5 835.5 c 128,-1,17
 139 885 139 885 108.5 950.5 c 128,-1,18
 78 1016 78 1016 76 1098 c 0,19,20
 72 1215 72 1215 107.5 1312 c 128,-1,21
 143 1409 143 1409 206.5 1482.5 c 128,-1,22
 270 1556 270 1556 359.5 1607.5 c 128,-1,23
 449 1659 449 1659 553 1686 c 1,24,-1
 553 1886 l 1,25,-1
 944 1901 l 1,26,-1
 893 1710 l 1,27,28
 985 1704 985 1704 1073 1685.5 c 128,-1,29
 1161 1667 1161 1667 1239 1634 c 1,30,-1
 1118 1161 l 1,31,32
 1036 1196 1036 1196 968.5 1219.5 c 128,-1,33
 901 1243 901 1243 811 1255 c 0,34,35
 784 1259 784 1259 741 1260 c 0,36,37
 698 1260 698 1260 655 1251.5 c 128,-1,38
 612 1243 612 1243 581.5 1222.5 c 128,-1,39
 551 1202 551 1202 549 1165 c 0,40,41
 549 1149 549 1149 564.5 1139.5 c 128,-1,42
 580 1130 580 1130 601.5 1124 c 128,-1,43
 623 1118 623 1118 646.5 1115 c 128,-1,44
 670 1112 670 1112 682 1110 c 0,45,46
 741 1098 741 1098 775 1090 c 2,47,-1
 809 1081 l 2,48,49
 866 1069 866 1069 920 1047 c 0,50,51
 983 1020 983 1020 1049.5 983 c 128,-1,52
 1116 946 1116 946 1170.5 892 c 128,-1,53
 1225 838 1225 838 1262 763 c 128,-1,54
 1299 688 1299 688 1303 586 c 0,55,56
 1307 469 1307 469 1272 372.5 c 128,-1,57
 1237 276 1237 276 1170.5 203.5 c 128,-1,58
 1104 131 1104 131 1008.5 81 c 128,-1,59
 913 31 913 31 801 4 c 1,60,-1
 801 -201 l 1,61,-1
 410 -215 l 1,62,-1
 463 -23 l 1,63,64
 344 -13 344 -13 225 24 c 128,-1,65
 106 61 106 61 10 109 c 1,0,-1
EndSplineSet
EndChar

StartChar: percent
Encoding: 37 37 7
Width: 1531
GlyphClass: 2
Flags: W
LayerCount: 2
Fore
SplineSet
474 1329 m 128,-1,1
 473 1243 473 1243 512 1157 c 0,2,3
 547 1079 547 1079 605.5 1048.5 c 128,-1,4
 664 1018 664 1018 725 1020 c 128,-1,5
 786 1022 786 1022 842.5 1050.5 c 128,-1,6
 899 1079 899 1079 932 1124 c 0,7,8
 977 1187 977 1187 997.5 1254 c 128,-1,9
 1018 1321 1018 1321 1020 1385.5 c 128,-1,10
 1022 1450 1022 1450 1008.5 1507.5 c 128,-1,11
 995 1565 995 1565 971 1612 c 0,12,13
 959 1637 959 1637 934 1660 c 128,-1,14
 909 1683 909 1683 875.5 1697.5 c 128,-1,15
 842 1712 842 1712 802 1714 c 128,-1,16
 762 1716 762 1716 717 1700 c 0,17,18
 647 1673 647 1673 592 1618 c 128,-1,19
 537 1563 537 1563 506 1489 c 128,-1,0
 475 1415 475 1415 474 1329 c 128,-1,1
524 57 m 1,20,-1
 1313 1718 l 1,21,-1
 1501 1669 l 1,22,-1
 680 -10 l 1,23,-1
 524 57 l 1,20,-1
662 1313 m 0,24,25
 658 1374 658 1374 676 1418 c 128,-1,26
 694 1462 694 1462 719.5 1483.5 c 128,-1,27
 745 1505 745 1505 773 1500 c 128,-1,28
 801 1495 801 1495 817 1458 c 0,29,30
 829 1429 829 1429 831.5 1386 c 128,-1,31
 834 1343 834 1343 809 1280 c 0,32,33
 797 1249 797 1249 773.5 1228.5 c 128,-1,34
 750 1208 750 1208 725 1208 c 0,35,36
 702 1208 702 1208 683 1232.5 c 128,-1,37
 664 1257 664 1257 662 1313 c 0,24,25
959.5 299 m 128,-1,39
 958 213 958 213 999 127 c 0,40,41
 1034 49 1034 49 1092.5 18.5 c 128,-1,42
 1151 -12 1151 -12 1212.5 -10 c 128,-1,43
 1274 -8 1274 -8 1330 20.5 c 128,-1,44
 1386 49 1386 49 1419 94 c 0,45,46
 1464 155 1464 155 1484.5 222 c 128,-1,47
 1505 289 1505 289 1506 353.5 c 128,-1,48
 1507 418 1507 418 1494 475 c 128,-1,49
 1481 532 1481 532 1456 580 c 0,50,51
 1444 605 1444 605 1419.5 628 c 128,-1,52
 1395 651 1395 651 1362 666.5 c 128,-1,53
 1329 682 1329 682 1289 684 c 128,-1,54
 1249 686 1249 686 1204 670 c 0,55,56
 1134 643 1134 643 1078 587.5 c 128,-1,57
 1022 532 1022 532 991.5 458.5 c 128,-1,38
 961 385 961 385 959.5 299 c 128,-1,39
1149 283 m 0,58,59
 1145 344 1145 344 1163.5 387 c 128,-1,60
 1182 430 1182 430 1207.5 451.5 c 128,-1,61
 1233 473 1233 473 1261 469 c 128,-1,62
 1289 465 1289 465 1305 428 c 0,63,64
 1315 399 1315 399 1318 356 c 128,-1,65
 1321 313 1321 313 1296 248 c 0,66,67
 1284 217 1284 217 1260.5 196.5 c 128,-1,68
 1237 176 1237 176 1212 176 c 0,69,70
 1189 176 1189 176 1170 200.5 c 128,-1,71
 1151 225 1151 225 1149 283 c 0,58,59
EndSplineSet
EndChar

StartChar: ampersand
Encoding: 38 38 8
Width: 1730
GlyphClass: 2
Flags: W
LayerCount: 2
Fore
SplineSet
-23 422 m 0,0,1
 -29 512 -29 512 -4.5 588 c 128,-1,2
 20 664 20 664 69.5 722 c 128,-1,3
 119 780 119 780 186.5 821 c 128,-1,4
 254 862 254 862 334 885 c 1,5,6
 258 944 258 944 212 1015.5 c 128,-1,7
 166 1087 166 1087 158 1186 c 0,8,9
 148 1307 148 1307 195 1397 c 128,-1,10
 242 1487 242 1487 322.5 1547.5 c 128,-1,11
 403 1608 403 1608 506.5 1641.5 c 128,-1,12
 610 1675 610 1675 715 1683 c 0,13,14
 813 1691 813 1691 920.5 1676 c 128,-1,15
 1028 1661 1028 1661 1119 1617 c 128,-1,16
 1210 1573 1210 1573 1272.5 1495 c 128,-1,17
 1335 1417 1335 1417 1346 1303 c 0,18,19
 1352 1231 1352 1231 1333.5 1160.5 c 128,-1,20
 1315 1090 1315 1090 1277 1028.5 c 128,-1,21
 1239 967 1239 967 1184.5 918.5 c 128,-1,22
 1130 870 1130 870 1065 846 c 1,23,-1
 1225 707 l 1,24,25
 1297 762 1297 762 1350 832.5 c 128,-1,26
 1403 903 1403 903 1456 975 c 1,27,-1
 1794 649 l 1,28,-1
 1554 434 l 1,29,-1
 1731 297 l 1,30,-1
 1294 -10 l 1,31,-1
 1157 172 l 1,32,33
 1040 80 1040 80 920.5 36 c 128,-1,34
 801 -8 801 -8 653 -18 c 0,35,36
 532 -28 532 -28 415.5 -13 c 128,-1,37
 299 2 299 2 205 52 c 128,-1,38
 111 102 111 102 49.5 192.5 c 128,-1,39
 -12 283 -12 283 -23 422 c 0,0,1
512 504 m 0,40,41
 516 441 516 441 562 414 c 128,-1,42
 608 387 608 387 668 393 c 0,43,44
 715 397 715 397 748.5 412.5 c 128,-1,45
 782 428 782 428 821 449 c 1,46,-1
 598 637 l 1,47,48
 565 612 565 612 536.5 581.5 c 128,-1,49
 508 551 508 551 512 504 c 0,40,41
686 1217 m 0,50,51
 688 1182 688 1182 716.5 1146 c 128,-1,52
 745 1110 745 1110 776 1096 c 1,53,54
 794 1108 794 1108 812.5 1123.5 c 128,-1,55
 831 1139 831 1139 846.5 1158.5 c 128,-1,56
 862 1178 862 1178 870.5 1199.5 c 128,-1,57
 879 1221 879 1221 877 1243 c 0,58,59
 875 1278 875 1278 846 1306.5 c 128,-1,60
 817 1335 817 1335 780 1331 c 0,61,62
 735 1327 735 1327 708.5 1294.5 c 128,-1,63
 682 1262 682 1262 686 1217 c 0,50,51
EndSplineSet
EndChar

StartChar: quotesingle
Encoding: 39 39 9
Width: 522
GlyphClass: 2
Flags: W
LayerCount: 2
Fore
SplineSet
111 1604 m 1,0,-1
 283 2017 l 1,1,-1
 440 1888 l 1,2,-1
 197 1575 l 1,3,-1
 111 1604 l 1,0,-1
EndSplineSet
EndChar

StartChar: parenleft
Encoding: 40 40 10
Width: 827
GlyphClass: 2
Flags: W
LayerCount: 2
Fore
SplineSet
168 733 m 2,0,-1
 171 821 l 2,1,2
 174 909 174 909 214 1063 c 128,-1,3
 254 1217 254 1217 349 1422.5 c 128,-1,4
 444 1628 444 1628 627 1866 c 1,5,-1
 729 1780 l 1,6,7
 582 1555 582 1555 507 1362 c 128,-1,8
 432 1169 432 1169 401.5 1030 c 128,-1,9
 371 891 371 891 369 812 c 2,10,-1
 367 733 l 1,11,12
 367 733 367 733 377 658 c 0,13,14
 387 584 387 584 425 465 c 128,-1,15
 463 346 463 346 538.5 201.5 c 128,-1,16
 614 57 614 57 745 -82 c 1,17,-1
 645 -154 l 1,18,19
 512 -39 512 -39 423 87 c 128,-1,20
 334 213 334 213 283.5 324.5 c 128,-1,21
 233 436 233 436 206.5 531.5 c 128,-1,22
 180 627 180 627 174 678 c 128,-1,23
 168 729 168 729 168 733 c 2,0,-1
EndSplineSet
EndChar

StartChar: parenright
Encoding: 41 41 11
Width: 790
GlyphClass: 2
Flags: W
LayerCount: 2
Fore
SplineSet
80 1794 m 1,0,-1
 180 1866 l 1,1,2
 313 1751 313 1751 402.5 1625 c 128,-1,3
 492 1499 492 1499 542 1387.5 c 128,-1,4
 592 1276 592 1276 618.5 1180.5 c 128,-1,5
 645 1085 645 1085 651 1034 c 128,-1,6
 657 983 657 983 657 979 c 2,7,-1
 654 891 l 2,8,9
 651 803 651 803 611 650.5 c 128,-1,10
 571 498 571 498 476 291 c 128,-1,11
 381 84 381 84 199 -154 c 1,12,-1
 96 -68 l 1,13,14
 243 159 243 159 318 351 c 128,-1,15
 393 543 393 543 424 682 c 128,-1,16
 455 821 455 821 457 900 c 2,17,-1
 459 979 l 1,18,19
 459 979 459 979 448 1054 c 0,20,21
 438 1128 438 1128 400 1247 c 128,-1,22
 362 1366 362 1366 286.5 1510.5 c 128,-1,23
 211 1655 211 1655 80 1794 c 1,0,-1
EndSplineSet
EndChar

StartChar: plus
Encoding: 43 43 12
Width: 1581
GlyphClass: 2
Flags: W
LayerCount: 2
Fore
SplineSet
104 543 m 1,0,-1
 143 930 l 1,1,-1
 543 944 l 1,2,-1
 547 1436 l 1,3,-1
 1001 1501 l 1,4,-1
 971 958 l 1,5,-1
 1460 977 l 1,6,-1
 1421 551 l 1,7,-1
 946 547 l 1,8,-1
 924 158 l 1,9,-1
 537 119 l 1,10,-1
 541 545 l 1,11,-1
 104 543 l 1,0,-1
EndSplineSet
EndChar

StartChar: comma
Encoding: 44 44 13
Width: 485
GlyphClass: 2
Flags: W
LayerCount: 2
Fore
SplineSet
59 -178 m 1,0,-1
 231 238 l 1,1,-1
 389 109 l 1,2,-1
 145 -207 l 1,3,-1
 59 -178 l 1,0,-1
EndSplineSet
EndChar

StartChar: hyphen
Encoding: 45 45 14
Width: 933
GlyphClass: 2
Flags: W
LayerCount: 2
Fore
SplineSet
135 590 m 1,0,-1
 154 825 l 1,1,-1
 803 854 l 1,2,-1
 782 580 l 1,3,-1
 135 590 l 1,0,-1
EndSplineSet
EndChar

StartChar: period
Encoding: 46 46 15
Width: 448
GlyphClass: 2
Flags: W
LayerCount: 2
Fore
SplineSet
82 63 m 1,0,-1
 96 238 l 1,1,-1
 311 225 l 1,2,-1
 270 10 l 1,3,-1
 82 63 l 1,0,-1
EndSplineSet
EndChar

StartChar: slash
Encoding: 47 47 16
Width: 1056
GlyphClass: 2
Flags: W
LayerCount: 2
Fore
SplineSet
47 57 m 1,0,-1
 836 1718 l 1,1,-1
 1022 1669 l 1,2,-1
 201 -10 l 1,3,-1
 47 57 l 1,0,-1
EndSplineSet
EndChar

StartChar: zero
Encoding: 48 48 17
Width: 1384
GlyphClass: 2
Flags: W
LayerCount: 2
Fore
SplineSet
22.5 859 m 128,-1,1
 41 995 41 995 93 1119 c 128,-1,2
 145 1243 145 1243 224 1345.5 c 128,-1,3
 303 1448 303 1448 404.5 1526 c 128,-1,4
 506 1604 506 1604 623 1647 c 0,5,6
 734 1690 734 1690 835 1682.5 c 128,-1,7
 936 1675 936 1675 1018 1638.5 c 128,-1,8
 1100 1602 1100 1602 1161.5 1543.5 c 128,-1,9
 1223 1485 1223 1485 1253 1423 c 0,10,11
 1312 1308 1312 1308 1348 1162 c 128,-1,12
 1384 1016 1384 1016 1380 856 c 128,-1,13
 1376 696 1376 696 1325 530.5 c 128,-1,14
 1274 365 1274 365 1161 209 c 0,15,16
 1106 135 1106 135 1024 75.5 c 128,-1,17
 942 16 942 16 845 -17.5 c 128,-1,18
 748 -51 748 -51 643.5 -55 c 128,-1,19
 539 -59 539 -59 439.5 -25.5 c 128,-1,20
 340 8 340 8 255 85 c 128,-1,21
 170 162 170 162 111 291 c 0,22,23
 45 434 45 434 24.5 578.5 c 128,-1,0
 4 723 4 723 22.5 859 c 128,-1,1
483 680 m 0,24,25
 491 539 491 539 538.5 478.5 c 128,-1,26
 586 418 586 418 645 418 c 0,27,28
 706 418 706 418 764.5 467 c 128,-1,29
 823 516 823 516 854 594 c 0,30,31
 885 674 885 674 897 740.5 c 128,-1,32
 909 807 909 807 908 862.5 c 128,-1,33
 907 918 907 918 896.5 962.5 c 128,-1,34
 886 1007 886 1007 872 1042 c 0,35,36
 833 1132 833 1132 764.5 1143.5 c 128,-1,37
 696 1155 696 1155 630.5 1103 c 128,-1,38
 565 1051 565 1051 519 941 c 128,-1,39
 473 831 473 831 483 680 c 0,24,25
EndSplineSet
EndChar

StartChar: one
Encoding: 49 49 18
Width: 1060
GlyphClass: 2
Flags: W
LayerCount: 2
Fore
SplineSet
-6 1257 m 1,0,-1
 397 1640 l 1,1,-1
 963 1698 l 1,2,-1
 885 -27 l 1,3,-1
 383 39 l 1,4,-1
 377 1153 l 1,5,-1
 195 999 l 1,6,-1
 -6 1257 l 1,0,-1
EndSplineSet
EndChar

StartChar: two
Encoding: 50 50 19
Width: 1380
GlyphClass: 2
Flags: W
LayerCount: 2
Fore
SplineSet
-20 1339 m 1,0,1
 170 1519 170 1519 336 1610.5 c 128,-1,2
 502 1702 502 1702 636 1726.5 c 128,-1,3
 770 1751 770 1751 879.5 1728.5 c 128,-1,4
 989 1706 989 1706 1068 1657 c 128,-1,5
 1147 1608 1147 1608 1202 1553.5 c 128,-1,6
 1257 1499 1257 1499 1282 1461 c 128,-1,7
 1307 1423 1307 1423 1309 1421 c 0,8,9
 1393 1271 1393 1271 1368 1141.5 c 128,-1,10
 1343 1012 1343 1012 1251 899 c 128,-1,11
 1159 786 1159 786 1024 689 c 128,-1,12
 889 592 889 592 752 506 c 1,13,-1
 1307 569 l 1,14,-1
 1294 51 l 1,15,-1
 80 -10 l 1,16,-1
 78 303 l 1,17,18
 64 354 64 354 92.5 415.5 c 128,-1,19
 121 477 121 477 176 543.5 c 128,-1,20
 231 610 231 610 305 679 c 128,-1,21
 379 748 379 748 457 815.5 c 128,-1,22
 535 883 535 883 607.5 945.5 c 128,-1,23
 680 1008 680 1008 733 1060 c 128,-1,24
 786 1112 786 1112 812 1153 c 128,-1,25
 838 1194 838 1194 821 1217 c 0,26,27
 796 1250 796 1250 726.5 1231 c 128,-1,28
 657 1212 657 1212 572 1166 c 128,-1,29
 487 1120 487 1120 400 1058.5 c 128,-1,30
 313 997 313 997 254 944 c 1,31,-1
 -20 1339 l 1,0,1
EndSplineSet
EndChar

StartChar: three
Encoding: 51 51 20
Width: 1306
GlyphClass: 2
Flags: W
LayerCount: 2
Fore
SplineSet
-10 244 m 1,0,-1
 291 674 l 1,1,2
 438 568 438 568 530.5 534 c 128,-1,3
 623 500 623 500 674 503 c 128,-1,4
 725 506 725 506 744 526 c 2,5,-1
 762 545 l 2,6,7
 762 547 762 547 770 568.5 c 128,-1,8
 778 590 778 590 774 622.5 c 128,-1,9
 770 655 770 655 740.5 684 c 128,-1,10
 711 713 711 713 637 728 c 128,-1,11
 563 743 563 743 432 731 c 1,12,-1
 455 1081 l 1,13,14
 594 1069 594 1069 652.5 1088.5 c 128,-1,15
 711 1108 711 1108 724 1137.5 c 128,-1,16
 737 1167 737 1167 725 1193 c 2,17,-1
 713 1219 l 1,18,-1
 692 1240 l 2,19,20
 670 1260 670 1260 617.5 1265 c 128,-1,21
 565 1270 565 1270 476 1244.5 c 128,-1,22
 387 1219 387 1219 254 1126 c 1,23,-1
 53 1499 l 1,24,25
 254 1640 254 1640 426 1688.5 c 128,-1,26
 598 1737 598 1737 727 1727.5 c 128,-1,27
 856 1718 856 1718 949 1678 c 128,-1,28
 1042 1638 1042 1638 1086 1602.5 c 128,-1,29
 1130 1567 1130 1567 1135 1563 c 0,30,31
 1137 1561 1137 1561 1165.5 1525 c 128,-1,32
 1194 1489 1194 1489 1223.5 1423.5 c 128,-1,33
 1253 1358 1253 1358 1256.5 1278 c 128,-1,34
 1260 1198 1260 1198 1209.5 1108 c 128,-1,35
 1159 1018 1159 1018 1028 934 c 1,36,37
 1163 854 1163 854 1224.5 754.5 c 128,-1,38
 1286 655 1286 655 1298.5 560 c 128,-1,39
 1311 465 1311 465 1294.5 381 c 128,-1,40
 1278 297 1278 297 1257.5 251 c 128,-1,41
 1237 205 1237 205 1235 201 c 2,42,43
 1235 201 1235 201 1208 161 c 0,44,45
 1180 121 1180 121 1119.5 73 c 128,-1,46
 1059 25 1059 25 961.5 -13 c 128,-1,47
 864 -51 864 -51 726 -46 c 128,-1,48
 588 -41 588 -41 404.5 23.5 c 128,-1,49
 221 88 221 88 -10 244 c 1,0,-1
EndSplineSet
EndChar

StartChar: four
Encoding: 52 52 21
Width: 1234
GlyphClass: 2
Flags: W
LayerCount: 2
Fore
SplineSet
-10 1030 m 1,0,-1
 676 1714 l 1,1,-1
 1178 1559 l 1,2,-1
 412 838 l 1,3,-1
 621 838 l 1,4,-1
 627 956 l 1,5,-1
 1098 956 l 1,6,-1
 1077 836 l 1,7,-1
 1260 868 l 1,8,-1
 1231 393 l 1,9,-1
 1049 391 l 1,10,-1
 1026 16 l 1,11,-1
 504 -6 l 1,12,-1
 541 387 l 1,13,-1
 33 348 l 1,14,-1
 -10 1030 l 1,0,-1
EndSplineSet
EndChar

StartChar: five
Encoding: 53 53 22
Width: 1169
GlyphClass: 2
Flags: W
LayerCount: 2
Fore
SplineSet
6 479 m 1,0,1
 166 444 166 444 275.5 453.5 c 128,-1,2
 385 463 385 463 449.5 496.5 c 128,-1,3
 514 530 514 530 550 573 c 128,-1,4
 586 616 586 616 596 646 c 128,-1,5
 606 676 606 676 606 678 c 0,6,7
 614 717 614 717 590.5 740.5 c 128,-1,8
 567 764 567 764 523 775 c 128,-1,9
 479 786 479 786 420.5 787 c 128,-1,10
 362 788 362 788 301 781 c 128,-1,11
 240 774 240 774 178.5 757.5 c 128,-1,12
 117 741 117 741 70 721 c 1,13,-1
 139 1604 l 1,14,-1
 1112 1651 l 1,15,-1
 1122 1243 l 1,16,-1
 500 1249 l 1,17,-1
 449 1104 l 1,18,19
 560 1135 560 1135 682.5 1124.5 c 128,-1,20
 805 1114 805 1114 909.5 1065 c 128,-1,21
 1014 1016 1014 1016 1085.5 930 c 128,-1,22
 1157 844 1157 844 1165 721 c 0,23,24
 1165 719 1165 719 1165 676 c 0,25,26
 1165 635 1165 635 1150 563.5 c 128,-1,27
 1135 492 1135 492 1098 410 c 128,-1,28
 1061 328 1061 328 988 247 c 128,-1,29
 915 166 915 166 799.5 104.5 c 128,-1,30
 684 43 684 43 510 12.5 c 128,-1,31
 336 -18 336 -18 98 0 c 1,32,-1
 6 479 l 1,0,1
EndSplineSet
EndChar

StartChar: six
Encoding: 54 54 23
Width: 1148
GlyphClass: 2
Flags: W
LayerCount: 2
Fore
SplineSet
-34 595 m 128,-1,1
 -31 735 -31 735 36.5 908 c 128,-1,2
 104 1081 104 1081 260 1293 c 128,-1,3
 416 1505 416 1505 686 1749 c 1,4,-1
 999 1446 l 1,5,6
 919 1383 919 1383 850.5 1316 c 128,-1,7
 782 1249 782 1249 732 1194 c 128,-1,8
 682 1139 682 1139 654 1104 c 2,9,-1
 625 1069 l 1,10,11
 691 1104 691 1104 753 1105 c 128,-1,12
 815 1106 815 1106 866.5 1088.5 c 128,-1,13
 918 1071 918 1071 958.5 1044.5 c 128,-1,14
 999 1018 999 1018 1019.5 998.5 c 128,-1,15
 1040 979 1040 979 1042 977 c 0,16,17
 1167 842 1167 842 1183.5 700.5 c 128,-1,18
 1200 559 1200 559 1142.5 431 c 128,-1,19
 1085 303 1085 303 972.5 199.5 c 128,-1,20
 860 96 860 96 726 36.5 c 128,-1,21
 592 -23 592 -23 454.5 -26 c 128,-1,22
 317 -29 317 -29 213 43 c 0,23,24
 211 45 211 45 173 78 c 128,-1,25
 135 111 135 111 85 180.5 c 128,-1,26
 35 250 35 250 -1 352.5 c 128,-1,0
 -37 455 -37 455 -34 595 c 128,-1,1
416 479 m 0,27,28
 441 420 441 420 506 407.5 c 128,-1,29
 571 395 571 395 641 434 c 0,30,31
 709 475 709 475 738.5 542.5 c 128,-1,32
 768 610 768 610 743 670 c 0,33,34
 718 729 718 729 652 741.5 c 128,-1,35
 586 754 586 754 518 715 c 0,36,37
 450 674 450 674 420.5 606.5 c 128,-1,38
 391 539 391 539 416 479 c 0,27,28
EndSplineSet
EndChar

StartChar: seven
Encoding: 55 55 24
Width: 1103
GlyphClass: 2
Flags: W
LayerCount: 2
Fore
SplineSet
-16 1626 m 1,0,-1
 1147 1690 l 1,1,-1
 965 1063 l 1,2,-1
 1098 1067 l 1,3,-1
 1032 694 l 1,4,-1
 887 688 l 1,5,-1
 719 -8 l 1,6,-1
 156 57 l 1,7,-1
 348 672 l 1,8,-1
 184 666 l 1,9,-1
 207 1030 l 1,10,-1
 463 1044 l 1,11,-1
 543 1239 l 1,12,-1
 12 1176 l 1,13,-1
 -16 1626 l 1,0,-1
EndSplineSet
EndChar

StartChar: eight
Encoding: 56 56 25
Width: 1236
GlyphClass: 2
Flags: W
LayerCount: 2
Fore
SplineSet
-8 385 m 128,-1,1
 -18 475 -18 475 5.5 559 c 128,-1,2
 29 643 29 643 81 718 c 128,-1,3
 133 793 133 793 209 854 c 1,4,5
 166 893 166 893 139 944 c 0,6,7
 71 1069 71 1069 83.5 1190 c 128,-1,8
 96 1311 96 1311 168 1411 c 128,-1,9
 240 1511 240 1511 358.5 1585 c 128,-1,10
 477 1659 477 1659 623 1690 c 0,11,12
 715 1708 715 1708 794.5 1701 c 128,-1,13
 874 1694 874 1694 939 1670.5 c 128,-1,14
 1004 1647 1004 1647 1050 1612 c 128,-1,15
 1096 1577 1096 1577 1118 1540 c 0,16,17
 1155 1481 1155 1481 1176.5 1409 c 128,-1,18
 1198 1337 1198 1337 1195 1258.5 c 128,-1,19
 1192 1180 1192 1180 1160 1098 c 128,-1,20
 1128 1016 1128 1016 1061 938 c 1,21,22
 1108 905 1108 905 1135 862 c 0,23,24
 1180 788 1180 788 1203.5 696 c 128,-1,25
 1227 604 1227 604 1214.5 503.5 c 128,-1,26
 1202 403 1202 403 1147 302 c 128,-1,27
 1092 201 1092 201 981 109 c 0,28,29
 928 64 928 64 851 31 c 128,-1,30
 774 -2 774 -2 686 -19.5 c 128,-1,31
 598 -37 598 -37 505 -35 c 128,-1,32
 412 -33 412 -33 326 -7.5 c 128,-1,33
 240 18 240 18 168 69.5 c 128,-1,34
 96 121 96 121 51 203 c 0,35,0
 2 295 2 295 -8 385 c 128,-1,1
430 436 m 0,36,37
 430 360 430 360 462 326.5 c 128,-1,38
 494 293 494 293 538 291 c 128,-1,39
 582 289 582 289 626.5 313.5 c 128,-1,40
 671 338 671 338 698 379 c 0,41,42
 751 461 751 461 752 518 c 0,43,44
 752 575 752 575 733 614 c 0,45,46
 708 663 708 663 658 672.5 c 128,-1,47
 608 682 608 682 558 656.5 c 128,-1,48
 508 631 508 631 469 573.5 c 128,-1,49
 430 516 430 516 430 436 c 0,36,37
500 1157 m 0,50,51
 500 1100 500 1100 524.5 1074.5 c 128,-1,52
 549 1049 549 1049 581.5 1048 c 128,-1,53
 614 1047 614 1047 648 1065 c 128,-1,54
 682 1083 682 1083 702 1114 c 0,55,56
 741 1175 741 1175 741 1219 c 128,-1,57
 741 1263 741 1263 729 1292 c 0,58,59
 711 1329 711 1329 673 1335 c 128,-1,60
 635 1341 635 1341 597 1322 c 128,-1,61
 559 1303 559 1303 529.5 1261 c 128,-1,62
 500 1219 500 1219 500 1157 c 0,50,51
EndSplineSet
EndChar

StartChar: nine
Encoding: 57 57 26
Width: 1163
GlyphClass: 2
Flags: W
LayerCount: 2
Fore
SplineSet
-23.5 1117.5 m 128,-1,1
 -8 1219 -8 1219 48 1312 c 128,-1,2
 104 1405 104 1405 185 1480.5 c 128,-1,3
 266 1556 266 1556 365.5 1610.5 c 128,-1,4
 465 1665 465 1665 567.5 1689.5 c 128,-1,5
 670 1714 670 1714 768 1703 c 128,-1,6
 866 1692 866 1692 944 1636 c 0,7,8
 946 1634 946 1634 984 1601.5 c 128,-1,9
 1022 1569 1022 1569 1072 1499.5 c 128,-1,10
 1122 1430 1122 1430 1158 1327.5 c 128,-1,11
 1194 1225 1194 1225 1192 1084.5 c 128,-1,12
 1190 944 1190 944 1122.5 771 c 128,-1,13
 1055 598 1055 598 899 386 c 128,-1,14
 743 174 743 174 473 -70 c 1,15,-1
 158 236 l 1,16,17
 238 299 238 299 307.5 365.5 c 128,-1,18
 377 432 377 432 427 486.5 c 128,-1,19
 477 541 477 541 506 576 c 2,20,-1
 535 610 l 1,21,22
 469 575 469 575 406.5 574 c 128,-1,23
 344 573 344 573 293 590.5 c 128,-1,24
 242 608 242 608 201 635 c 128,-1,25
 160 662 160 662 139.5 681 c 128,-1,26
 119 700 119 700 117 702 c 0,27,28
 23 802 23 802 -8 909 c 128,-1,0
 -39 1016 -39 1016 -23.5 1117.5 c 128,-1,1
416 1010 m 0,29,30
 441 953 441 953 506 939.5 c 128,-1,31
 571 926 571 926 639 967 c 0,32,33
 707 1006 707 1006 737.5 1074.5 c 128,-1,34
 768 1143 768 1143 743 1200 c 0,35,36
 716 1259 716 1259 651 1271.5 c 128,-1,37
 586 1284 586 1284 518 1245 c 0,38,39
 450 1204 450 1204 419.5 1136.5 c 128,-1,40
 389 1069 389 1069 416 1010 c 0,29,30
EndSplineSet
EndChar

StartChar: colon
Encoding: 58 58 27
Width: 364
GlyphClass: 2
Flags: W
LayerCount: 2
Fore
SplineSet
14 63 m 1,0,-1
 27 238 l 1,1,-1
 242 225 l 1,2,-1
 201 10 l 1,3,-1
 14 63 l 1,0,-1
94 768 m 1,4,-1
 109 961 l 1,5,-1
 346 946 l 1,6,-1
 301 709 l 1,7,-1
 94 768 l 1,4,-1
EndSplineSet
EndChar

StartChar: semicolon
Encoding: 59 59 28
Width: 428
GlyphClass: 2
Flags: W
LayerCount: 2
Fore
SplineSet
-25 -178 m 1,0,-1
 147 238 l 1,1,-1
 305 109 l 1,2,-1
 61 -207 l 1,3,-1
 -25 -178 l 1,0,-1
174 397 m 1,4,-1
 186 571 l 1,5,-1
 401 559 l 1,6,-1
 362 344 l 1,7,-1
 174 397 l 1,4,-1
EndSplineSet
EndChar

StartChar: equal
Encoding: 61 61 29
Width: 1419
GlyphClass: 2
Flags: W
LayerCount: 2
Fore
SplineSet
6 49 m 1,0,-1
 45 436 l 1,1,-1
 1362 483 l 1,2,-1
 1323 57 l 1,3,-1
 6 49 l 1,0,-1
55 678 m 1,4,-1
 92 1065 l 1,5,-1
 1409 1112 l 1,6,-1
 1370 688 l 1,7,-1
 55 678 l 1,4,-1
EndSplineSet
EndChar

StartChar: question
Encoding: 63 63 30
Width: 1484
GlyphClass: 2
Flags: W
LayerCount: 2
Fore
SplineSet
2 1505 m 1,0,1
 209 1702 209 1702 386 1804.5 c 128,-1,2
 563 1907 563 1907 705.5 1938.5 c 128,-1,3
 848 1970 848 1970 962.5 1951.5 c 128,-1,4
 1077 1933 1077 1933 1159 1887 c 128,-1,5
 1241 1841 1241 1841 1296.5 1788 c 128,-1,6
 1352 1735 1352 1735 1377.5 1697 c 128,-1,7
 1403 1659 1403 1659 1405 1657 c 0,8,9
 1477 1530 1477 1530 1467.5 1417.5 c 128,-1,10
 1458 1305 1458 1305 1395.5 1204.5 c 128,-1,11
 1333 1104 1333 1104 1230.5 1016 c 128,-1,12
 1128 928 1128 928 1011.5 848 c 128,-1,13
 895 768 895 768 779.5 697.5 c 128,-1,14
 664 627 664 627 573.5 562.5 c 128,-1,15
 483 498 483 498 434 438.5 c 128,-1,16
 385 379 385 379 401 324 c 1,17,-1
 66 584 l 1,18,19
 48 635 48 635 79.5 694.5 c 128,-1,20
 111 754 111 754 172 817.5 c 128,-1,21
 233 881 233 881 317 945.5 c 128,-1,22
 401 1010 401 1010 490.5 1073.5 c 128,-1,23
 580 1137 580 1137 664 1195 c 128,-1,24
 748 1253 748 1253 810 1302.5 c 128,-1,25
 872 1352 872 1352 903 1391 c 128,-1,26
 934 1430 934 1430 918 1452 c 0,27,28
 902 1475 902 1475 864.5 1472.5 c 128,-1,29
 827 1470 827 1470 777 1452 c 128,-1,30
 727 1434 727 1434 668.5 1403 c 128,-1,31
 610 1372 610 1372 553 1334 c 128,-1,32
 496 1296 496 1296 442.5 1255 c 128,-1,33
 389 1214 389 1214 350 1180 c 1,34,-1
 2 1505 l 1,0,1
351 143 m 128,-1,36
 362 190 362 190 394 233 c 128,-1,37
 426 276 426 276 476 311 c 128,-1,38
 526 346 526 346 590 369 c 0,39,40
 653 392 653 392 714.5 393.5 c 128,-1,41
 776 395 776 395 827.5 381 c 128,-1,42
 879 367 879 367 915.5 336 c 128,-1,43
 952 305 952 305 969 262 c 0,44,45
 983 219 983 219 972 172 c 128,-1,46
 961 125 961 125 929 82 c 128,-1,47
 897 39 897 39 846.5 3 c 128,-1,48
 796 -33 796 -33 733 -53 c 0,49,50
 670 -76 670 -76 608.5 -78 c 128,-1,51
 547 -80 547 -80 495.5 -65.5 c 128,-1,52
 444 -51 444 -51 406.5 -20.5 c 128,-1,53
 369 10 369 10 354 53 c 0,54,35
 340 96 340 96 351 143 c 128,-1,36
EndSplineSet
EndChar

StartChar: at
Encoding: 64 64 31
Width: 1601
GlyphClass: 2
Flags: W
LayerCount: 2
Fore
SplineSet
6 834 m 0,0,1
 6 1016 6 1016 70.5 1171.5 c 128,-1,2
 135 1327 135 1327 247.5 1441.5 c 128,-1,3
 360 1556 360 1556 512 1621 c 128,-1,4
 664 1686 664 1686 838 1686 c 0,5,6
 981 1686 981 1686 1110 1640.5 c 128,-1,7
 1239 1595 1239 1595 1348 1497 c 0,8,9
 1459 1399 1459 1399 1525 1275 c 128,-1,10
 1591 1151 1591 1151 1591 997 c 0,11,12
 1591 862 1591 862 1556.5 745.5 c 128,-1,13
 1522 629 1522 629 1456 543 c 0,14,15
 1378 439 1378 439 1289 394.5 c 128,-1,16
 1200 350 1200 350 1122 354 c 0,17,18
 1075 356 1075 356 1037 391 c 128,-1,19
 999 426 999 426 987 477 c 1,20,21
 944 430 944 430 875.5 392 c 128,-1,22
 807 354 807 354 709 354 c 0,23,24
 637 354 637 354 570.5 386 c 128,-1,25
 504 418 504 418 452.5 471 c 128,-1,26
 401 524 401 524 371.5 597 c 128,-1,27
 342 670 342 670 342 752 c 0,28,29
 342 850 342 850 374 943 c 128,-1,30
 406 1036 406 1036 463 1109 c 128,-1,31
 520 1182 520 1182 602 1225 c 128,-1,32
 684 1268 684 1268 786 1268 c 0,33,34
 870 1268 870 1268 935.5 1244.5 c 128,-1,35
 1001 1221 1001 1221 1051 1151 c 1,36,-1
 1067 1221 l 1,37,-1
 1282 1221 l 1,38,-1
 1174 690 l 2,39,40
 1170 672 1170 672 1164.5 646.5 c 128,-1,41
 1159 621 1159 621 1159 598 c 0,42,43
 1159 578 1159 578 1167.5 563.5 c 128,-1,44
 1176 549 1176 549 1200 551 c 0,45,46
 1229 553 1229 553 1262.5 585.5 c 128,-1,47
 1296 618 1296 618 1326 670.5 c 128,-1,48
 1356 723 1356 723 1376.5 788.5 c 128,-1,49
 1397 854 1397 854 1401 924 c 0,50,51
 1407 1059 1407 1059 1366 1161.5 c 128,-1,52
 1325 1264 1325 1264 1247 1331.5 c 128,-1,53
 1169 1399 1169 1399 1061.5 1433.5 c 128,-1,54
 954 1468 954 1468 829 1468 c 0,55,56
 692 1468 692 1468 580.5 1422 c 128,-1,57
 469 1376 469 1376 389 1292 c 128,-1,58
 309 1208 309 1208 266 1091.5 c 128,-1,59
 223 975 223 975 223 834 c 0,60,61
 223 687 223 687 271 569 c 128,-1,62
 319 451 319 451 405.5 370 c 128,-1,63
 492 289 492 289 609.5 246 c 128,-1,64
 727 203 727 203 866 203 c 0,65,66
 1003 203 1003 203 1103.5 221.5 c 128,-1,67
 1204 240 1204 240 1257 272 c 1,68,-1
 1225 68 l 1,69,70
 1168 37 1168 37 1135 20.5 c 128,-1,71
 1102 4 1102 4 1068 -3 c 128,-1,72
 1034 -10 1034 -10 986 -12 c 128,-1,73
 938 -14 938 -14 850 -14 c 0,74,75
 674 -14 674 -14 520.5 49.5 c 128,-1,76
 367 113 367 113 252 226.5 c 128,-1,77
 137 340 137 340 71.5 494.5 c 128,-1,78
 6 649 6 649 6 834 c 0,0,1
596 782 m 0,79,80
 596 743 596 743 607 707.5 c 128,-1,81
 618 672 618 672 638.5 644 c 128,-1,82
 659 616 659 616 690 600 c 128,-1,83
 721 584 721 584 762 584 c 0,84,85
 811 584 811 584 848 605.5 c 128,-1,86
 885 627 885 627 909.5 661.5 c 128,-1,87
 934 696 934 696 947.5 737 c 128,-1,88
 961 778 961 778 965 819 c 0,89,90
 977 913 977 913 933 970.5 c 128,-1,91
 889 1028 889 1028 809 1028 c 0,92,93
 762 1028 762 1028 723 1006.5 c 128,-1,94
 684 985 684 985 655.5 949 c 128,-1,95
 627 913 627 913 611.5 869 c 128,-1,96
 596 825 596 825 596 782 c 0,79,80
EndSplineSet
EndChar

StartChar: A
Encoding: 65 65 32
Width: 1740
GlyphClass: 2
Flags: W
LayerCount: 2
Fore
SplineSet
-102 137 m 1,0,-1
 809 1788 l 1,1,-1
 1843 215 l 1,2,-1
 1200 -29 l 1,3,-1
 1028 258 l 1,4,-1
 598 244 l 1,5,-1
 514 -63 l 1,6,-1
 -102 137 l 1,0,-1
705 569 m 1,7,-1
 948 612 l 1,8,-1
 846 891 l 1,9,-1
 705 569 l 1,7,-1
EndSplineSet
EndChar

StartChar: B
Encoding: 66 66 33
Width: 1411
GlyphClass: 2
Flags: W
LayerCount: 2
Fore
SplineSet
66 1599 m 1,0,1
 355 1654 355 1654 542 1673 c 0,2,3
 720 1691 720 1691 826 1691 c 0,4,5
 832 1691 832 1691 838 1691 c 0,6,7
 946 1690 946 1690 989 1680 c 2,8,-1
 1032 1671 l 1,9,10
 1032 1671 1032 1671 1074 1652 c 0,11,12
 1116 1632 1116 1632 1169.5 1594 c 128,-1,13
 1223 1556 1223 1556 1271 1498 c 128,-1,14
 1319 1440 1319 1440 1330 1363 c 0,15,16
 1332 1347 1332 1347 1332 1330 c 0,17,18
 1332 1266 1332 1266 1299 1190 c 0,19,20
 1257 1094 1257 1094 1133 977 c 1,21,22
 1305 887 1305 887 1377.5 783.5 c 128,-1,23
 1450 680 1450 680 1457 580 c 0,24,25
 1458 564 1458 564 1458 548 c 0,26,27
 1458 464 1458 464 1426 387 c 0,28,29
 1388 295 1388 295 1338 225.5 c 128,-1,30
 1288 156 1288 156 1246 114 c 2,31,-1
 1204 72 l 2,32,33
 1202 70 1202 70 1176.5 54.5 c 128,-1,34
 1151 39 1151 39 1076 18 c 0,35,36
 1000 -4 1000 -4 876 -18 c 0,37,38
 760 -32 760 -32 578 -32 c 0,39,40
 565 -32 565 -32 553 -32 c 0,41,42
 354 -31 354 -31 80 0 c 1,43,-1
 66 1599 l 1,0,1
582 635 m 1,44,-1
 608 420 l 1,45,46
 645 417 645 417 677 417 c 0,47,48
 742 416 742 416 784 430 c 0,49,50
 846 450 846 450 873.5 480 c 128,-1,51
 901 510 901 510 904 524 c 2,52,-1
 911 563 l 2,53,54
 911 565 911 565 908 585.5 c 128,-1,55
 905 606 905 606 889.5 634 c 128,-1,56
 874 662 874 662 840 678 c 0,57,58
 815 690 815 690 775 690 c 0,59,60
 760 690 760 690 742 688 c 0,61,62
 680 682 680 682 582 635 c 1,44,-1
602 997 m 1,63,64
 622 994 622 994 640 994 c 0,65,66
 678 994 678 994 705 1008 c 0,67,68
 745 1030 745 1030 766.5 1060 c 128,-1,69
 788 1090 788 1090 792 1102 c 2,70,-1
 803 1141 l 1,71,-1
 804 1164 l 2,72,73
 805 1188 805 1188 789.5 1209.5 c 128,-1,74
 774 1231 774 1231 733 1238 c 0,75,76
 726 1239 726 1239 717 1239 c 0,77,78
 677 1239 677 1239 610 1212 c 1,79,-1
 602 997 l 1,63,64
EndSplineSet
EndChar

StartChar: C
Encoding: 67 67 34
Width: 1531
GlyphClass: 2
Flags: W
LayerCount: 2
Fore
SplineSet
-28 630 m 0,0,1
 -32 672 -32 672 -33 714 c 0,2,3
 -33 824 -33 824 -5 934 c 0,4,5
 33 1086 33 1086 101.5 1219 c 128,-1,6
 170 1352 170 1352 263 1458.5 c 128,-1,7
 356 1565 356 1565 453 1628 c 1,8,9
 453 1628 453 1628 494 1650 c 0,10,11
 535 1673 535 1673 606.5 1694.5 c 128,-1,12
 678 1716 678 1716 775 1726 c 0,13,14
 800 1728 800 1728 825 1728 c 0,15,16
 901 1728 901 1728 986 1707 c 0,17,18
 1100 1679 1100 1679 1223.5 1603 c 128,-1,19
 1347 1527 1347 1527 1470 1380 c 1,20,-1
 1112 940 l 1,21,22
 1000 1058 1000 1058 918 1090 c 0,23,24
 864 1111 864 1111 821 1111 c 0,25,26
 798 1110 798 1110 776 1104 c 0,27,28
 716 1086 716 1086 674.5 1032.5 c 128,-1,29
 633 979 633 979 608.5 922.5 c 128,-1,30
 584 866 584 866 574 821 c 2,31,-1
 563 776 l 2,32,33
 563 772 563 772 572.5 723 c 128,-1,34
 582 674 582 674 616 614 c 0,35,36
 650 552 650 552 712 524 c 0,37,38
 739 512 739 512 775 512 c 0,39,40
 822 512 822 512 882 532 c 0,41,42
 990 568 990 568 1147 715 c 1,43,-1
 1546 289 l 1,44,45
 1515 230 1515 230 1439.5 168 c 128,-1,46
 1364 106 1364 106 1259.5 55 c 128,-1,47
 1155 4 1155 4 1030 -30 c 0,48,49
 905 -62 905 -62 775 -68 c 0,50,51
 756 -69 756 -69 738 -69 c 0,52,53
 627 -69 627 -69 519 -41 c 0,54,55
 393 -8 393 -8 287 74 c 0,56,57
 133 193 133 193 59.5 335.5 c 128,-1,58
 -14 478 -14 478 -28 630 c 0,0,1
EndSplineSet
EndChar

StartChar: D
Encoding: 68 68 35
Width: 1474
GlyphClass: 2
Flags: W
LayerCount: 2
Fore
SplineSet
86 1602 m 1,0,1
 457 1674 457 1674 634 1695 c 2,2,-1
 811 1716 l 2,3,4
 880 1727 880 1727 943 1727 c 0,5,6
 1036 1727 1036 1727 1116 1703 c 0,7,8
 1249 1663 1249 1663 1341.5 1575 c 128,-1,9
 1434 1487 1434 1487 1483 1360 c 0,10,11
 1532 1234 1532 1234 1538 1088 c 0,12,13
 1539 1068 1539 1068 1539 1048 c 0,14,15
 1539 922 1539 922 1506 788 c 0,16,17
 1468 634 1468 634 1383 489 c 128,-1,18
 1298 344 1298 344 1166 220 c 128,-1,19
 1034 96 1034 96 854 12 c 1,20,-1
 818 1 l 2,21,22
 782 -10 782 -10 697 -20 c 0,23,24
 627 -28 627 -28 518 -27 c 0,25,26
 495 -27 495 -27 471 -27 c 0,27,28
 330 -25 330 -25 119 2 c 1,29,-1
 86 1602 l 1,0,1
614 467 m 1,30,31
 731 494 731 494 804 548 c 128,-1,32
 877 602 877 602 913.5 660.5 c 128,-1,33
 950 719 950 719 965.5 776.5 c 128,-1,34
 981 834 981 834 981 866 c 0,35,36
 981 901 981 901 981 903 c 0,37,38
 981 907 981 907 975 943 c 128,-1,39
 969 979 969 979 948.5 1028 c 128,-1,40
 928 1077 928 1077 891 1109 c 0,41,42
 860 1136 860 1136 811 1136 c 0,43,44
 800 1136 800 1136 790 1134 c 0,45,46
 726 1128 726 1128 635 1055 c 1,47,-1
 614 467 l 1,30,31
EndSplineSet
EndChar

StartChar: E
Encoding: 69 69 36
Width: 1212
GlyphClass: 2
Flags: W
LayerCount: 2
Fore
SplineSet
72 1585 m 1,0,-1
 1202 1669 l 1,1,-1
 1139 1151 l 1,2,-1
 625 1128 l 1,3,-1
 623 1030 l 1,4,-1
 995 1057 l 1,5,-1
 952 698 l 1,6,-1
 610 672 l 1,7,-1
 606 559 l 1,8,-1
 1192 614 l 1,9,-1
 1182 49 l 1,10,-1
 86 -10 l 1,11,-1
 72 1585 l 1,0,-1
EndSplineSet
EndChar

StartChar: F
Encoding: 70 70 37
Width: 1118
GlyphClass: 2
Flags: W
LayerCount: 2
Fore
SplineSet
76 1587 m 1,0,-1
 1208 1669 l 1,1,-1
 1145 1137 l 1,2,-1
 629 1116 l 1,3,-1
 606 956 l 1,4,-1
 1036 983 l 1,5,-1
 1065 553 l 1,6,-1
 633 526 l 1,7,-1
 612 2 l 1,8,-1
 90 -10 l 1,9,-1
 76 1587 l 1,0,-1
EndSplineSet
EndChar

StartChar: G
Encoding: 71 71 38
Width: 1669
GlyphClass: 2
Flags: W
LayerCount: 2
Fore
SplineSet
-10 628 m 0,0,1
 -12 662 -12 662 -12 696 c 0,2,3
 -12 812 -12 812 14 922 c 0,4,5
 49 1065 49 1065 126 1192 c 128,-1,6
 203 1319 203 1319 310.5 1420.5 c 128,-1,7
 418 1522 418 1522 551 1593.5 c 128,-1,8
 684 1665 684 1665 831 1696 c 0,9,10
 835 1696 835 1696 875 1701 c 0,11,12
 897 1704 897 1704 931 1704 c 0,13,14
 957 1704 957 1704 991 1702 c 0,15,16
 1067 1698 1067 1698 1161 1672.5 c 128,-1,17
 1255 1647 1255 1647 1366 1586.5 c 128,-1,18
 1477 1526 1477 1526 1585 1419 c 1,19,-1
 1202 1016 l 1,20,21
 1173 1086 1173 1086 1111 1117.5 c 128,-1,22
 1049 1149 1049 1149 971 1149 c 0,23,24
 895 1149 895 1149 813 1116 c 128,-1,25
 731 1083 731 1083 663.5 1024 c 128,-1,26
 596 965 596 965 552 879 c 128,-1,27
 508 793 508 793 508 684 c 0,28,29
 508 678 508 678 508 673 c 0,30,31
 508 581 508 581 540 524 c 0,32,33
 573 463 573 463 626 436 c 0,34,35
 673 413 673 413 729 413 c 0,36,37
 735 413 735 413 742 413 c 0,38,39
 805 416 805 416 866.5 443.5 c 128,-1,40
 928 471 928 471 978 517 c 128,-1,41
 1028 563 1028 563 1053 623 c 1,42,-1
 762 567 l 1,43,-1
 795 897 l 1,44,-1
 1688 1010 l 1,45,46
 1695 961 1695 961 1695 913 c 0,47,48
 1695 833 1695 833 1676 755 c 0,49,50
 1647 629 1647 629 1594.5 524.5 c 128,-1,51
 1542 420 1542 420 1484.5 337 c 128,-1,52
 1427 254 1427 254 1389.5 211 c 128,-1,53
 1352 168 1352 168 1348 164 c 0,54,55
 1274 90 1274 90 1168.5 35 c 128,-1,56
 1063 -20 1063 -20 942 -49 c 0,57,58
 832 -75 832 -75 716 -75 c 0,59,60
 704 -75 704 -75 692 -75 c 0,61,62
 563 -72 563 -72 446.5 -30 c 128,-1,63
 330 12 330 12 230.5 98 c 128,-1,64
 131 184 131 184 70 322 c 0,65,66
 0 476 0 476 -10 628 c 0,0,1
EndSplineSet
EndChar

StartChar: H
Encoding: 72 72 39
Width: 1476
GlyphClass: 2
Flags: W
LayerCount: 2
Fore
SplineSet
27 1612 m 1,0,-1
 625 1669 l 1,1,-1
 553 918 l 1,2,-1
 856 940 l 1,3,-1
 881 1655 l 1,4,-1
 1464 1683 l 1,5,-1
 1298 102 l 1,6,-1
 823 45 l 1,7,-1
 850 496 l 1,8,-1
 635 465 l 1,9,-1
 614 -6 l 1,10,-1
 104 -16 l 1,11,-1
 27 1612 l 1,0,-1
EndSplineSet
EndChar

StartChar: I
Encoding: 73 73 40
Width: 759
GlyphClass: 2
Flags: W
LayerCount: 2
Fore
SplineSet
78 -35 m 1,0,-1
 98 1612 l 1,1,-1
 700 1683 l 1,2,-1
 616 27 l 1,3,-1
 78 -35 l 1,0,-1
EndSplineSet
EndChar

StartChar: J
Encoding: 74 74 41
Width: 1189
GlyphClass: 2
Flags: W
LayerCount: 2
Fore
SplineSet
-4 567 m 1,0,-1
 446 711 l 1,1,2
 427 610 427 610 427 548 c 0,3,4
 427 545 427 545 427 542 c 0,5,6
 428 479 428 479 439.5 451.5 c 128,-1,7
 451 424 451 424 467 418 c 128,-1,8
 483 412 483 412 494.5 416 c 128,-1,9
 506 420 506 420 508 420 c 0,10,11
 510 422 510 422 528.5 438.5 c 128,-1,12
 547 455 547 455 566 498 c 0,13,14
 581 533 581 533 581 585 c 0,15,16
 581 596 581 596 580 608 c 2,17,-1
 512 1589 l 1,18,-1
 1098 1692 l 1,19,20
 1110 1364 1110 1364 1115 1137.5 c 128,-1,21
 1120 911 1120 911 1121 777 c 0,22,23
 1121 744 1121 744 1121 714 c 0,24,25
 1121 625 1121 625 1119 570 c 0,26,27
 1116 498 1116 498 1114 476 c 2,28,-1
 1112 455 l 1,29,30
 1100 404 1100 404 1070 336 c 128,-1,31
 1040 268 1040 268 990 200.5 c 128,-1,32
 940 133 940 133 868.5 73.5 c 128,-1,33
 797 14 797 14 700 -18 c 0,34,35
 610 -49 610 -49 497 -49 c 0,36,37
 490 -49 490 -49 483 -49 c 0,38,39
 362 -47 362 -47 215 8 c 1,40,41
 215 8 215 8 172 32 c 0,42,43
 129 55 129 55 82 117.5 c 128,-1,44
 35 180 35 180 4 288 c 0,45,46
 -14 351 -14 351 -14 433 c 0,47,48
 -14 495 -14 495 -4 567 c 1,0,-1
EndSplineSet
EndChar

StartChar: K
Encoding: 75 75 42
Width: 1302
GlyphClass: 2
Flags: W
LayerCount: 2
Fore
SplineSet
63 1612 m 1,0,-1
 664 1683 l 1,1,-1
 657 1313 l 1,2,-1
 987 1769 l 1,3,-1
 1389 1296 l 1,4,-1
 817 766 l 1,5,-1
 1321 342 l 1,6,-1
 1034 -88 l 1,7,-1
 637 287 l 1,8,-1
 633 27 l 1,9,-1
 96 -35 l 1,10,-1
 63 1612 l 1,0,-1
EndSplineSet
EndChar

StartChar: L
Encoding: 76 76 43
Width: 1146
GlyphClass: 2
Flags: W
LayerCount: 2
Fore
SplineSet
82 1602 m 1,0,-1
 698 1688 l 1,1,-1
 645 535 l 1,2,-1
 1147 639 l 1,3,-1
 1171 63 l 1,4,-1
 96 -45 l 1,5,-1
 82 1602 l 1,0,-1
EndSplineSet
EndChar

StartChar: M
Encoding: 77 77 44
Width: 1808
GlyphClass: 2
Flags: W
LayerCount: 2
Fore
SplineSet
-88 252 m 1,0,-1
 432 1772 l 1,1,-1
 934 1139 l 1,2,-1
 1417 1638 l 1,3,-1
 1919 258 l 1,4,-1
 1425 -145 l 1,5,-1
 1202 520 l 1,6,-1
 924 33 l 1,7,-1
 588 549 l 1,8,-1
 389 -57 l 1,9,-1
 -88 252 l 1,0,-1
EndSplineSet
EndChar

StartChar: N
Encoding: 78 78 45
Width: 1560
GlyphClass: 2
Flags: W
LayerCount: 2
Fore
SplineSet
78 -35 m 1,0,-1
 104 1669 l 1,1,-1
 887 1020 l 1,2,-1
 905 1698 l 1,3,-1
 1516 1657 l 1,4,-1
 1421 94 l 1,5,-1
 637 485 l 1,6,-1
 666 2 l 1,7,-1
 78 -35 l 1,0,-1
EndSplineSet
EndChar

StartChar: O
Encoding: 79 79 46
Width: 1564
GlyphClass: 2
Flags: W
LayerCount: 2
Fore
SplineSet
-50 629 m 0,0,1
 -54 672 -54 672 -54 714 c 0,2,3
 -54 820 -54 820 -30 920 c 0,4,5
 2 1060 2 1060 76 1185.5 c 128,-1,6
 150 1311 150 1311 254 1412 c 128,-1,7
 358 1513 358 1513 488 1587 c 128,-1,8
 618 1661 618 1661 766 1700 c 0,9,10
 866 1725 866 1725 958 1725 c 0,11,12
 993 1726 993 1726 1027 1722 c 0,13,14
 1149 1708 1149 1708 1247.5 1663 c 128,-1,15
 1346 1618 1346 1618 1414.5 1553.5 c 128,-1,16
 1483 1489 1483 1489 1518 1423 c 0,17,18
 1581 1300 1581 1300 1613 1146 c 0,19,20
 1634 1046 1634 1046 1634 941 c 0,21,22
 1634 884 1634 884 1628 825 c 0,23,24
 1610 659 1610 659 1534.5 490.5 c 128,-1,25
 1459 322 1459 322 1309 168 c 0,26,27
 1235 94 1235 94 1129.5 39 c 128,-1,28
 1024 -16 1024 -16 903 -45 c 0,29,30
 790 -72 790 -72 670 -72 c 0,31,32
 662 -72 662 -72 654 -72 c 0,33,34
 526 -70 526 -70 408.5 -28 c 128,-1,35
 291 14 291 14 192.5 100 c 128,-1,36
 94 186 94 186 33 324 c 0,37,38
 -37 478 -37 478 -50 629 c 0,0,1
444 690 m 0,39,40
 444 684 444 684 444 678 c 0,41,42
 444 588 444 588 472 530 c 0,43,44
 502 468 502 468 548 439 c 128,-1,45
 594 410 594 410 654 406 c 0,46,47
 663 405 663 405 671 406 c 0,48,49
 722 406 722 406 771 424 c 0,50,51
 829 444 829 444 880.5 484 c 128,-1,52
 932 524 932 524 967 578 c 0,53,54
 1018 658 1018 658 1041.5 726.5 c 128,-1,55
 1065 795 1065 795 1070 852 c 0,56,57
 1072 870 1072 870 1072 888 c 0,58,59
 1072 924 1072 924 1064 956 c 0,60,61
 1054 1003 1054 1003 1036 1040 c 0,62,63
 1005 1106 1005 1106 949 1134 c 0,64,65
 900 1159 900 1159 843 1159 c 0,66,67
 836 1159 836 1159 828 1159 c 0,68,69
 762 1155 762 1155 694.5 1121 c 128,-1,70
 627 1087 627 1087 571.5 1027 c 128,-1,71
 516 967 516 967 480 881 c 128,-1,72
 444 795 444 795 444 690 c 0,39,40
EndSplineSet
EndChar

StartChar: P
Encoding: 80 80 47
Width: 1310
GlyphClass: 2
Flags: W
LayerCount: 2
Fore
SplineSet
82 1602 m 1,0,1
 471 1647 471 1647 561 1656 c 2,2,-1
 831 1681 l 2,3,4
 883 1686 883 1686 930 1686 c 0,5,6
 1039 1686 1039 1686 1123 1658 c 0,7,8
 1243 1616 1243 1616 1313.5 1534 c 128,-1,9
 1384 1452 1384 1452 1409 1338 c 0,10,11
 1423 1276 1423 1276 1422 1211 c 0,12,13
 1422 1157 1422 1157 1414 1101 c 0,14,15
 1394 977 1394 977 1332 851 c 128,-1,16
 1270 725 1270 725 1168.5 617.5 c 128,-1,17
 1067 510 1067 510 929 431 c 128,-1,18
 791 352 791 352 618 319 c 1,19,-1
 610 -49 l 1,20,-1
 115 2 l 1,21,-1
 82 1602 l 1,0,1
563 815 m 1,22,23
 637 831 637 831 691 862 c 128,-1,24
 745 893 745 893 782 928 c 128,-1,25
 819 963 819 963 839.5 994.5 c 128,-1,26
 860 1026 860 1026 864 1044 c 0,27,28
 864 1046 864 1046 866 1066 c 0,29,30
 866 1070 866 1070 866 1075 c 0,31,32
 866 1093 866 1093 860 1116 c 0,33,34
 852 1144 852 1144 826 1164 c 0,35,36
 801 1183 801 1183 746 1183 c 0,37,38
 742 1183 742 1183 740 1183 c 0,39,40
 682 1182 682 1182 584 1143 c 1,41,-1
 563 815 l 1,22,23
EndSplineSet
EndChar

StartChar: Q
Encoding: 81 81 48
Width: 1585
GlyphClass: 2
Flags: W
LayerCount: 2
Fore
SplineSet
-58 777 m 0,0,1
 -39 999 -39 999 69.5 1185.5 c 128,-1,2
 178 1372 178 1372 359.5 1507 c 128,-1,3
 541 1642 541 1642 760 1700 c 0,4,5
 860 1725 860 1725 952 1725 c 0,6,7
 987 1725 987 1725 1021 1722 c 0,8,9
 1143 1708 1143 1708 1241 1663 c 128,-1,10
 1339 1618 1339 1618 1407.5 1553.5 c 128,-1,11
 1476 1489 1476 1489 1511 1423 c 0,12,13
 1570 1308 1570 1308 1602 1167 c 0,14,15
 1627 1057 1627 1057 1627 940 c 0,16,17
 1627 907 1627 907 1625 874 c 0,18,19
 1616 721 1616 721 1558.5 563.5 c 128,-1,20
 1501 406 1501 406 1382 258 c 1,21,-1
 1477 166 l 1,22,-1
 1174 -135 l 1,23,-1
 1067 10 l 1,24,25
 938 -47 938 -47 786 -66 c 0,26,27
 731 -72 731 -72 676 -72 c 0,28,29
 582 -72 582 -72 490 -52 c 0,30,31
 346 -20 346 -20 222 71 c 128,-1,32
 98 162 98 162 25 324 c 0,33,34
 -61 519 -61 519 -61 707 c 0,35,36
 -61 742 -61 742 -58 777 c 0,0,1
438 690 m 0,37,38
 438 592 438 592 467 530.5 c 128,-1,39
 496 469 496 469 542 438.5 c 128,-1,40
 588 408 588 408 646 406 c 0,41,42
 653 405 653 405 659 405 c 0,43,44
 711 405 711 405 764 424 c 1,45,-1
 717 487 l 1,46,-1
 889 739 l 1,47,-1
 995 635 l 1,48,49
 1032 703 1032 703 1048.5 762 c 128,-1,50
 1065 821 1065 821 1066 872 c 0,51,52
 1066 877 1066 877 1066 882 c 0,53,54
 1066 928 1066 928 1057 965 c 0,55,56
 1047 1006 1047 1006 1030 1040 c 0,57,58
 999 1106 999 1106 943 1134 c 0,59,60
 894 1159 894 1159 837 1159 c 0,61,62
 830 1159 830 1159 822 1159 c 0,63,64
 756 1155 756 1155 688.5 1121 c 128,-1,65
 621 1087 621 1087 565.5 1027 c 128,-1,66
 510 967 510 967 474 880.5 c 128,-1,67
 438 794 438 794 438 690 c 0,37,38
EndSplineSet
EndChar

StartChar: R
Encoding: 82 82 49
Width: 1372
GlyphClass: 2
Flags: W
LayerCount: 2
Fore
SplineSet
68 1602 m 1,0,1
 457 1647 457 1647 637 1664 c 2,2,-1
 817 1681 l 2,3,4
 873 1687 873 1687 924 1687 c 0,5,6
 1047 1686 1047 1686 1138 1652 c 0,7,8
 1266 1604 1266 1604 1332.5 1510.5 c 128,-1,9
 1399 1417 1399 1417 1408 1293 c 0,10,11
 1410 1272 1410 1272 1409 1252 c 0,12,13
 1409 1148 1409 1148 1372 1039 c 0,14,15
 1327 909 1327 909 1230 786.5 c 128,-1,16
 1133 664 1133 664 989 573 c 1,17,-1
 1417 293 l 1,18,-1
 1100 -66 l 1,19,-1
 602 301 l 1,20,-1
 596 -49 l 1,21,-1
 100 2 l 1,22,-1
 68 1602 l 1,0,1
551 815 m 1,23,24
 625 831 625 831 679 862 c 128,-1,25
 733 893 733 893 770 928 c 128,-1,26
 807 963 807 963 826.5 994.5 c 128,-1,27
 846 1026 846 1026 850 1044 c 0,28,29
 850 1046 850 1046 852 1066 c 0,30,31
 852 1071 852 1071 852 1076 c 0,32,33
 852 1093 852 1093 847 1116 c 0,34,35
 840 1144 840 1144 812 1164 c 0,36,37
 785 1183 785 1183 732 1183 c 0,38,39
 728 1183 728 1183 726 1183 c 0,40,41
 668 1182 668 1182 571 1143 c 1,42,-1
 551 815 l 1,23,24
EndSplineSet
EndChar

StartChar: S
Encoding: 83 83 50
Width: 1210
GlyphClass: 2
Flags: W
LayerCount: 2
Fore
SplineSet
-47 88 m 1,0,-1
 109 526 l 1,1,2
 140 514 140 514 182.5 494.5 c 128,-1,3
 225 475 225 475 274.5 458.5 c 128,-1,4
 324 442 324 442 377 430 c 0,5,6
 422 420 422 420 466 420 c 0,7,8
 473 420 473 420 481 420 c 0,9,10
 558 424 558 424 610 446 c 0,11,12
 660 467 660 467 659 516 c 0,13,14
 659 519 659 519 659 522 c 0,15,16
 657 557 657 557 623.5 575.5 c 128,-1,17
 590 594 590 594 543 612 c 0,18,19
 512 620 512 620 462 634.5 c 128,-1,20
 412 649 412 649 354.5 673.5 c 128,-1,21
 297 698 297 698 238.5 733 c 128,-1,22
 180 768 180 768 132 817 c 128,-1,23
 84 866 84 866 52 930.5 c 128,-1,24
 20 995 20 995 18 1079 c 0,25,26
 18 1089 18 1089 18 1099 c 0,27,28
 18 1230 18 1230 68 1334 c 0,29,30
 122 1446 122 1446 213.5 1525 c 128,-1,31
 305 1604 305 1604 428 1646 c 128,-1,32
 551 1688 551 1688 690 1694 c 0,33,34
 720 1695 720 1695 751 1695 c 0,35,36
 849 1694 849 1694 946 1680 c 0,37,38
 1073 1660 1073 1660 1184 1616 c 1,39,-1
 1063 1143 l 1,40,41
 981 1178 981 1178 913.5 1201.5 c 128,-1,42
 846 1225 846 1225 756 1237 c 0,43,44
 729 1241 729 1241 684 1241 c 0,45,46
 641 1241 641 1241 599 1232 c 128,-1,47
 557 1223 557 1223 526.5 1202.5 c 128,-1,48
 496 1182 496 1182 494 1145 c 0,49,50
 494 1129 494 1129 509 1119.5 c 128,-1,51
 524 1110 524 1110 545.5 1105 c 128,-1,52
 567 1100 567 1100 589.5 1097 c 128,-1,53
 612 1094 612 1094 627 1092 c 0,54,55
 686 1080 686 1080 720 1072 c 2,56,-1
 754 1063 l 2,57,58
 811 1051 811 1051 864 1028 c 0,59,60
 927 999 927 999 994 962.5 c 128,-1,61
 1061 926 1061 926 1115 872.5 c 128,-1,62
 1169 819 1169 819 1205 744.5 c 128,-1,63
 1241 670 1241 670 1245 567 c 0,64,65
 1246 552 1246 552 1246 538 c 0,66,67
 1246 410 1246 410 1198 310 c 0,68,69
 1145 198 1145 198 1047.5 121.5 c 128,-1,70
 950 45 950 45 815 3 c 128,-1,71
 680 -39 680 -39 524 -45 c 0,72,73
 511 -45 511 -45 498 -45 c 0,74,75
 438 -45 438 -45 376 -38 c 0,76,77
 300 -29 300 -29 227 -10.5 c 128,-1,78
 154 8 154 8 84 33.5 c 128,-1,79
 14 59 14 59 -47 88 c 1,0,-1
EndSplineSet
EndChar

StartChar: T
Encoding: 84 84 51
Width: 1067
GlyphClass: 2
Flags: W
LayerCount: 2
Fore
SplineSet
-6 1108 m 1,0,-1
 8 1612 l 1,1,-1
 1114 1706 l 1,2,-1
 1061 1219 l 1,3,-1
 815 1190 l 1,4,-1
 815 37 l 1,5,-1
 233 -35 l 1,6,-1
 264 1135 l 1,7,-1
 -6 1108 l 1,0,-1
EndSplineSet
EndChar

StartChar: U
Encoding: 85 85 52
Width: 1318
GlyphClass: 2
Flags: W
LayerCount: 2
Fore
SplineSet
14 600 m 0,0,1
 14 602 14 602 14 621 c 0,2,3
 14 641 14 641 16 706.5 c 128,-1,4
 18 772 18 772 20.5 891 c 128,-1,5
 23 1010 23 1010 29 1208.5 c 128,-1,6
 35 1407 35 1407 43 1692 c 1,7,-1
 629 1589 l 1,8,-1
 575 627 l 2,9,10
 571 603 571 603 571 581 c 0,11,12
 570 555 570 555 576 533 c 0,13,14
 586 492 586 492 596 473.5 c 128,-1,15
 606 455 606 455 608 453 c 0,16,17
 628 430 628 430 655 426 c 0,18,19
 657 426 657 426 659 426 c 0,20,21
 684 426 684 426 715 475 c 0,22,23
 717 477 717 477 727 500 c 0,24,25
 738 524 738 524 748 584 c 0,26,27
 756 627 756 627 755 684 c 0,28,29
 755 706 755 706 754 729 c 2,30,-1
 711 1516 l 1,31,-1
 1266 1618 l 1,32,33
 1278 1305 1278 1305 1283 1114.5 c 128,-1,34
 1288 924 1288 924 1290 821.5 c 128,-1,35
 1292 719 1292 719 1292 686 c 2,36,-1
 1292 653 l 2,37,38
 1292 642 1292 642 1292 631 c 0,39,40
 1292 518 1292 518 1274 414 c 0,41,42
 1254 300 1254 300 1199.5 206.5 c 128,-1,43
 1145 113 1145 113 1051.5 46.5 c 128,-1,44
 958 -20 958 -20 819 -47 c 0,45,46
 700 -70 700 -70 600 -70 c 0,47,48
 520 -70 520 -70 452 -56 c 0,49,50
 298 -24 298 -24 199 67 c 128,-1,51
 100 158 100 158 55 296 c 0,52,53
 14 423 14 423 14 573 c 0,54,55
 14 586 14 586 14 600 c 0,0,1
EndSplineSet
EndChar

StartChar: V
Encoding: 86 86 53
Width: 1531
GlyphClass: 2
Flags: W
LayerCount: 2
Fore
SplineSet
-98 1368 m 1,0,-1
 485 1712 l 1,1,-1
 786 991 l 1,2,-1
 1137 1696 l 1,3,-1
 1647 1401 l 1,4,-1
 745 -145 l 1,5,-1
 -98 1368 l 1,0,-1
EndSplineSet
EndChar

StartChar: W
Encoding: 87 87 54
Width: 2017
GlyphClass: 2
Flags: W
LayerCount: 2
Fore
SplineSet
-86 1493 m 1,0,-1
 471 1735 l 1,1,-1
 688 1065 l 1,2,-1
 1059 1634 l 1,3,-1
 1368 1098 l 1,4,-1
 1614 1831 l 1,5,-1
 2085 1493 l 1,6,-1
 1577 -12 l 1,7,-1
 1067 510 l 1,8,-1
 541 -154 l 1,9,-1
 -86 1493 l 1,0,-1
EndSplineSet
EndChar

StartChar: X
Encoding: 88 88 55
Width: 1650
GlyphClass: 2
Flags: W
LayerCount: 2
Fore
SplineSet
-20 1370 m 1,0,-1
 436 1714 l 1,1,-1
 838 1303 l 1,2,-1
 1217 1714 l 1,3,-1
 1675 1370 l 1,4,-1
 1190 866 l 1,5,-1
 1686 360 l 1,6,-1
 1294 -59 l 1,7,-1
 829 524 l 1,8,-1
 457 -78 l 1,9,-1
 -10 313 l 1,10,-1
 457 838 l 1,11,-1
 -20 1370 l 1,0,-1
EndSplineSet
EndChar

StartChar: Y
Encoding: 89 89 56
Width: 1435
GlyphClass: 2
Flags: W
LayerCount: 2
Fore
SplineSet
-123 1360 m 1,0,-1
 317 1704 l 1,1,-1
 680 1135 l 1,2,-1
 1073 1704 l 1,3,-1
 1575 1360 l 1,4,-1
 950 553 l 1,5,-1
 944 -37 l 1,6,-1
 393 37 l 1,7,-1
 393 639 l 1,8,-1
 -123 1360 l 1,0,-1
EndSplineSet
EndChar

StartChar: Z
Encoding: 90 90 57
Width: 1673
GlyphClass: 2
Flags: W
LayerCount: 2
Fore
SplineSet
-33 1104 m 1,0,-1
 82 1640 l 1,1,-1
 1604 1690 l 1,2,-1
 909 537 l 1,3,-1
 1679 631 l 1,4,-1
 1577 35 l 1,5,-1
 68 -63 l 1,6,-1
 565 1143 l 1,7,-1
 -33 1104 l 1,0,-1
EndSplineSet
EndChar

StartChar: a
Encoding: 97 97 58
Width: 1234
GlyphClass: 2
Flags: W
LayerCount: 2
Fore
SplineSet
-18 422 m 0,0,1
 -18 506 -18 506 14.5 576.5 c 128,-1,2
 47 647 47 647 103.5 699.5 c 128,-1,3
 160 752 160 752 236.5 781.5 c 128,-1,4
 313 811 313 811 403 811 c 0,5,6
 497 811 497 811 562 783.5 c 128,-1,7
 627 756 627 756 672 721 c 1,8,-1
 672 782 l 2,9,10
 672 876 672 876 610.5 907 c 128,-1,11
 549 938 549 938 451 938 c 0,12,13
 361 938 361 938 283 919.5 c 128,-1,14
 205 901 205 901 125 877 c 1,15,-1
 205 1202 l 1,16,17
 303 1231 303 1231 409.5 1242 c 128,-1,18
 516 1253 516 1253 627 1253 c 0,19,20
 727 1253 727 1253 823.5 1229.5 c 128,-1,21
 920 1206 920 1206 992.5 1153 c 128,-1,22
 1065 1100 1065 1100 1108 1016 c 0,23,24
 1149 936 1149 936 1149 820 c 0,25,26
 1149 815 1149 815 1149 809 c 2,27,-1
 1126 35 l 1,28,-1
 715 0 l 1,29,-1
 715 139 l 1,30,-1
 711 139 l 1,31,32
 656 61 656 61 570.5 30.5 c 128,-1,33
 485 0 485 0 387 0 c 0,34,35
 305 0 305 0 231.5 29.5 c 128,-1,36
 158 59 158 59 102.5 114.5 c 128,-1,37
 47 170 47 170 14.5 248 c 128,-1,38
 -18 326 -18 326 -18 422 c 0,0,1
301 385 m 0,39,40
 310 338 310 338 360 314 c 0,41,42
 393 298 393 298 439 299 c 0,43,44
 462 299 462 299 489 303 c 0,45,46
 569 315 569 315 608 354 c 0,47,48
 640 386 640 386 640 423 c 0,49,50
 640 430 640 430 639 438 c 0,51,52
 633 476 633 476 587 504 c 0,53,54
 557 522 557 522 508 523 c 0,55,56
 484 523 484 523 455 518 c 0,57,58
 385 508 385 508 340 470 c 0,59,60
 300 436 300 436 300 396 c 0,61,62
 300 391 300 391 301 385 c 0,39,40
EndSplineSet
EndChar

StartChar: b
Encoding: 98 98 59
Width: 1310
GlyphClass: 2
Flags: W
LayerCount: 2
Fore
SplineSet
66 1655 m 1,0,-1
 539 1692 l 1,1,-1
 520 1159 l 1,2,3
 583 1194 583 1194 643 1218.5 c 128,-1,4
 703 1243 703 1243 797 1243 c 0,5,6
 920 1243 920 1243 1022 1190 c 128,-1,7
 1124 1137 1124 1137 1200 1050 c 128,-1,8
 1276 963 1276 963 1318 852 c 128,-1,9
 1360 741 1360 741 1360 627 c 0,10,11
 1360 473 1360 473 1307.5 354.5 c 128,-1,12
 1255 236 1255 236 1169 155 c 128,-1,13
 1083 74 1083 74 969.5 32 c 128,-1,14
 856 -10 856 -10 733 -10 c 0,15,16
 639 -10 639 -10 556 22.5 c 128,-1,17
 473 55 473 55 401 92 c 1,18,-1
 401 4 l 1,19,-1
 78 4 l 1,20,-1
 66 1655 l 1,0,-1
486 608 m 0,21,22
 483 593 483 593 483 579 c 0,23,24
 483 557 483 557 489 535 c 0,25,26
 499 498 499 498 524 470 c 128,-1,27
 549 442 549 442 585 426 c 128,-1,28
 621 410 621 410 666 407 c 0,29,30
 674 406 674 406 682 406 c 0,31,32
 720 406 720 406 760 418 c 0,33,34
 809 432 809 432 844 457.5 c 128,-1,35
 879 483 879 483 900.5 516 c 128,-1,36
 922 549 922 549 928 586 c 0,37,38
 930 600 930 600 930 614 c 0,39,40
 930 637 930 637 924 659 c 0,41,42
 914 696 914 696 889 724 c 128,-1,43
 864 752 864 752 828.5 769 c 128,-1,44
 793 786 793 786 749 790 c 0,45,46
 741 791 741 791 732 790 c 0,47,48
 695 790 695 790 655 778 c 0,49,50
 606 764 606 764 570.5 737.5 c 128,-1,51
 535 711 535 711 513.5 678 c 128,-1,52
 492 645 492 645 486 608 c 0,21,22
EndSplineSet
EndChar

StartChar: c
Encoding: 99 99 60
Width: 1081
GlyphClass: 2
Flags: W
LayerCount: 2
Fore
SplineSet
-14 602 m 0,0,1
 -14 752 -14 752 37 871.5 c 128,-1,2
 88 991 88 991 179 1074 c 128,-1,3
 270 1157 270 1157 395 1201 c 128,-1,4
 520 1245 520 1245 666 1246 c 0,5,6
 811 1246 811 1246 918.5 1198.5 c 128,-1,7
 1026 1151 1026 1151 1100 1102 c 1,8,-1
 829 748 l 1,9,10
 800 771 800 771 762.5 785 c 128,-1,11
 725 799 725 799 686 805 c 0,12,13
 657 810 657 810 629 810 c 0,14,15
 620 810 620 810 611 809 c 0,16,17
 575 807 575 807 553 795 c 0,18,19
 514 775 514 775 486 747 c 0,20,21
 460 719 460 719 444 686 c 0,22,23
 429 655 429 655 429 620 c 0,24,25
 429 580 429 580 451 539 c 0,26,27
 492 456 492 456 568 438 c 0,28,29
 591 432 591 432 615 433 c 0,30,31
 669 433 669 433 727 461 c 2,32,-1
 831 514 l 1,33,-1
 1110 145 l 1,34,35
 1059 100 1059 100 1000.5 70.5 c 128,-1,36
 942 41 942 41 880.5 22.5 c 128,-1,37
 819 4 819 4 755.5 -3 c 128,-1,38
 692 -10 692 -10 633 -10 c 0,39,40
 494 -10 494 -10 376 37 c 128,-1,41
 258 84 258 84 171 167 c 128,-1,42
 84 250 84 250 35 361.5 c 128,-1,43
 -14 473 -14 473 -14 602 c 0,0,1
EndSplineSet
EndChar

StartChar: d
Encoding: 100 100 61
Width: 1359
GlyphClass: 2
Flags: W
LayerCount: 2
Fore
SplineSet
-18 596 m 0,0,1
 -18 727 -18 727 19.5 842.5 c 128,-1,2
 57 958 57 958 129 1045.5 c 128,-1,3
 201 1133 201 1133 306.5 1183 c 128,-1,4
 412 1233 412 1233 547 1233 c 0,5,6
 615 1233 615 1233 678 1215.5 c 128,-1,7
 741 1198 741 1198 788 1157 c 1,8,-1
 770 1645 l 1,9,-1
 1241 1681 l 1,10,-1
 1233 14 l 1,11,-1
 831 -12 l 1,12,-1
 831 104 l 1,13,-1
 827 104 l 1,14,15
 778 38 778 38 693 9 c 128,-1,16
 608 -20 608 -20 522 -20 c 0,17,18
 418 -20 418 -20 320.5 21.5 c 128,-1,19
 223 63 223 63 147.5 142 c 128,-1,20
 72 221 72 221 27 336 c 128,-1,21
 -18 451 -18 451 -18 596 c 0,0,1
391 593 m 0,22,23
 391 588 391 588 391 582 c 0,24,25
 391 550 391 550 401 522 c 0,26,27
 413 487 413 487 439 461.5 c 128,-1,28
 465 436 465 436 500 421 c 128,-1,29
 535 406 535 406 577 405 c 0,30,31
 579 405 579 405 582 405 c 0,32,33
 622 405 622 405 666 420 c 0,34,35
 711 436 711 436 741.5 464 c 128,-1,36
 772 492 772 492 789.5 525.5 c 128,-1,37
 807 559 807 559 809 596 c 0,38,39
 809 601 809 601 809 607 c 0,40,41
 809 638 809 638 799 668 c 0,42,43
 787 701 787 701 761 727.5 c 128,-1,44
 735 754 735 754 700.5 769 c 128,-1,45
 666 784 666 784 624 786 c 0,46,47
 619 786 619 786 615 786 c 0,48,49
 577 786 577 786 537 772 c 0,50,51
 490 756 490 756 459 727 c 128,-1,52
 428 698 428 698 410.5 664.5 c 128,-1,53
 393 631 393 631 391 593 c 0,22,23
EndSplineSet
EndChar

StartChar: e
Encoding: 101 101 62
Width: 1171
GlyphClass: 2
Flags: W
LayerCount: 2
Fore
SplineSet
-23 584 m 0,0,1
 -23 738 -23 738 26.5 858.5 c 128,-1,2
 76 979 76 979 160 1063 c 128,-1,3
 244 1147 244 1147 355.5 1191 c 128,-1,4
 467 1235 467 1235 594 1235 c 0,5,6
 799 1235 799 1235 949.5 1130.5 c 128,-1,7
 1100 1026 1100 1026 1174 852 c 1,8,-1
 561 391 l 1,9,10
 584 379 584 379 620.5 375 c 128,-1,11
 657 371 657 371 688 371 c 0,12,13
 782 371 782 371 846.5 404.5 c 128,-1,14
 911 438 911 438 965 485 c 1,15,-1
 1167 152 l 1,16,17
 1042 62 1042 62 911 22 c 128,-1,18
 780 -18 780 -18 610 -18 c 0,19,20
 471 -18 471 -18 355.5 30 c 128,-1,21
 240 78 240 78 156 160 c 128,-1,22
 72 242 72 242 24.5 351.5 c 128,-1,23
 -23 461 -23 461 -23 584 c 0,0,1
406 676 m 0,24,25
 406 639 406 639 411 623.5 c 128,-1,26
 416 608 416 608 424 592 c 1,27,-1
 729 823 l 1,28,29
 700 858 700 858 666.5 870.5 c 128,-1,30
 633 883 633 883 590 883 c 0,31,32
 549 883 549 883 515 865.5 c 128,-1,33
 481 848 481 848 456.5 818 c 128,-1,34
 432 788 432 788 419 751.5 c 128,-1,35
 406 715 406 715 406 676 c 0,24,25
EndSplineSet
EndChar

StartChar: f
Encoding: 102 102 63
Width: 851
GlyphClass: 2
Flags: W
LayerCount: 2
Fore
SplineSet
25 827 m 1,0,-1
 90 1180 l 1,1,-1
 166 1180 l 1,2,3
 166 1291 166 1291 194.5 1380.5 c 128,-1,4
 223 1470 223 1470 281.5 1532.5 c 128,-1,5
 340 1595 340 1595 430 1630 c 128,-1,6
 520 1665 520 1665 645 1665 c 0,7,8
 680 1665 680 1665 707.5 1660 c 128,-1,9
 735 1655 735 1655 766 1651 c 1,10,-1
 819 1311 l 1,11,-1
 750 1311 l 2,12,13
 682 1311 682 1311 646 1276 c 128,-1,14
 610 1241 610 1241 610 1180 c 1,15,-1
 786 1180 l 1,16,-1
 786 827 l 1,17,-1
 610 827 l 1,18,-1
 623 16 l 1,19,-1
 164 -20 l 1,20,-1
 166 827 l 1,21,-1
 25 827 l 1,0,-1
EndSplineSet
EndChar

StartChar: g
Encoding: 103 103 64
Width: 1212
GlyphClass: 2
Flags: W
LayerCount: 2
Fore
SplineSet
-18 750 m 0,0,1
 -18 834 -18 834 13.5 923 c 128,-1,2
 45 1012 45 1012 112.5 1085.5 c 128,-1,3
 180 1159 180 1159 284.5 1206 c 128,-1,4
 389 1253 389 1253 535 1253 c 0,5,6
 609 1253 609 1253 664 1243 c 128,-1,7
 719 1233 719 1233 768 1217 c 1,8,-1
 803 1432 l 1,9,-1
 1130 1290 l 1,10,-1
 1024 1081 l 1,11,12
 1090 1018 1090 1018 1123.5 935 c 128,-1,13
 1157 852 1157 852 1157 758 c 0,14,15
 1157 629 1157 629 1105 537.5 c 128,-1,16
 1053 446 1053 446 950 379 c 1,17,18
 1151 266 1151 266 1151 39 c 0,19,20
 1151 -70 1151 -70 1104 -155 c 128,-1,21
 1057 -240 1057 -240 970 -297 c 128,-1,22
 883 -354 883 -354 761 -384 c 128,-1,23
 639 -414 639 -414 489 -414 c 0,24,25
 309 -414 309 -414 190.5 -383 c 128,-1,26
 72 -352 72 -352 -2 -328 c 1,27,-1
 197 33 l 1,28,29
 269 8 269 8 341.5 -8.5 c 128,-1,30
 414 -25 414 -25 492 -25 c 0,31,32
 525 -25 525 -25 557.5 -20.5 c 128,-1,33
 590 -16 590 -16 616.5 -3 c 128,-1,34
 643 10 643 10 659.5 33.5 c 128,-1,35
 676 57 676 57 676 96 c 256,36,37
 676 135 676 135 656.5 160.5 c 128,-1,38
 637 186 637 186 603 201.5 c 128,-1,39
 569 217 569 217 526 222 c 128,-1,40
 483 227 483 227 438 227 c 0,41,42
 385 227 385 227 329.5 212 c 128,-1,43
 274 197 274 197 227 172 c 1,44,-1
 266 295 l 1,45,46
 131 361 131 361 56.5 474.5 c 128,-1,47
 -18 588 -18 588 -18 750 c 0,0,1
412 696 m 0,48,49
 422 643 422 643 472 618 c 0,50,51
 503 602 503 602 541 602 c 0,52,53
 565 602 565 602 592 608 c 0,54,55
 662 622 662 622 696 666 c 0,56,57
 723 699 723 699 723 739 c 0,58,59
 723 750 723 750 721 762 c 0,60,61
 709 815 709 815 658 840 c 0,62,63
 626 855 626 855 588 855 c 0,64,65
 565 855 565 855 541 850 c 0,66,67
 471 834 471 834 436 791 c 0,68,69
 409 758 409 758 409 720 c 0,70,71
 409 708 409 708 412 696 c 0,48,49
EndSplineSet
EndChar

StartChar: h
Encoding: 104 104 65
Width: 1202
GlyphClass: 2
Flags: W
LayerCount: 2
Fore
SplineSet
63 1632 m 1,0,-1
 522 1669 l 1,1,-1
 508 1094 l 1,2,-1
 512 1094 l 1,3,4
 563 1162 563 1162 630.5 1191.5 c 128,-1,5
 698 1221 698 1221 782 1221 c 0,6,7
 868 1221 868 1221 934.5 1190 c 128,-1,8
 1001 1159 1001 1159 1046.5 1104 c 128,-1,9
 1092 1049 1092 1049 1116 974 c 0,10,11
 1138 905 1138 905 1137 826 c 0,12,13
 1137 819 1137 819 1137 813 c 2,14,-1
 1124 20 l 1,15,-1
 692 -16 l 1,16,-1
 692 731 l 2,17,18
 692 766 692 766 667.5 790.5 c 128,-1,19
 643 815 643 815 602 815 c 0,20,21
 563 815 563 815 535.5 791.5 c 128,-1,22
 508 768 508 768 508 727 c 2,23,-1
 508 -18 l 1,24,-1
 78 18 l 1,25,-1
 63 1632 l 1,0,-1
EndSplineSet
EndChar

StartChar: i
Encoding: 105 105 66
Width: 624
GlyphClass: 2
Flags: W
LayerCount: 2
Fore
SplineSet
78 1307 m 1,0,-1
 80 1679 l 1,1,-1
 549 1700 l 1,2,-1
 524 1339 l 1,3,-1
 78 1307 l 1,0,-1
82 -20 m 5,4,-1
 82 1161 l 5,5,-1
 539 1198 l 5,6,-1
 516 16 l 5,7,-1
 82 -20 l 5,4,-1
EndSplineSet
EndChar

StartChar: j
Encoding: 106 106 67
Width: 802
GlyphClass: 2
Flags: W
LayerCount: 2
Fore
SplineSet
8 -20 m 1,0,-1
 55 -20 l 2,1,2
 147 -20 147 -20 194.5 18.5 c 128,-1,3
 242 57 242 57 242 152 c 2,4,-1
 242 1155 l 1,5,-1
 686 1192 l 1,6,-1
 686 115 l 2,7,8
 686 -12 686 -12 653.5 -107.5 c 128,-1,9
 621 -203 621 -203 559.5 -266.5 c 128,-1,10
 498 -330 498 -330 411 -362.5 c 128,-1,11
 324 -395 324 -395 217 -395 c 2,12,-1
 121 -395 l 1,13,-1
 8 -20 l 1,0,-1
238 1300 m 1,14,-1
 240 1675 l 1,15,-1
 709 1696 l 1,16,-1
 684 1335 l 1,17,-1
 238 1300 l 1,14,-1
EndSplineSet
EndChar

StartChar: k
Encoding: 107 107 68
Width: 1183
GlyphClass: 2
Flags: W
LayerCount: 2
Fore
SplineSet
59 1628 m 1,0,-1
 524 1665 l 1,1,-1
 483 801 l 1,2,-1
 487 801 l 1,3,-1
 682 1217 l 1,4,-1
 1135 1180 l 1,5,-1
 868 664 l 1,6,-1
 1176 190 l 1,7,-1
 750 -20 l 1,8,-1
 483 494 l 1,9,-1
 479 494 l 1,10,-1
 496 16 l 1,11,-1
 70 -20 l 1,12,-1
 59 1628 l 1,0,-1
EndSplineSet
EndChar

StartChar: l
Encoding: 108 108 69
Width: 612
GlyphClass: 2
Flags: W
LayerCount: 2
Fore
SplineSet
72 1628 m 1,0,-1
 535 1665 l 1,1,-1
 516 16 l 1,2,-1
 86 -20 l 1,3,-1
 72 1628 l 1,0,-1
EndSplineSet
EndChar

StartChar: m
Encoding: 109 109 70
Width: 1824
GlyphClass: 2
Flags: W
LayerCount: 2
Fore
SplineSet
57 1186 m 1,0,-1
 475 1223 l 1,1,-1
 475 1034 l 1,2,-1
 479 1034 l 1,3,4
 545 1122 545 1122 628 1172.5 c 128,-1,5
 711 1223 711 1223 827 1223 c 0,6,7
 923 1223 923 1223 988 1193 c 128,-1,8
 1053 1163 1053 1163 1106 1100 c 1,9,10
 1159 1155 1159 1155 1226.5 1189 c 128,-1,11
 1294 1223 1294 1223 1376 1223 c 0,12,13
 1468 1223 1468 1223 1539 1191 c 128,-1,14
 1610 1159 1610 1159 1658 1101.5 c 128,-1,15
 1706 1044 1706 1044 1731.5 967.5 c 128,-1,16
 1757 891 1757 891 1759 803 c 2,17,-1
 1772 23 l 1,18,-1
 1327 -14 l 1,19,-1
 1339 729 l 2,20,21
 1339 768 1339 768 1310.5 792.5 c 128,-1,22
 1282 817 1282 817 1235 817 c 0,23,24
 1186 817 1186 817 1157 786.5 c 128,-1,25
 1128 756 1128 756 1128 723 c 2,26,-1
 1141 23 l 1,27,-1
 696 -14 l 1,28,-1
 705 725 l 2,29,30
 707 766 707 766 676 791.5 c 128,-1,31
 645 817 645 817 596 817 c 0,32,33
 557 816 557 816 523 792 c 0,34,35
 492 769 492 769 492 730 c 0,36,37
 492 726 492 726 492 723 c 2,38,-1
 512 -16 l 1,39,-1
 82 20 l 1,40,-1
 57 1186 l 1,0,-1
EndSplineSet
EndChar

StartChar: n
Encoding: 110 110 71
Width: 1210
GlyphClass: 2
Flags: W
LayerCount: 2
Fore
SplineSet
57 1176 m 1,0,-1
 483 1210 l 1,1,-1
 483 1053 l 1,2,-1
 492 1053 l 1,3,4
 560 1145 560 1145 630 1177.5 c 128,-1,5
 700 1210 700 1210 784 1210 c 0,6,7
 870 1210 870 1210 935.5 1179.5 c 128,-1,8
 1001 1149 1001 1149 1046.5 1093.5 c 128,-1,9
 1092 1038 1092 1038 1115.5 964.5 c 128,-1,10
 1139 891 1139 891 1139 805 c 2,11,-1
 1139 12 l 1,12,-1
 696 -25 l 1,13,-1
 702 721 l 2,14,15
 704 758 704 758 674.5 782.5 c 128,-1,16
 645 807 645 807 604 807 c 0,17,18
 565 807 565 807 533.5 783.5 c 128,-1,19
 502 760 502 760 502 719 c 2,20,-1
 510 -20 l 1,21,-1
 74 10 l 1,22,-1
 57 1176 l 1,0,-1
EndSplineSet
EndChar

StartChar: o
Encoding: 111 111 72
Width: 1263
GlyphClass: 2
Flags: W
LayerCount: 2
Fore
SplineSet
-14 522 m 0,0,1
 -21 575 -21 575 -21 625 c 0,2,3
 -20 709 -20 709 0 785 c 0,4,5
 34 907 34 907 108 1001.5 c 128,-1,6
 182 1096 182 1096 294 1156.5 c 128,-1,7
 406 1217 406 1217 543 1235 c 0,8,9
 598 1242 598 1242 652 1242 c 0,10,11
 730 1242 730 1242 804 1226 c 0,12,13
 928 1200 928 1200 1026 1131.5 c 128,-1,14
 1124 1063 1124 1063 1190 954.5 c 128,-1,15
 1256 846 1256 846 1276 705 c 0,16,17
 1283 652 1283 652 1284 602 c 0,18,19
 1284 518 1284 518 1262 442 c 0,20,21
 1228 320 1228 320 1153.5 226.5 c 128,-1,22
 1079 133 1079 133 967.5 72.5 c 128,-1,23
 856 12 856 12 719 -6 c 0,24,25
 664 -13 664 -13 610 -13 c 0,26,27
 531 -14 531 -14 457 2 c 0,28,29
 332 28 332 28 233.5 97 c 128,-1,30
 135 166 135 166 69.5 273.5 c 128,-1,31
 4 381 4 381 -14 522 c 0,0,1
416 530 m 0,32,33
 450 450 450 450 526 426 c 0,34,35
 554 417 554 417 586 417 c 0,36,37
 638 417 638 417 698 442 c 0,38,39
 792 483 792 483 828 554 c 0,40,41
 847 591 847 591 847 631 c 0,42,43
 847 667 847 667 831 705 c 0,44,45
 796 782 796 782 720 808 c 0,46,47
 691 818 691 818 660 818 c 0,48,49
 609 818 609 818 551 793 c 0,50,51
 455 752 455 752 419 680 c 0,52,53
 400 642 400 642 401 603 c 0,54,55
 400 567 400 567 416 530 c 0,32,33
EndSplineSet
EndChar

StartChar: p
Encoding: 112 112 73
Width: 1308
GlyphClass: 2
Flags: W
LayerCount: 2
Fore
SplineSet
66 1188 m 1,0,-1
 489 1225 l 1,1,-1
 489 1085 l 1,2,3
 555 1157 555 1157 625.5 1191 c 128,-1,4
 696 1225 696 1225 795 1225 c 0,5,6
 918 1225 918 1225 1019 1170.5 c 128,-1,7
 1120 1116 1120 1116 1191 1028 c 128,-1,8
 1262 940 1262 940 1300.5 828.5 c 128,-1,9
 1339 717 1339 717 1339 602 c 0,10,11
 1339 479 1339 479 1298 365.5 c 128,-1,12
 1257 252 1257 252 1182.5 164 c 128,-1,13
 1108 76 1108 76 1003.5 22.5 c 128,-1,14
 899 -31 899 -31 774 -31 c 0,15,16
 711 -31 711 -31 638 -12.5 c 128,-1,17
 565 6 565 6 508 61 c 1,18,-1
 520 -346 l 1,19,-1
 88 -383 l 1,20,-1
 66 1188 l 1,0,-1
482 650 m 0,21,22
 466 612 466 612 466 577 c 0,23,24
 466 539 466 539 483 504 c 0,25,26
 499 469 499 469 528 445.5 c 128,-1,27
 557 422 557 422 595 412 c 0,28,29
 623 404 623 404 653 404 c 0,30,31
 665 404 665 404 677 405 c 0,32,33
 721 409 721 409 768 432 c 0,34,35
 860 475 860 475 892 553 c 0,36,37
 908 591 908 591 908 627 c 0,38,39
 908 664 908 664 891 698 c 0,40,41
 858 768 858 768 779 792 c 0,42,43
 751 800 751 800 722 800 c 0,44,45
 667 800 667 800 608 772 c 0,46,47
 514 727 514 727 482 650 c 0,21,22
EndSplineSet
EndChar

StartChar: q
Encoding: 113 113 74
Width: 1304
GlyphClass: 2
Flags: W
LayerCount: 2
Fore
SplineSet
-37 610 m 0,0,1
 -37 725 -37 725 2 836.5 c 128,-1,2
 41 948 41 948 111.5 1036 c 128,-1,3
 182 1124 182 1124 283.5 1178.5 c 128,-1,4
 385 1233 385 1233 508 1233 c 0,5,6
 606 1233 606 1233 677 1199 c 128,-1,7
 748 1165 748 1165 813 1094 c 1,8,-1
 813 1233 l 1,9,-1
 1239 1196 l 1,10,-1
 1217 -375 l 1,11,-1
 782 -338 l 1,12,-1
 795 70 l 1,13,14
 738 17 738 17 665 -1.5 c 128,-1,15
 592 -20 592 -20 528 -20 c 0,16,17
 401 -20 401 -20 298 33 c 128,-1,18
 195 86 195 86 120 173 c 128,-1,19
 45 260 45 260 4 373.5 c 128,-1,20
 -37 487 -37 487 -37 610 c 0,0,1
411 658 m 0,21,22
 395 621 395 621 395 585 c 0,23,24
 395 548 395 548 412 512 c 0,25,26
 445 444 445 444 524 420 c 0,27,28
 551 412 551 412 581 412 c 0,29,30
 635 412 635 412 694 440 c 0,31,32
 788 485 788 485 821 562 c 0,33,34
 838 600 838 600 838 636.5 c 128,-1,35
 838 673 838 673 821 707 c 0,36,37
 805 742 805 742 775 765 c 128,-1,38
 745 788 745 788 708 798 c 0,39,40
 680 806 680 806 649 806 c 0,41,42
 637 806 637 806 625 805 c 0,43,44
 580 801 580 801 535 778 c 0,45,46
 443 735 443 735 411 658 c 0,21,22
EndSplineSet
EndChar

StartChar: r
Encoding: 114 114 75
Width: 856
GlyphClass: 2
Flags: W
LayerCount: 2
Fore
SplineSet
55 1188 m 1,0,-1
 471 1225 l 1,1,-1
 471 997 l 1,2,-1
 475 997 l 1,3,4
 528 1224 528 1224 782 1225 c 0,5,6
 837 1225 837 1225 887 1219 c 1,7,-1
 780 782 l 1,8,9
 766 784 766 784 750 784 c 0,10,11
 736 784 736 784 709 784 c 0,12,13
 623 784 623 784 560.5 728 c 128,-1,14
 498 672 498 672 498 551 c 2,15,-1
 498 25 l 1,16,-1
 68 -12 l 1,17,-1
 55 1188 l 1,0,-1
EndSplineSet
EndChar

StartChar: s
Encoding: 115 115 76
Width: 913
GlyphClass: 2
Flags: W
LayerCount: 2
Fore
SplineSet
18 864 m 0,0,1
 18 932 18 932 45 997.5 c 128,-1,2
 72 1063 72 1063 131 1116 c 128,-1,3
 190 1169 190 1169 284.5 1202 c 128,-1,4
 379 1235 379 1235 512 1235 c 0,5,6
 563 1235 563 1235 614.5 1231 c 128,-1,7
 666 1227 666 1227 712 1219.5 c 128,-1,8
 758 1212 758 1212 797 1205 c 128,-1,9
 836 1198 836 1198 862 1192 c 1,10,-1
 862 831 l 1,11,12
 811 843 811 843 762 851.5 c 128,-1,13
 713 860 713 860 655 860 c 0,14,15
 643 860 643 860 616.5 859 c 128,-1,16
 590 858 590 858 563.5 853 c 128,-1,17
 537 848 537 848 516.5 835.5 c 128,-1,18
 496 823 496 823 496 803 c 0,19,20
 496 770 496 770 528.5 753.5 c 128,-1,21
 561 737 561 737 609 723 c 128,-1,22
 657 709 657 709 714.5 688.5 c 128,-1,23
 772 668 772 668 820 630 c 128,-1,24
 868 592 868 592 901 528.5 c 128,-1,25
 934 465 934 465 934 362 c 0,26,27
 934 251 934 251 886 177.5 c 128,-1,28
 838 104 838 104 759 60 c 128,-1,29
 680 16 680 16 577.5 -2 c 128,-1,30
 475 -20 475 -20 365 -20 c 0,31,32
 279 -20 279 -20 196 -10 c 128,-1,33
 113 0 113 0 29 23 c 1,34,-1
 29 406 l 1,35,36
 84 390 84 390 140.5 379.5 c 128,-1,37
 197 369 197 369 262 369 c 0,38,39
 291 369 291 369 322.5 370 c 128,-1,40
 354 371 354 371 380 376 c 128,-1,41
 406 381 406 381 423 393.5 c 128,-1,42
 440 406 440 406 440 430 c 0,43,44
 440 461 440 461 408.5 476.5 c 128,-1,45
 377 492 377 492 331 506 c 128,-1,46
 285 520 285 520 229.5 539.5 c 128,-1,47
 174 559 174 559 128 597 c 128,-1,48
 82 635 82 635 50 698.5 c 128,-1,49
 18 762 18 762 18 864 c 0,0,1
EndSplineSet
EndChar

StartChar: t
Encoding: 116 116 77
Width: 759
GlyphClass: 2
Flags: W
LayerCount: 2
Fore
SplineSet
18 842 m 1,0,-1
 31 1196 l 1,1,-1
 127 1196 l 1,2,-1
 127 1331 l 1,3,-1
 571 1532 l 1,4,-1
 571 1196 l 1,5,-1
 737 1221 l 1,6,-1
 715 844 l 1,7,-1
 575 844 l 1,8,-1
 575 485 l 2,9,10
 575 424 575 424 592.5 403.5 c 128,-1,11
 610 383 610 383 672 383 c 0,12,13
 699 383 699 383 715 385 c 128,-1,14
 731 387 731 387 745 391 c 1,15,-1
 674 -14 l 1,16,17
 641 -18 641 -18 611.5 -19 c 128,-1,18
 582 -20 582 -20 547 -20 c 0,19,20
 350 -20 350 -20 240.5 69 c 128,-1,21
 131 158 131 158 131 358 c 2,22,-1
 131 844 l 1,23,-1
 18 842 l 1,0,-1
EndSplineSet
EndChar

StartChar: u
Encoding: 117 117 78
Width: 1210
GlyphClass: 2
Flags: W
LayerCount: 2
Fore
SplineSet
61 330 m 2,0,-1
 61 1190 l 1,1,-1
 518 1227 l 1,2,-1
 506 469 l 2,3,4
 506 465 506 465 506 461 c 0,5,6
 506 418 506 418 528 398 c 0,7,8
 552 376 552 376 600 377 c 0,9,10
 640 378 640 378 666 398 c 0,11,12
 690 417 690 417 690 460 c 0,13,14
 690 463 690 463 690 467 c 2,15,-1
 678 1190 l 1,16,-1
 1149 1227 l 1,17,-1
 1118 8 l 1,18,-1
 741 -8 l 1,19,-1
 741 180 l 1,20,-1
 737 180 l 1,21,22
 696 67 696 67 609 20 c 128,-1,23
 522 -27 522 -27 406 -27 c 0,24,25
 252 -27 252 -27 156.5 64.5 c 128,-1,26
 61 156 61 156 61 330 c 2,0,-1
EndSplineSet
EndChar

StartChar: v
Encoding: 118 118 79
Width: 1050
GlyphClass: 2
Flags: W
LayerCount: 2
Fore
SplineSet
-45 1200 m 1,0,-1
 395 1235 l 1,1,-1
 512 426 l 1,2,-1
 516 426 l 1,3,-1
 651 1235 l 1,4,-1
 1096 1200 l 1,5,-1
 813 18 l 1,6,-1
 223 -16 l 1,7,-1
 -45 1200 l 1,0,-1
EndSplineSet
EndChar

StartChar: w
Encoding: 119 119 80
Width: 1613
GlyphClass: 2
Flags: W
LayerCount: 2
Fore
SplineSet
-53 1206 m 1,0,-1
 406 1243 l 1,1,-1
 526 670 l 1,2,-1
 530 670 l 1,3,-1
 647 1200 l 1,4,-1
 969 1225 l 1,5,-1
 1090 664 l 1,6,-1
 1094 664 l 1,7,-1
 1214 1243 l 1,8,-1
 1661 1206 l 1,9,-1
 1346 25 l 1,10,-1
 922 -8 l 1,11,-1
 807 563 l 1,12,-1
 803 563 l 1,13,-1
 686 25 l 1,14,-1
 266 -10 l 1,15,-1
 -53 1206 l 1,0,-1
EndSplineSet
EndChar

StartChar: x
Encoding: 120 120 81
Width: 1140
GlyphClass: 2
Flags: W
LayerCount: 2
Fore
SplineSet
-39 25 m 1,0,-1
 233 625 l 1,1,-1
 -20 1188 l 1,2,-1
 455 1225 l 1,3,-1
 563 881 l 1,4,-1
 567 881 l 1,5,-1
 662 1225 l 1,6,-1
 1135 1188 l 1,7,-1
 891 625 l 1,8,-1
 1176 25 l 1,9,-1
 684 -10 l 1,10,-1
 567 360 l 1,11,-1
 563 360 l 1,12,-1
 444 -10 l 1,13,-1
 -39 25 l 1,0,-1
EndSplineSet
EndChar

StartChar: y
Encoding: 121 121 82
Width: 1028
GlyphClass: 2
Flags: W
LayerCount: 2
Fore
SplineSet
-31 1149 m 1,0,-1
 416 1204 l 1,1,-1
 553 754 l 1,2,-1
 557 754 l 1,3,-1
 657 1204 l 1,4,-1
 1079 1167 l 1,5,-1
 641 -377 l 1,6,-1
 178 -340 l 1,7,-1
 354 141 l 1,8,-1
 -31 1149 l 1,0,-1
EndSplineSet
EndChar

StartChar: z
Encoding: 122 122 83
Width: 995
GlyphClass: 2
Flags: W
LayerCount: 2
Fore
SplineSet
-31 6 m 1,0,-1
 317 762 l 1,1,-1
 25 762 l 1,2,-1
 111 1188 l 1,3,-1
 965 1188 l 1,4,-1
 621 432 l 1,5,-1
 985 432 l 1,6,-1
 897 6 l 1,7,-1
 -31 6 l 1,0,-1
EndSplineSet
EndChar

StartChar: uni00AD
Encoding: 173 173 85
Width: 933
GlyphClass: 2
Flags: W
LayerCount: 2
Fore
SplineSet
135 590 m 1,0,-1
 154 825 l 1,1,-1
 803 854 l 1,2,-1
 782 580 l 1,3,-1
 135 590 l 1,0,-1
EndSplineSet
EndChar

StartChar: degree
Encoding: 176 176 86
Width: 540
GlyphClass: 2
Flags: W
LayerCount: 2
Fore
SplineSet
-28 1290 m 128,-1,1
 -27 1376 -27 1376 4 1450 c 128,-1,2
 35 1524 35 1524 90 1579 c 128,-1,3
 145 1634 145 1634 217 1661 c 0,4,5
 260 1677 260 1677 300 1675 c 128,-1,6
 340 1673 340 1673 374 1657.5 c 128,-1,7
 408 1642 408 1642 432.5 1618.5 c 128,-1,8
 457 1595 457 1595 469 1571 c 0,9,10
 494 1524 494 1524 507 1466.5 c 128,-1,11
 520 1409 520 1409 519 1344.5 c 128,-1,12
 518 1280 518 1280 497.5 1213 c 128,-1,13
 477 1146 477 1146 432 1085 c 0,14,15
 399 1040 399 1040 343 1011.5 c 128,-1,16
 287 983 287 983 225.5 981 c 128,-1,17
 164 979 164 979 105.5 1009.5 c 128,-1,18
 47 1040 47 1040 12 1118 c 0,19,0
 -29 1204 -29 1204 -28 1290 c 128,-1,1
160 1274 m 0,20,21
 164 1217 164 1217 183.5 1193 c 128,-1,22
 203 1169 203 1169 225 1169 c 0,23,24
 250 1169 250 1169 273.5 1189.5 c 128,-1,25
 297 1210 297 1210 309 1241 c 0,26,27
 334 1304 334 1304 330.5 1347 c 128,-1,28
 327 1390 327 1390 315 1419 c 0,29,30
 299 1456 299 1456 272.5 1460 c 128,-1,31
 246 1464 246 1464 219.5 1442.5 c 128,-1,32
 193 1421 193 1421 174.5 1378 c 128,-1,33
 156 1335 156 1335 160 1274 c 0,20,21
EndSplineSet
EndChar

StartChar: Agrave
Encoding: 192 192 87
Width: 1669
GlyphClass: 2
Flags: W
LayerCount: 2
Fore
SplineSet
-145 123 m 1,0,-1
 766 1774 l 1,1,-1
 1800 201 l 1,2,-1
 1157 -43 l 1,3,-1
 985 244 l 1,4,-1
 555 229 l 1,5,-1
 471 -78 l 1,6,-1
 -145 123 l 1,0,-1
442 1868 m 1,7,-1
 600 1997 l 1,8,-1
 772 1583 l 1,9,-1
 686 1554 l 1,10,-1
 442 1868 l 1,7,-1
662 555 m 1,11,-1
 905 598 l 1,12,-1
 803 877 l 1,13,-1
 662 555 l 1,11,-1
EndSplineSet
EndChar

StartChar: Acircumflex
Encoding: 194 194 88
Width: 1658
GlyphClass: 2
Flags: W
LayerCount: 2
Fore
SplineSet
-147 123 m 1,0,-1
 764 1774 l 1,1,-1
 1798 201 l 1,2,-1
 1153 -43 l 1,3,-1
 981 244 l 1,4,-1
 553 229 l 1,5,-1
 467 -78 l 1,6,-1
 -147 123 l 1,0,-1
377 1806 m 1,7,-1
 711 2007 l 1,8,-1
 1130 1864 l 1,9,-1
 1065 1733 l 1,10,-1
 750 1882 l 1,11,-1
 481 1704 l 1,12,-1
 377 1806 l 1,7,-1
659 555 m 1,13,-1
 903 598 l 1,14,-1
 799 877 l 1,15,-1
 659 555 l 1,13,-1
EndSplineSet
EndChar

StartChar: Ccedilla
Encoding: 199 199 89
Width: 1480
GlyphClass: 2
Flags: W
LayerCount: 2
Fore
SplineSet
-38 634.5 m 128,-1,1
 -51 786 -51 786 -14 938 c 128,-1,2
 23 1090 23 1090 92.5 1223 c 128,-1,3
 162 1356 162 1356 255 1462.5 c 128,-1,4
 348 1569 348 1569 444 1632 c 1,5,6
 444 1632 444 1632 485 1654 c 0,7,8
 526 1677 526 1677 598 1698.5 c 128,-1,9
 670 1720 670 1720 767 1729.5 c 128,-1,10
 864 1739 864 1739 977 1711 c 128,-1,11
 1090 1683 1090 1683 1213.5 1607.5 c 128,-1,12
 1337 1532 1337 1532 1460 1384 c 1,13,-1
 1104 944 l 1,14,15
 993 1061 993 1061 910 1093.5 c 128,-1,16
 827 1126 827 1126 766 1109 c 128,-1,17
 705 1092 705 1092 664 1037.5 c 128,-1,18
 623 983 623 983 598 926.5 c 128,-1,19
 573 870 573 870 563 825 c 2,20,-1
 553 780 l 2,21,22
 553 776 553 776 563 727 c 128,-1,23
 573 678 573 678 607 617.5 c 128,-1,24
 641 557 641 557 703.5 528.5 c 128,-1,25
 766 500 766 500 873.5 536.5 c 128,-1,26
 981 573 981 573 1139 719 c 1,27,-1
 1536 293 l 1,28,29
 1507 240 1507 240 1440.5 182.5 c 128,-1,30
 1374 125 1374 125 1282 76 c 128,-1,31
 1190 27 1190 27 1077.5 -10 c 128,-1,32
 965 -47 965 -47 846 -59 c 1,33,-1
 735 -330 l 1,34,-1
 426 -201 l 1,35,-1
 547 -45 l 1,36,37
 475 -29 475 -29 407.5 1 c 128,-1,38
 340 31 340 31 279 78 c 0,39,40
 125 197 125 197 50 340 c 128,-1,0
 -25 483 -25 483 -38 634.5 c 128,-1,1
EndSplineSet
EndChar

StartChar: Egrave
Encoding: 200 200 90
Width: 1234
GlyphClass: 2
Flags: W
LayerCount: 2
Fore
SplineSet
68 1573 m 1,0,-1
 1198 1655 l 1,1,-1
 1135 1137 l 1,2,-1
 621 1116 l 1,3,-1
 618 1016 l 1,4,-1
 991 1044 l 1,5,-1
 948 686 l 1,6,-1
 604 657 l 1,7,-1
 602 545 l 1,8,-1
 1188 600 l 1,9,-1
 1178 35 l 1,10,-1
 82 -25 l 1,11,-1
 68 1573 l 1,0,-1
424 1868 m 1,12,-1
 582 1997 l 1,13,-1
 754 1583 l 1,14,-1
 668 1554 l 1,15,-1
 424 1868 l 1,12,-1
EndSplineSet
EndChar

StartChar: Eacute
Encoding: 201 201 91
Width: 1224
GlyphClass: 2
Flags: W
LayerCount: 2
Fore
SplineSet
66 1585 m 1,0,-1
 1196 1667 l 1,1,-1
 1133 1149 l 1,2,-1
 616 1128 l 1,3,-1
 616 1028 l 1,4,-1
 987 1057 l 1,5,-1
 946 698 l 1,6,-1
 602 670 l 1,7,-1
 600 557 l 1,8,-1
 1186 612 l 1,9,-1
 1174 47 l 1,10,-1
 80 -12 l 1,11,-1
 66 1585 l 1,0,-1
422 1595 m 1,12,-1
 594 2009 l 1,13,-1
 752 1880 l 1,14,-1
 508 1567 l 1,15,-1
 422 1595 l 1,12,-1
EndSplineSet
EndChar

StartChar: Ecircumflex
Encoding: 202 202 92
Width: 1228
GlyphClass: 2
Flags: W
LayerCount: 2
Fore
SplineSet
63 1573 m 1,0,-1
 1194 1655 l 1,1,-1
 1130 1137 l 1,2,-1
 616 1116 l 1,3,-1
 614 1016 l 1,4,-1
 987 1044 l 1,5,-1
 944 686 l 1,6,-1
 600 657 l 1,7,-1
 598 545 l 1,8,-1
 1184 600 l 1,9,-1
 1174 35 l 1,10,-1
 78 -25 l 1,11,-1
 63 1573 l 1,0,-1
240 1806 m 1,12,-1
 573 2007 l 1,13,-1
 993 1864 l 1,14,-1
 928 1733 l 1,15,-1
 612 1882 l 1,16,-1
 344 1704 l 1,17,-1
 240 1806 l 1,12,-1
EndSplineSet
EndChar

StartChar: Edieresis
Encoding: 203 203 93
Width: 1224
GlyphClass: 2
Flags: W
LayerCount: 2
Fore
SplineSet
57 1573 m 1,0,-1
 1188 1655 l 1,1,-1
 1124 1137 l 1,2,-1
 608 1116 l 1,3,-1
 608 1016 l 1,4,-1
 979 1044 l 1,5,-1
 938 686 l 1,6,-1
 594 657 l 1,7,-1
 592 545 l 1,8,-1
 1178 600 l 1,9,-1
 1165 35 l 1,10,-1
 72 -25 l 1,11,-1
 57 1573 l 1,0,-1
162 1853 m 1,12,-1
 500 1878 l 1,13,-1
 535 1714 l 1,14,15
 502 1710 502 1710 446.5 1706 c 128,-1,16
 391 1702 391 1702 339 1700 c 128,-1,17
 287 1698 287 1698 249 1697 c 128,-1,18
 211 1696 211 1696 211 1700 c 0,19,20
 211 1702 211 1702 209 1712 c 128,-1,21
 207 1722 207 1722 197 1758 c 128,-1,22
 187 1794 187 1794 162 1853 c 1,12,-1
625 1743 m 1,23,-1
 631 1905 l 1,24,-1
 950 1974 l 1,25,-1
 969 1790 l 1,26,27
 809 1772 809 1772 717 1758 c 2,28,-1
 625 1743 l 1,23,-1
EndSplineSet
EndChar

StartChar: Icircumflex
Encoding: 206 206 94
Width: 796
GlyphClass: 2
Flags: W
LayerCount: 2
Fore
SplineSet
23 1720 m 1,0,-1
 356 1921 l 1,1,-1
 776 1778 l 1,2,-1
 711 1645 l 1,3,-1
 395 1796 l 1,4,-1
 127 1616 l 1,5,-1
 23 1720 l 1,0,-1
94 -27 m 1,6,-1
 115 1516 l 1,7,-1
 715 1587 l 1,8,-1
 631 33 l 1,9,-1
 94 -27 l 1,6,-1
EndSplineSet
EndChar

StartChar: Idieresis
Encoding: 207 207 95
Width: 835
GlyphClass: 2
Flags: W
LayerCount: 2
Fore
SplineSet
10 1751 m 1,0,-1
 348 1776 l 1,1,-1
 383 1612 l 1,2,3
 350 1608 350 1608 295 1603.5 c 128,-1,4
 240 1599 240 1599 187.5 1597 c 128,-1,5
 135 1595 135 1595 97 1594 c 128,-1,6
 59 1593 59 1593 59 1597 c 0,7,8
 59 1599 59 1599 57 1609.5 c 128,-1,9
 55 1620 55 1620 45 1656 c 128,-1,10
 35 1692 35 1692 10 1751 c 1,0,-1
115 -35 m 1,11,-1
 651 25 l 1,12,-1
 735 1579 l 1,13,-1
 135 1507 l 1,14,-1
 115 -35 l 1,11,-1
473 1640 m 1,15,-1
 479 1802 l 1,16,-1
 799 1872 l 1,17,-1
 817 1688 l 1,18,19
 657 1670 657 1670 565 1655 c 2,20,-1
 473 1640 l 1,15,-1
EndSplineSet
EndChar

StartChar: Ocircumflex
Encoding: 212 212 96
Width: 1552
GlyphClass: 2
Flags: W
LayerCount: 2
Fore
SplineSet
-57.5 639.5 m 128,-1,1
 -70 791 -70 791 -37 931 c 128,-1,2
 -4 1071 -4 1071 69.5 1196 c 128,-1,3
 143 1321 143 1321 247.5 1422.5 c 128,-1,4
 352 1524 352 1524 482 1597.5 c 128,-1,5
 612 1671 612 1671 758 1708 c 0,6,7
 897 1745 897 1745 1020 1730.5 c 128,-1,8
 1143 1716 1143 1716 1241 1672 c 128,-1,9
 1339 1628 1339 1628 1408 1563.5 c 128,-1,10
 1477 1499 1477 1499 1511 1432 c 0,11,12
 1574 1309 1574 1309 1606 1155 c 128,-1,13
 1638 1001 1638 1001 1621 835.5 c 128,-1,14
 1604 670 1604 670 1528.5 501 c 128,-1,15
 1453 332 1453 332 1303 178 c 0,16,17
 1231 104 1231 104 1124.5 49 c 128,-1,18
 1018 -6 1018 -6 897 -34.5 c 128,-1,19
 776 -63 776 -63 647 -61 c 128,-1,20
 518 -59 518 -59 401.5 -17 c 128,-1,21
 285 25 285 25 185.5 111 c 128,-1,22
 86 197 86 197 25 334 c 0,23,0
 -45 488 -45 488 -57.5 639.5 c 128,-1,1
438 700 m 0,24,25
 438 602 438 602 467 540.5 c 128,-1,26
 496 479 496 479 542 449.5 c 128,-1,27
 588 420 588 420 647.5 417 c 128,-1,28
 707 414 707 414 765 434.5 c 128,-1,29
 823 455 823 455 874.5 495 c 128,-1,30
 926 535 926 535 961 588 c 0,31,32
 1012 668 1012 668 1035.5 735.5 c 128,-1,33
 1059 803 1059 803 1064 860.5 c 128,-1,34
 1069 918 1069 918 1058.5 966 c 128,-1,35
 1048 1014 1048 1014 1030 1051 c 0,36,37
 999 1114 999 1114 943 1142.5 c 128,-1,38
 887 1171 887 1171 821.5 1167 c 128,-1,39
 756 1163 756 1163 688.5 1129.5 c 128,-1,40
 621 1096 621 1096 565.5 1035.5 c 128,-1,41
 510 975 510 975 474 890 c 128,-1,42
 438 805 438 805 438 700 c 0,24,25
489 1827 m 1,43,-1
 823 2028 l 1,44,-1
 1245 1884 l 1,45,-1
 1178 1753 l 1,46,-1
 862 1903 l 1,47,-1
 596 1724 l 1,48,-1
 489 1827 l 1,43,-1
EndSplineSet
EndChar

StartChar: Ugrave
Encoding: 217 217 97
Width: 1396
GlyphClass: 2
Flags: W
LayerCount: 2
Fore
SplineSet
51 633 m 2,0,1
 51 633 51 633 52 668 c 0,2,3
 53 702 53 702 56 816 c 128,-1,4
 59 930 59 930 64.5 1146 c 128,-1,5
 70 1362 70 1362 80 1722 c 1,6,-1
 666 1622 l 1,7,-1
 612 659 l 1,8,9
 604 606 604 606 613.5 565 c 128,-1,10
 623 524 623 524 633 505.5 c 128,-1,11
 643 487 643 487 645 485 c 0,12,13
 665 462 665 462 692 458.5 c 128,-1,14
 719 455 719 455 752 508 c 0,15,16
 754 510 754 510 764 533.5 c 128,-1,17
 774 557 774 557 784.5 616.5 c 128,-1,18
 795 676 795 676 791 762 c 2,19,-1
 748 1548 l 1,20,-1
 1303 1651 l 1,21,22
 1311 1403 1311 1403 1317 1229 c 128,-1,23
 1323 1055 1323 1055 1325 949.5 c 128,-1,24
 1327 844 1327 844 1328 783.5 c 128,-1,25
 1329 723 1329 723 1329 705 c 256,26,27
 1329 687 1329 687 1329 684 c 0,28,29
 1331 561 1331 561 1310.5 446.5 c 128,-1,30
 1290 332 1290 332 1236 238.5 c 128,-1,31
 1182 145 1182 145 1088.5 78.5 c 128,-1,32
 995 12 995 12 856 -14 c 0,33,34
 645 -57 645 -57 491.5 -23.5 c 128,-1,35
 338 10 338 10 238.5 100 c 128,-1,36
 139 190 139 190 93 328.5 c 128,-1,37
 47 467 47 467 51 633 c 2,0,1
647 1882 m 1,38,-1
 805 2011 l 1,39,-1
 977 1597 l 1,40,-1
 891 1569 l 1,41,-1
 647 1882 l 1,38,-1
EndSplineSet
EndChar

StartChar: Ucircumflex
Encoding: 219 219 98
Width: 1380
GlyphClass: 2
Flags: W
LayerCount: 2
Fore
SplineSet
49 639 m 1,0,1
 49 639 49 639 49 659 c 256,2,3
 49 679 49 679 51 745 c 128,-1,4
 53 811 53 811 55 930 c 128,-1,5
 57 1049 57 1049 63.5 1246.5 c 128,-1,6
 70 1444 70 1444 78 1729 c 1,7,-1
 664 1628 l 1,8,-1
 610 666 l 1,9,10
 602 613 602 613 611.5 571.5 c 128,-1,11
 621 530 621 530 630 512 c 128,-1,12
 639 494 639 494 641 492 c 0,13,14
 664 469 664 469 690.5 465 c 128,-1,15
 717 461 717 461 750 514 c 0,16,17
 752 516 752 516 762 539.5 c 128,-1,18
 772 563 772 563 782.5 621.5 c 128,-1,19
 793 680 793 680 788 766 c 2,20,-1
 745 1554 l 1,21,-1
 1298 1655 l 1,22,23
 1308 1407 1308 1407 1313.5 1233 c 128,-1,24
 1319 1059 1319 1059 1322 953.5 c 128,-1,25
 1325 848 1325 848 1326 788.5 c 128,-1,26
 1327 729 1327 729 1327 711 c 256,27,28
 1327 693 1327 693 1327 690 c 0,29,30
 1329 567 1329 567 1308.5 452.5 c 128,-1,31
 1288 338 1288 338 1233 245 c 128,-1,32
 1178 152 1178 152 1085.5 85 c 128,-1,33
 993 18 993 18 854 -8 c 0,34,35
 641 -51 641 -51 487.5 -17.5 c 128,-1,36
 334 16 334 16 234.5 106.5 c 128,-1,37
 135 197 135 197 90 335 c 128,-1,38
 45 473 45 473 49 639 c 1,0,1
356 1827 m 1,39,-1
 690 2028 l 1,40,-1
 1110 1884 l 1,41,-1
 1042 1753 l 1,42,-1
 727 1903 l 1,43,-1
 461 1724 l 1,44,-1
 356 1827 l 1,39,-1
EndSplineSet
EndChar

StartChar: Udieresis
Encoding: 220 220 99
Width: 1390
GlyphClass: 2
Flags: W
LayerCount: 2
Fore
SplineSet
53 639 m 2,0,1
 53 639 53 639 54 674 c 256,2,3
 55 709 55 709 58 822.5 c 128,-1,4
 61 936 61 936 66.5 1152 c 128,-1,5
 72 1368 72 1368 82 1729 c 1,6,-1
 670 1628 l 1,7,-1
 614 666 l 1,8,9
 606 613 606 613 615.5 571.5 c 128,-1,10
 625 530 625 530 635 512 c 128,-1,11
 645 494 645 494 647 492 c 0,12,13
 667 469 667 469 695 465 c 128,-1,14
 723 461 723 461 756 514 c 0,15,16
 758 516 758 516 768 539.5 c 128,-1,17
 778 563 778 563 787.5 622.5 c 128,-1,18
 797 682 797 682 793 768 c 2,19,-1
 750 1554 l 1,20,-1
 1305 1657 l 1,21,22
 1315 1409 1315 1409 1320 1235 c 128,-1,23
 1325 1061 1325 1061 1328 955.5 c 128,-1,24
 1331 850 1331 850 1331 788 c 0,25,26
 1331 729 1331 729 1331 711 c 256,27,28
 1331 693 1331 693 1331 690 c 0,29,30
 1333 567 1333 567 1312.5 452.5 c 128,-1,31
 1292 338 1292 338 1238 245 c 128,-1,32
 1184 152 1184 152 1091.5 85 c 128,-1,33
 999 18 999 18 860 -8 c 0,34,35
 647 -51 647 -51 493.5 -17.5 c 128,-1,36
 340 16 340 16 240.5 106.5 c 128,-1,37
 141 197 141 197 95 335 c 128,-1,38
 49 473 49 473 53 639 c 2,0,1
332 1901 m 1,39,-1
 670 1925 l 1,40,-1
 705 1761 l 1,41,42
 672 1757 672 1757 616.5 1753 c 128,-1,43
 561 1749 561 1749 509 1746 c 128,-1,44
 457 1743 457 1743 418 1743 c 0,45,46
 381 1743 381 1743 381 1747 c 0,47,48
 381 1749 381 1749 379 1759 c 128,-1,49
 377 1769 377 1769 367 1805.5 c 128,-1,50
 357 1842 357 1842 332 1901 c 1,39,-1
795 1790 m 1,51,-1
 801 1952 l 1,52,-1
 1120 2021 l 1,53,-1
 1139 1837 l 1,54,55
 979 1819 979 1819 887 1804 c 2,56,-1
 795 1790 l 1,51,-1
EndSplineSet
EndChar

StartChar: agrave
Encoding: 224 224 100
Width: 1202
GlyphClass: 2
Flags: W
LayerCount: 2
Fore
SplineSet
-18 395 m 0,0,1
 -18 299 -18 299 14.5 221 c 128,-1,2
 47 143 47 143 102.5 88 c 128,-1,3
 158 33 158 33 231.5 3 c 128,-1,4
 305 -27 305 -27 387 -27 c 0,5,6
 487 -27 487 -27 572 4 c 128,-1,7
 657 35 657 35 713 113 c 1,8,-1
 717 113 l 1,9,-1
 717 -27 l 1,10,-1
 1126 10 l 1,11,-1
 1149 782 l 2,12,13
 1153 905 1153 905 1110 989 c 128,-1,14
 1067 1073 1067 1073 993.5 1126.5 c 128,-1,15
 920 1180 920 1180 823.5 1203.5 c 128,-1,16
 727 1227 727 1227 627 1227 c 0,17,18
 518 1227 518 1227 410.5 1215.5 c 128,-1,19
 303 1204 303 1204 207 1176 c 1,20,-1
 127 850 l 1,21,22
 205 875 205 875 282.5 893 c 128,-1,23
 360 911 360 911 451 911 c 0,24,25
 500 911 500 911 541 905 c 128,-1,26
 582 899 582 899 611.5 881.5 c 128,-1,27
 641 864 641 864 657.5 833.5 c 128,-1,28
 674 803 674 803 674 756 c 2,29,-1
 674 694 l 1,30,31
 629 729 629 729 563.5 756.5 c 128,-1,32
 498 784 498 784 406 784 c 0,33,34
 316 784 316 784 239 754.5 c 128,-1,35
 162 725 162 725 104.5 673 c 128,-1,36
 47 621 47 621 14.5 550 c 128,-1,37
 -18 479 -18 479 -18 395 c 0,0,1
293 1540 m 1,38,-1
 590 1704 l 1,39,-1
 819 1366 l 1,40,-1
 657 1282 l 1,41,-1
 293 1540 l 1,38,-1
303 358 m 0,42,43
 295 405 295 405 340 443.5 c 128,-1,44
 385 482 385 482 457 492 c 0,45,46
 543 506 543 506 589 478.5 c 128,-1,47
 635 451 635 451 641 412 c 0,48,49
 647 367 647 367 608 328 c 128,-1,50
 569 289 569 289 489 276 c 0,51,52
 409 264 409 264 359 287.5 c 128,-1,53
 309 311 309 311 303 358 c 0,42,43
EndSplineSet
EndChar

StartChar: acircumflex
Encoding: 226 226 101
Width: 1212
GlyphClass: 2
Flags: W
LayerCount: 2
Fore
SplineSet
-25 408 m 0,0,1
 -25 312 -25 312 8 234 c 128,-1,2
 41 156 41 156 96.5 100.5 c 128,-1,3
 152 45 152 45 224.5 15.5 c 128,-1,4
 297 -14 297 -14 379 -14 c 0,5,6
 479 -14 479 -14 564 16.5 c 128,-1,7
 649 47 649 47 705 125 c 1,8,-1
 709 125 l 1,9,-1
 709 -14 l 1,10,-1
 1120 23 l 1,11,-1
 1143 795 l 2,12,13
 1145 918 1145 918 1102 1001.5 c 128,-1,14
 1059 1085 1059 1085 986 1138.5 c 128,-1,15
 913 1192 913 1192 817 1215.5 c 128,-1,16
 721 1239 721 1239 621 1239 c 0,17,18
 510 1239 510 1239 403.5 1228 c 128,-1,19
 297 1217 297 1217 199 1188 c 1,20,-1
 119 862 l 1,21,22
 197 887 197 887 275.5 905.5 c 128,-1,23
 354 924 354 924 444 924 c 0,24,25
 493 924 493 924 533 917.5 c 128,-1,26
 573 911 573 911 603 894 c 128,-1,27
 633 877 633 877 649.5 846 c 128,-1,28
 666 815 666 815 666 768 c 2,29,-1
 666 707 l 1,30,31
 621 742 621 742 556.5 769.5 c 128,-1,32
 492 797 492 797 397 797 c 0,33,34
 307 797 307 797 230.5 767 c 128,-1,35
 154 737 154 737 97.5 685 c 128,-1,36
 41 633 41 633 8 562.5 c 128,-1,37
 -25 492 -25 492 -25 408 c 0,0,1
229 1423 m 1,38,-1
 459 1647 l 1,39,-1
 772 1647 l 1,40,-1
 989 1409 l 1,41,-1
 741 1307 l 1,42,-1
 616 1479 l 1,43,-1
 487 1307 l 1,44,-1
 229 1423 l 1,38,-1
295 371 m 0,45,46
 289 418 289 418 334 456 c 128,-1,47
 379 494 379 494 449 504 c 0,48,49
 535 518 535 518 581 490.5 c 128,-1,50
 627 463 627 463 633 424 c 0,51,52
 641 379 641 379 602 340 c 128,-1,53
 563 301 563 301 483 289 c 256,54,55
 403 277 403 277 353 300.5 c 128,-1,56
 303 324 303 324 295 371 c 0,45,46
EndSplineSet
EndChar

StartChar: adieresis
Encoding: 228 228 102
Width: 1931
GlyphClass: 2
Flags: W
LayerCount: 2
Fore
SplineSet
-27 410 m 0,0,1
 -27 314 -27 314 6 236 c 128,-1,2
 39 158 39 158 94.5 102.5 c 128,-1,3
 150 47 150 47 223.5 17.5 c 128,-1,4
 297 -12 297 -12 379 -12 c 0,5,6
 479 -12 479 -12 564 18.5 c 128,-1,7
 649 49 649 49 705 127 c 1,8,-1
 709 127 l 1,9,-1
 709 -12 l 1,10,-1
 1118 25 l 1,11,-1
 1141 797 l 2,12,13
 1145 920 1145 920 1102 1003.5 c 128,-1,14
 1059 1087 1059 1087 985 1140.5 c 128,-1,15
 911 1194 911 1194 815 1217.5 c 128,-1,16
 719 1241 719 1241 618 1241 c 0,17,18
 509 1241 509 1241 402 1230 c 128,-1,19
 295 1219 295 1219 199 1190 c 1,20,-1
 119 864 l 1,21,22
 197 889 197 889 274.5 907.5 c 128,-1,23
 352 926 352 926 442 926 c 0,24,25
 491 926 491 926 532 919.5 c 128,-1,26
 573 913 573 913 603 896 c 128,-1,27
 633 879 633 879 649.5 848 c 128,-1,28
 666 817 666 817 666 770 c 2,29,-1
 666 709 l 1,30,31
 621 744 621 744 555 771.5 c 128,-1,32
 489 799 489 799 397 799 c 0,33,34
 307 799 307 799 230.5 769 c 128,-1,35
 154 739 154 739 96.5 687 c 128,-1,36
 39 635 39 635 6 564.5 c 128,-1,37
 -27 494 -27 494 -27 410 c 0,0,1
258 1610 m 1,38,-1
 532 1630 l 1,39,-1
 555 1411 l 1,40,-1
 283 1413 l 1,41,-1
 258 1610 l 1,38,-1
295 373 m 256,42,43
 287 420 287 420 332 458 c 128,-1,44
 377 496 377 496 449 506 c 0,45,46
 535 520 535 520 581 492.5 c 128,-1,47
 627 465 627 465 633 426 c 0,48,49
 639 381 639 381 601 342 c 128,-1,50
 563 303 563 303 481 291 c 0,51,52
 401 279 401 279 352 302.5 c 128,-1,53
 303 326 303 326 295 373 c 256,42,43
690 1610 m 1,54,-1
 965 1630 l 1,55,-1
 987 1411 l 1,56,-1
 715 1413 l 1,57,-1
 690 1610 l 1,54,-1
EndSplineSet
EndChar

StartChar: ccedilla
Encoding: 231 231 103
Width: 1056
GlyphClass: 2
Flags: W
LayerCount: 2
Fore
SplineSet
-29 575 m 0,0,1
 -29 725 -29 725 22.5 845 c 128,-1,2
 74 965 74 965 165 1047.5 c 128,-1,3
 256 1130 256 1130 381 1174.5 c 128,-1,4
 506 1219 506 1219 651 1219 c 256,5,6
 796 1219 796 1219 905 1171.5 c 128,-1,7
 1014 1124 1014 1124 1087 1075 c 1,8,-1
 817 723 l 1,9,10
 788 746 788 746 750.5 760 c 128,-1,11
 713 774 713 774 674 779 c 128,-1,12
 635 784 635 784 599 782 c 128,-1,13
 563 780 563 780 541 768 c 0,14,15
 502 748 502 748 474 720 c 128,-1,16
 446 692 446 692 431 659.5 c 128,-1,17
 416 627 416 627 417 590 c 128,-1,18
 418 553 418 553 438 514 c 0,19,20
 479 432 479 432 555 412.5 c 128,-1,21
 631 393 631 393 715 434 c 2,22,-1
 819 489 l 1,23,-1
 1096 121 l 1,24,25
 1004 39 1004 39 892 5 c 128,-1,26
 780 -29 780 -29 670 -35 c 1,27,-1
 610 -168 l 1,28,-1
 424 -119 l 1,29,-1
 487 -23 l 1,30,31
 374 -3 374 -3 279 51.5 c 128,-1,32
 184 106 184 106 115.5 185 c 128,-1,33
 47 264 47 264 9 363.5 c 128,-1,34
 -29 463 -29 463 -29 575 c 0,0,1
EndSplineSet
EndChar

StartChar: egrave
Encoding: 232 232 104
Width: 1185
GlyphClass: 2
Flags: W
LayerCount: 2
Fore
SplineSet
-31 573 m 0,0,1
 -31 450 -31 450 16 340.5 c 128,-1,2
 63 231 63 231 147 149.5 c 128,-1,3
 231 68 231 68 348 19.5 c 128,-1,4
 465 -29 465 -29 604 -29 c 0,5,6
 774 -29 774 -29 905 12 c 128,-1,7
 1036 53 1036 53 1161 143 c 1,8,-1
 958 475 l 1,9,10
 903 428 903 428 838.5 394 c 128,-1,11
 774 360 774 360 682 360 c 0,12,13
 651 360 651 360 614.5 364.5 c 128,-1,14
 578 369 578 369 553 381 c 1,15,-1
 1167 844 l 1,16,17
 1093 1018 1093 1018 943 1122.5 c 128,-1,18
 793 1227 793 1227 588 1227 c 0,19,20
 461 1227 461 1227 348.5 1183 c 128,-1,21
 236 1139 236 1139 152 1054 c 128,-1,22
 68 969 68 969 18.5 848 c 128,-1,23
 -31 727 -31 727 -31 573 c 0,0,1
369 1542 m 1,24,-1
 666 1706 l 1,25,-1
 895 1368 l 1,26,-1
 735 1284 l 1,27,-1
 369 1542 l 1,24,-1
397 668 m 256,28,29
 397 707 397 707 410.5 743.5 c 128,-1,30
 424 780 424 780 448.5 809 c 128,-1,31
 473 838 473 838 508 856 c 128,-1,32
 543 874 543 874 584 874 c 0,33,34
 627 874 627 874 660.5 862 c 128,-1,35
 694 850 694 850 723 813 c 1,36,-1
 416 584 l 1,37,38
 410 600 410 600 403.5 614.5 c 128,-1,39
 397 629 397 629 397 668 c 256,28,29
EndSplineSet
EndChar

StartChar: eacute
Encoding: 233 233 105
Width: 1198
GlyphClass: 2
Flags: W
LayerCount: 2
Fore
SplineSet
-27 571 m 0,0,1
 -27 725 -27 725 22.5 846 c 128,-1,2
 72 967 72 967 156 1052 c 128,-1,3
 240 1137 240 1137 352.5 1181 c 128,-1,4
 465 1225 465 1225 592 1225 c 0,5,6
 797 1225 797 1225 947.5 1120.5 c 128,-1,7
 1098 1016 1098 1016 1171 842 c 1,8,-1
 557 379 l 1,9,10
 582 367 582 367 618.5 362.5 c 128,-1,11
 655 358 655 358 686 358 c 0,12,13
 778 358 778 358 842.5 392 c 128,-1,14
 907 426 907 426 963 473 c 1,15,-1
 1163 141 l 1,16,17
 1040 51 1040 51 908 10 c 128,-1,18
 776 -31 776 -31 608 -31 c 0,19,20
 469 -31 469 -31 352.5 17.5 c 128,-1,21
 236 66 236 66 152 147.5 c 128,-1,22
 68 229 68 229 20.5 339 c 128,-1,23
 -27 449 -27 449 -27 571 c 0,0,1
373 1366 m 1,24,-1
 602 1704 l 1,25,-1
 899 1540 l 1,26,-1
 532 1282 l 1,27,-1
 373 1366 l 1,24,-1
401 666 m 256,28,29
 401 627 401 627 407.5 612.5 c 128,-1,30
 414 598 414 598 420 582 c 1,31,-1
 727 813 l 1,32,33
 698 848 698 848 664.5 860 c 128,-1,34
 631 872 631 872 588 872 c 0,35,36
 547 872 547 872 512 854 c 128,-1,37
 477 836 477 836 452.5 807 c 128,-1,38
 428 778 428 778 414.5 741.5 c 128,-1,39
 401 705 401 705 401 666 c 256,28,29
EndSplineSet
EndChar

StartChar: ecircumflex
Encoding: 234 234 106
Width: 1185
GlyphClass: 2
Flags: W
LayerCount: 2
Fore
SplineSet
-25 575 m 0,0,1
 -25 729 -25 729 24.5 850 c 128,-1,2
 74 971 74 971 158 1056 c 128,-1,3
 242 1141 242 1141 353.5 1185 c 128,-1,4
 465 1229 465 1229 592 1229 c 0,5,6
 797 1229 797 1229 947.5 1124.5 c 128,-1,7
 1098 1020 1098 1020 1171 846 c 1,8,-1
 559 383 l 1,9,10
 582 371 582 371 618.5 366.5 c 128,-1,11
 655 362 655 362 686 362 c 0,12,13
 778 362 778 362 843.5 396 c 128,-1,14
 909 430 909 430 963 477 c 1,15,-1
 1165 145 l 1,16,17
 1040 55 1040 55 909 14 c 128,-1,18
 778 -27 778 -27 608 -27 c 0,19,20
 469 -27 469 -27 353.5 21.5 c 128,-1,21
 238 70 238 70 154 151.5 c 128,-1,22
 70 233 70 233 22.5 343 c 128,-1,23
 -25 453 -25 453 -25 575 c 0,0,1
223 1415 m 1,24,-1
 451 1638 l 1,25,-1
 766 1638 l 1,26,-1
 981 1401 l 1,27,-1
 735 1298 l 1,28,-1
 608 1470 l 1,29,-1
 481 1298 l 1,30,-1
 223 1415 l 1,24,-1
403 670 m 256,31,32
 403 631 403 631 408.5 616.5 c 128,-1,33
 414 602 414 602 420 586 c 1,34,-1
 727 817 l 1,35,36
 698 852 698 852 664.5 864.5 c 128,-1,37
 631 877 631 877 588 877 c 0,38,39
 547 877 547 877 513 858.5 c 128,-1,40
 479 840 479 840 454.5 811 c 128,-1,41
 430 782 430 782 416.5 745.5 c 128,-1,42
 403 709 403 709 403 670 c 256,31,32
EndSplineSet
EndChar

StartChar: edieresis
Encoding: 235 235 107
Width: 1196
GlyphClass: 2
Flags: W
LayerCount: 2
Fore
SplineSet
-25 584 m 0,0,1
 -25 738 -25 738 24.5 858.5 c 128,-1,2
 74 979 74 979 158 1064 c 128,-1,3
 242 1149 242 1149 353.5 1193 c 128,-1,4
 465 1237 465 1237 592 1237 c 0,5,6
 797 1237 797 1237 947.5 1132.5 c 128,-1,7
 1098 1028 1098 1028 1171 854 c 1,8,-1
 559 391 l 1,9,10
 582 379 582 379 618.5 375 c 128,-1,11
 655 371 655 371 686 371 c 0,12,13
 778 371 778 371 843.5 404.5 c 128,-1,14
 909 438 909 438 963 485 c 1,15,-1
 1165 154 l 1,16,17
 1040 64 1040 64 909 23 c 128,-1,18
 778 -18 778 -18 608 -18 c 0,19,20
 469 -18 469 -18 353.5 30 c 128,-1,21
 238 78 238 78 154 160 c 128,-1,22
 70 242 70 242 22.5 351.5 c 128,-1,23
 -25 461 -25 461 -25 584 c 0,0,1
233 1608 m 1,24,-1
 506 1628 l 1,25,-1
 528 1409 l 1,26,-1
 256 1411 l 1,27,-1
 233 1608 l 1,24,-1
403 678 m 256,28,29
 403 639 403 639 408.5 624.5 c 128,-1,30
 414 610 414 610 420 594 c 1,31,-1
 727 825 l 1,32,33
 698 860 698 860 664.5 872.5 c 128,-1,34
 631 885 631 885 588 885 c 0,35,36
 547 885 547 885 513 866.5 c 128,-1,37
 479 848 479 848 454.5 819.5 c 128,-1,38
 430 791 430 791 416.5 754 c 128,-1,39
 403 717 403 717 403 678 c 256,28,29
666 1608 m 1,40,-1
 938 1628 l 1,41,-1
 961 1409 l 1,42,-1
 688 1411 l 1,43,-1
 666 1608 l 1,40,-1
EndSplineSet
EndChar

StartChar: icircumflex
Encoding: 238 238 108
Width: 673
GlyphClass: 2
Flags: W
LayerCount: 2
Fore
SplineSet
-57 1407 m 1,0,-1
 170 1630 l 1,1,-1
 485 1630 l 1,2,-1
 700 1393 l 1,3,-1
 455 1290 l 1,4,-1
 328 1462 l 1,5,-1
 201 1290 l 1,6,-1
 -57 1407 l 1,0,-1
127 -16 m 1,7,-1
 539 20 l 1,8,-1
 571 1202 l 1,9,-1
 127 1165 l 1,10,-1
 127 -16 l 1,7,-1
EndSplineSet
EndChar

StartChar: idieresis
Encoding: 239 239 109
Width: 661
GlyphClass: 2
Flags: W
LayerCount: 2
Fore
SplineSet
-45 1591 m 1,0,-1
 227 1612 l 1,1,-1
 250 1393 l 1,2,-1
 -20 1395 l 1,3,-1
 -45 1591 l 1,0,-1
115 -16 m 1,4,-1
 526 20 l 1,5,-1
 559 1202 l 1,6,-1
 115 1165 l 1,7,-1
 115 -16 l 1,4,-1
387 1591 m 1,8,-1
 659 1612 l 1,9,-1
 682 1393 l 1,10,-1
 412 1395 l 1,11,-1
 387 1591 l 1,8,-1
EndSplineSet
EndChar

StartChar: ocircumflex
Encoding: 244 244 110
Width: 1247
GlyphClass: 2
Flags: W
LayerCount: 2
Fore
SplineSet
-23 506 m 256,0,1
 -3 365 -3 365 63 256 c 128,-1,2
 129 147 129 147 227.5 78.5 c 128,-1,3
 326 10 326 10 449.5 -16.5 c 128,-1,4
 573 -43 573 -43 711 -25 c 0,5,6
 848 -7 848 -7 959.5 54 c 128,-1,7
 1071 115 1071 115 1147 208 c 128,-1,8
 1223 301 1223 301 1256.5 423 c 128,-1,9
 1290 545 1290 545 1270 686 c 256,10,11
 1250 827 1250 827 1184 935.5 c 128,-1,12
 1118 1044 1118 1044 1020 1113 c 128,-1,13
 922 1182 922 1182 798 1208.5 c 128,-1,14
 674 1235 674 1235 537 1217 c 256,15,16
 400 1199 400 1199 288 1138 c 128,-1,17
 176 1077 176 1077 100.5 984 c 128,-1,18
 25 891 25 891 -9 769 c 128,-1,19
 -43 647 -43 647 -23 506 c 256,0,1
244 1415 m 1,20,-1
 473 1638 l 1,21,-1
 786 1638 l 1,22,-1
 1004 1401 l 1,23,-1
 756 1298 l 1,24,-1
 631 1470 l 1,25,-1
 502 1298 l 1,26,-1
 244 1415 l 1,20,-1
410 512 m 0,27,28
 375 590 375 590 410.5 661.5 c 128,-1,29
 446 733 446 733 543 774 c 0,30,31
 639 815 639 815 715 789.5 c 128,-1,32
 791 764 791 764 823 686 c 0,33,34
 858 606 858 606 822 535.5 c 128,-1,35
 786 465 786 465 690 424 c 256,36,37
 594 383 594 383 519.5 407.5 c 128,-1,38
 445 432 445 432 410 512 c 0,27,28
EndSplineSet
EndChar

StartChar: divide
Encoding: 247 247 111
Width: 1636
GlyphClass: 2
Flags: W
LayerCount: 2
Fore
SplineSet
47 551 m 1,0,-1
 66 766 l 1,1,-1
 1585 831 l 1,2,-1
 1565 580 l 1,3,-1
 47 551 l 1,0,-1
514 177 m 128,-1,5
 524 219 524 219 553 258 c 128,-1,6
 582 297 582 297 627 329.5 c 128,-1,7
 672 362 672 362 729 381 c 0,8,9
 786 401 786 401 842.5 403.5 c 128,-1,10
 899 406 899 406 945 392.5 c 128,-1,11
 991 379 991 379 1025 351.5 c 128,-1,12
 1059 324 1059 324 1071 285 c 0,13,14
 1085 246 1085 246 1075 204 c 128,-1,15
 1065 162 1065 162 1036.5 123 c 128,-1,16
 1008 84 1008 84 962.5 51 c 128,-1,17
 917 18 917 18 860 0 c 0,18,19
 803 -20 803 -20 746.5 -22.5 c 128,-1,20
 690 -25 690 -25 644 -11.5 c 128,-1,21
 598 2 598 2 564 28.5 c 128,-1,22
 530 55 530 55 518 96 c 0,23,4
 504 135 504 135 514 177 c 128,-1,5
599 1160 m 128,-1,25
 608 1202 608 1202 638 1241 c 128,-1,26
 668 1280 668 1280 713 1313 c 128,-1,27
 758 1346 758 1346 815 1364 c 0,28,29
 872 1384 872 1384 928.5 1386.5 c 128,-1,30
 985 1389 985 1389 1031 1375.5 c 128,-1,31
 1077 1362 1077 1362 1111 1334.5 c 128,-1,32
 1145 1307 1145 1307 1157 1268 c 0,33,34
 1171 1229 1171 1229 1161 1187 c 128,-1,35
 1151 1145 1151 1145 1122.5 1106 c 128,-1,36
 1094 1067 1094 1067 1048.5 1034 c 128,-1,37
 1003 1001 1003 1001 946 983 c 0,38,39
 889 963 889 963 832.5 960.5 c 128,-1,40
 776 958 776 958 730 971.5 c 128,-1,41
 684 985 684 985 650 1011.5 c 128,-1,42
 616 1038 616 1038 602 1079 c 0,43,24
 590 1118 590 1118 599 1160 c 128,-1,25
EndSplineSet
EndChar

StartChar: ugrave
Encoding: 249 249 112
Width: 1212
GlyphClass: 2
Flags: W
LayerCount: 2
Fore
SplineSet
61 332 m 2,0,1
 61 246 61 246 87 178.5 c 128,-1,2
 113 111 113 111 158 65.5 c 128,-1,3
 203 20 203 20 266.5 -3.5 c 128,-1,4
 330 -27 330 -27 406 -27 c 0,5,6
 523 -27 523 -27 609.5 20.5 c 128,-1,7
 696 68 696 68 737 182 c 1,8,-1
 741 182 l 1,9,-1
 741 -8 l 1,10,-1
 1120 10 l 1,11,-1
 1149 1229 l 1,12,-1
 680 1192 l 1,13,-1
 692 469 l 2,14,15
 692 418 692 418 666.5 398.5 c 128,-1,16
 641 379 641 379 600 379 c 0,17,18
 553 379 553 379 529.5 399.5 c 128,-1,19
 506 420 506 420 506 471 c 2,20,-1
 518 1229 l 1,21,-1
 61 1192 l 1,22,-1
 61 332 l 2,0,1
299 1556 m 1,23,-1
 596 1720 l 1,24,-1
 825 1382 l 1,25,-1
 664 1298 l 1,26,-1
 299 1556 l 1,23,-1
EndSplineSet
EndChar

StartChar: ucircumflex
Encoding: 251 251 113
Width: 1185
GlyphClass: 2
Flags: W
LayerCount: 2
Fore
SplineSet
47 336 m 2,0,1
 47 162 47 162 142.5 69.5 c 128,-1,2
 238 -23 238 -23 391 -23 c 0,3,4
 508 -23 508 -23 595 24.5 c 128,-1,5
 682 72 682 72 723 186 c 1,6,-1
 727 186 l 1,7,-1
 727 -4 l 1,8,-1
 1104 14 l 1,9,-1
 1135 1233 l 1,10,-1
 664 1196 l 1,11,-1
 676 473 l 2,12,13
 678 422 678 422 652.5 402.5 c 128,-1,14
 627 383 627 383 586 383 c 0,15,16
 537 383 537 383 513 403.5 c 128,-1,17
 489 424 489 424 492 475 c 2,18,-1
 504 1233 l 1,19,-1
 47 1196 l 1,20,-1
 47 336 l 2,0,1
209 1432 m 5,21,-1
 436 1655 l 5,22,-1
 752 1655 l 5,23,-1
 967 1417 l 5,24,-1
 721 1315 l 5,25,-1
 594 1487 l 5,26,-1
 467 1315 l 5,27,-1
 209 1432 l 5,21,-1
EndSplineSet
EndChar

StartChar: ydieresis
Encoding: 255 255 114
Width: 1001
GlyphClass: 2
Flags: W
LayerCount: 2
Fore
SplineSet
-59 1169 m 1,0,-1
 326 162 l 1,1,-1
 150 -322 l 1,2,-1
 614 -358 l 1,3,-1
 1051 1188 l 1,4,-1
 629 1225 l 1,5,-1
 528 774 l 1,6,-1
 524 774 l 1,7,-1
 387 1225 l 1,8,-1
 -59 1169 l 1,0,-1
133 1595 m 1,9,-1
 408 1616 l 1,10,-1
 430 1397 l 1,11,-1
 158 1399 l 1,12,-1
 133 1595 l 1,9,-1
565 1595 m 1,13,-1
 840 1616 l 1,14,-1
 862 1397 l 1,15,-1
 590 1399 l 1,16,-1
 565 1595 l 1,13,-1
EndSplineSet
EndChar

StartChar: OE
Encoding: 338 338 115
Width: 2142
GlyphClass: 2
Flags: W
LayerCount: 2
Fore
SplineSet
-41 629 m 128,-1,1
 -53 780 -53 780 -20.5 920.5 c 128,-1,2
 12 1061 12 1061 86 1186 c 128,-1,3
 160 1311 160 1311 264.5 1412 c 128,-1,4
 369 1513 369 1513 500 1587 c 128,-1,5
 631 1661 631 1661 776 1698 c 0,6,7
 864 1721 864 1721 947 1722.5 c 128,-1,8
 1030 1724 1030 1724 1104 1711 c 128,-1,9
 1178 1698 1178 1698 1241.5 1670 c 128,-1,10
 1305 1642 1305 1642 1358 1606 c 1,11,-1
 2144 1669 l 1,12,-1
 2081 1149 l 1,13,-1
 1536 1128 l 1,14,-1
 1546 1030 l 1,15,-1
 1935 1057 l 1,16,-1
 1894 698 l 1,17,-1
 1522 670 l 1,18,-1
 1520 557 l 1,19,-1
 2134 612 l 1,20,-1
 2122 49 l 1,21,-1
 1092 -10 l 1,22,-1
 1092 14 l 1,23,24
 963 -45 963 -45 809 -64.5 c 128,-1,25
 655 -84 655 -84 510 -52 c 128,-1,26
 365 -20 365 -20 240 70 c 128,-1,27
 115 160 115 160 41 324 c 0,28,0
 -29 478 -29 478 -41 629 c 128,-1,1
455 690 m 0,29,30
 453 592 453 592 482.5 530.5 c 128,-1,31
 512 469 512 469 558 439.5 c 128,-1,32
 604 410 604 410 663.5 406.5 c 128,-1,33
 723 403 723 403 781.5 423.5 c 128,-1,34
 840 444 840 444 891 484.5 c 128,-1,35
 942 525 942 525 977 578 c 0,36,37
 1028 658 1028 658 1051.5 725.5 c 128,-1,38
 1075 793 1075 793 1080 850 c 128,-1,39
 1085 907 1085 907 1075 955.5 c 128,-1,40
 1065 1004 1065 1004 1047 1040 c 0,41,42
 1016 1106 1016 1106 959.5 1134.5 c 128,-1,43
 903 1163 903 1163 837.5 1159 c 128,-1,44
 772 1155 772 1155 704.5 1120 c 128,-1,45
 637 1085 637 1085 581.5 1025 c 128,-1,46
 526 965 526 965 490.5 880 c 128,-1,47
 455 795 455 795 455 690 c 0,29,30
EndSplineSet
EndChar

StartChar: oe
Encoding: 339 339 116
Width: 1992
GlyphClass: 2
Flags: W
LayerCount: 2
Fore
SplineSet
-33 596 m 256,0,1
 -33 739 -33 739 17.5 856 c 128,-1,2
 68 973 68 973 155 1055 c 128,-1,3
 242 1137 242 1137 360.5 1181 c 128,-1,4
 479 1225 479 1225 618 1225 c 0,5,6
 770 1225 770 1225 871.5 1190 c 128,-1,7
 973 1155 973 1155 1061 1096 c 1,8,9
 1135 1141 1135 1141 1232 1183 c 128,-1,10
 1329 1225 1329 1225 1458 1225 c 0,11,12
 1564 1225 1564 1225 1652.5 1198 c 128,-1,13
 1741 1171 1741 1171 1812.5 1122 c 128,-1,14
 1884 1073 1884 1073 1943.5 1001.5 c 128,-1,15
 2003 930 2003 930 2056 842 c 1,16,-1
 1415 381 l 1,17,18
 1442 371 1442 371 1472.5 364.5 c 128,-1,19
 1503 358 1503 358 1550 358 c 0,20,21
 1642 358 1642 358 1715 386 c 128,-1,22
 1788 414 1788 414 1847 451 c 1,23,-1
 2032 129 l 1,24,25
 1919 51 1919 51 1792 10 c 128,-1,26
 1665 -31 1665 -31 1499 -31 c 0,27,28
 1376 -31 1376 -31 1262.5 2 c 128,-1,29
 1149 35 1149 35 1059 109 c 1,30,31
 975 43 975 43 861.5 6 c 128,-1,32
 748 -31 748 -31 618 -31 c 0,33,34
 479 -31 479 -31 360.5 13 c 128,-1,35
 242 57 242 57 155 139 c 128,-1,36
 68 221 68 221 17.5 337 c 128,-1,37
 -33 453 -33 453 -33 596 c 256,0,1
442 596 m 0,38,39
 442 508 442 508 490.5 457 c 128,-1,40
 539 406 539 406 618 406 c 0,41,42
 700 406 700 406 747.5 457 c 128,-1,43
 795 508 795 508 795 596 c 0,44,45
 795 682 795 682 747.5 733 c 128,-1,46
 700 784 700 784 618 784 c 0,47,48
 538 784 538 784 490 733 c 128,-1,49
 442 682 442 682 442 596 c 0,38,39
1251 680 m 0,50,51
 1251 631 1251 631 1272 596 c 1,52,-1
 1583 815 l 1,53,54
 1560 838 1560 838 1530.5 855 c 128,-1,55
 1501 872 1501 872 1452 872 c 0,56,57
 1360 872 1360 872 1305.5 815 c 128,-1,58
 1251 758 1251 758 1251 680 c 0,50,51
EndSplineSet
EndChar

StartChar: Ydieresis
Encoding: 376 376 117
Width: 1519
GlyphClass: 2
Flags: W
LayerCount: 2
Fore
SplineSet
-84 1360 m 1,0,-1
 432 637 l 1,1,-1
 432 35 l 1,2,-1
 983 -39 l 1,3,-1
 989 551 l 1,4,-1
 1614 1360 l 1,5,-1
 1112 1702 l 1,6,-1
 719 1133 l 1,7,-1
 356 1702 l 1,8,-1
 -84 1360 l 1,0,-1
403 1880 m 1,9,-1
 741 1905 l 1,10,-1
 776 1741 l 1,11,12
 741 1737 741 1737 687 1733 c 128,-1,13
 633 1729 633 1729 579.5 1725.5 c 128,-1,14
 526 1722 526 1722 487 1722 c 0,15,16
 450 1722 450 1722 451 1726 c 2,17,18
 451 1726 451 1726 444 1756 c 0,19,20
 438 1786 438 1786 403 1880 c 1,9,-1
866 1769 m 1,21,-1
 870 1931 l 1,22,-1
 1190 2001 l 1,23,-1
 1210 1817 l 1,24,25
 1050 1799 1050 1799 958 1784 c 2,26,-1
 866 1769 l 1,21,-1
EndSplineSet
EndChar

StartChar: uni2010
Encoding: 8208 8208 129
Width: 933
GlyphClass: 2
Flags: W
LayerCount: 2
Fore
SplineSet
135 590 m 1,0,-1
 154 825 l 1,1,-1
 803 854 l 1,2,-1
 782 580 l 1,3,-1
 135 590 l 1,0,-1
EndSplineSet
EndChar

StartChar: uni2011
Encoding: 8209 8209 130
Width: 933
GlyphClass: 2
Flags: W
LayerCount: 2
Fore
SplineSet
135 590 m 1,0,-1
 154 825 l 1,1,-1
 803 854 l 1,2,-1
 782 580 l 1,3,-1
 135 590 l 1,0,-1
EndSplineSet
EndChar

StartChar: figuredash
Encoding: 8210 8210 131
Width: 933
GlyphClass: 2
Flags: W
LayerCount: 2
Fore
SplineSet
135 590 m 1,0,-1
 154 825 l 1,1,-1
 803 854 l 1,2,-1
 782 580 l 1,3,-1
 135 590 l 1,0,-1
EndSplineSet
EndChar

StartChar: endash
Encoding: 8211 8211 132
Width: 1289
GlyphClass: 2
Flags: W
LayerCount: 2
Fore
SplineSet
135 590 m 1,0,-1
 164 825 l 1,1,-1
 1159 854 l 1,2,-1
 1127 580 l 1,3,-1
 135 590 l 1,0,-1
EndSplineSet
EndChar

StartChar: emdash
Encoding: 8212 8212 133
Width: 1931
GlyphClass: 2
Flags: W
LayerCount: 2
Fore
SplineSet
14 551 m 1,0,-1
 53 938 l 1,1,-1
 1370 985 l 1,2,-1
 1331 561 l 1,3,-1
 14 551 l 1,0,-1
EndSplineSet
EndChar

StartChar: quotedblleft
Encoding: 8220 8220 134
Width: 878
GlyphClass: 2
Flags: W
LayerCount: 2
Fore
SplineSet
70 1868 m 1,0,-1
 227 1997 l 1,1,-1
 399 1583 l 1,2,-1
 313 1554 l 1,3,-1
 70 1868 l 1,0,-1
362 1868 m 1,4,-1
 520 1997 l 1,5,-1
 692 1583 l 1,6,-1
 606 1554 l 1,7,-1
 362 1868 l 1,4,-1
EndSplineSet
EndChar

StartChar: quotedblright
Encoding: 8221 8221 135
Width: 854
GlyphClass: 2
Flags: W
LayerCount: 2
Fore
SplineSet
164 1583 m 1,0,-1
 336 1997 l 1,1,-1
 494 1868 l 1,2,-1
 250 1554 l 1,3,-1
 164 1583 l 1,0,-1
457 1583 m 1,4,-1
 627 1997 l 1,5,-1
 784 1868 l 1,6,-1
 543 1554 l 1,7,-1
 457 1583 l 1,4,-1
EndSplineSet
EndChar

StartChar: uniE000
Encoding: 57344 57344 138
Width: 1228
GlyphClass: 2
Flags: W
LayerCount: 2
Fore
SplineSet
0 0 m 1,0,-1
 0 1229 l 1,1,-1
 1229 1229 l 1,2,-1
 1229 0 l 1,3,-1
 0 0 l 1,0,-1
EndSplineSet
EndChar

StartChar: uni0410
Encoding: 1040 1040 139
Width: 1740
Flags: W
LayerCount: 2
Fore
SplineSet
-102 137 m 1,0,-1
 809 1788 l 1,1,-1
 1843 215 l 1,2,-1
 1200 -29 l 1,3,-1
 1028 258 l 1,4,-1
 598 244 l 1,5,-1
 514 -63 l 1,6,-1
 -102 137 l 1,0,-1
705 569 m 1,7,-1
 948 612 l 1,8,-1
 846 891 l 1,9,-1
 705 569 l 1,7,-1
EndSplineSet
EndChar

StartChar: uni0412
Encoding: 1042 1042 140
Width: 1411
Flags: W
LayerCount: 2
Fore
SplineSet
66 1599 m 1,0,1
 355 1654 355 1654 542 1673 c 0,2,3
 720 1691 720 1691 826 1691 c 0,4,5
 832 1691 832 1691 838 1691 c 0,6,7
 946 1690 946 1690 989 1680 c 2,8,-1
 1032 1671 l 1,9,10
 1032 1671 1032 1671 1074 1652 c 0,11,12
 1116 1632 1116 1632 1169.5 1594 c 128,-1,13
 1223 1556 1223 1556 1271 1498 c 128,-1,14
 1319 1440 1319 1440 1330 1363 c 0,15,16
 1332 1347 1332 1347 1332 1330 c 0,17,18
 1332 1266 1332 1266 1299 1190 c 0,19,20
 1257 1094 1257 1094 1133 977 c 1,21,22
 1305 887 1305 887 1377.5 783.5 c 128,-1,23
 1450 680 1450 680 1457 580 c 0,24,25
 1458 564 1458 564 1458 548 c 0,26,27
 1458 464 1458 464 1426 387 c 0,28,29
 1388 295 1388 295 1338 225.5 c 128,-1,30
 1288 156 1288 156 1246 114 c 2,31,-1
 1204 72 l 2,32,33
 1202 70 1202 70 1176.5 54.5 c 128,-1,34
 1151 39 1151 39 1076 18 c 0,35,36
 1000 -4 1000 -4 876 -18 c 0,37,38
 760 -32 760 -32 578 -32 c 0,39,40
 565 -32 565 -32 553 -32 c 0,41,42
 354 -31 354 -31 80 0 c 1,43,-1
 66 1599 l 1,0,1
582 635 m 1,44,-1
 608 420 l 1,45,46
 645 417 645 417 677 417 c 0,47,48
 742 416 742 416 784 430 c 0,49,50
 846 450 846 450 873.5 480 c 128,-1,51
 901 510 901 510 904 524 c 2,52,-1
 911 563 l 2,53,54
 911 565 911 565 908 585.5 c 128,-1,55
 905 606 905 606 889.5 634 c 128,-1,56
 874 662 874 662 840 678 c 0,57,58
 815 690 815 690 775 690 c 0,59,60
 760 690 760 690 742 688 c 0,61,62
 680 682 680 682 582 635 c 1,44,-1
602 997 m 1,63,64
 622 994 622 994 640 994 c 0,65,66
 678 994 678 994 705 1008 c 0,67,68
 745 1030 745 1030 766.5 1060 c 128,-1,69
 788 1090 788 1090 792 1102 c 2,70,-1
 803 1141 l 1,71,-1
 804 1164 l 2,72,73
 805 1188 805 1188 789.5 1209.5 c 128,-1,74
 774 1231 774 1231 733 1238 c 0,75,76
 726 1239 726 1239 717 1239 c 0,77,78
 677 1239 677 1239 610 1212 c 1,79,-1
 602 997 l 1,63,64
EndSplineSet
EndChar

StartChar: uni0421
Encoding: 1057 1057 141
Width: 1531
Flags: W
LayerCount: 2
Fore
SplineSet
-28 630 m 0,0,1
 -32 672 -32 672 -33 714 c 0,2,3
 -33 824 -33 824 -5 934 c 0,4,5
 33 1086 33 1086 101.5 1219 c 128,-1,6
 170 1352 170 1352 263 1458.5 c 128,-1,7
 356 1565 356 1565 453 1628 c 1,8,9
 453 1628 453 1628 494 1650 c 0,10,11
 535 1673 535 1673 606.5 1694.5 c 128,-1,12
 678 1716 678 1716 775 1726 c 0,13,14
 800 1728 800 1728 825 1728 c 0,15,16
 901 1728 901 1728 986 1707 c 0,17,18
 1100 1679 1100 1679 1223.5 1603 c 128,-1,19
 1347 1527 1347 1527 1470 1380 c 1,20,-1
 1112 940 l 1,21,22
 1000 1058 1000 1058 918 1090 c 0,23,24
 864 1111 864 1111 821 1111 c 0,25,26
 798 1110 798 1110 776 1104 c 0,27,28
 716 1086 716 1086 674.5 1032.5 c 128,-1,29
 633 979 633 979 608.5 922.5 c 128,-1,30
 584 866 584 866 574 821 c 2,31,-1
 563 776 l 2,32,33
 563 772 563 772 572.5 723 c 128,-1,34
 582 674 582 674 616 614 c 0,35,36
 650 552 650 552 712 524 c 0,37,38
 739 512 739 512 775 512 c 0,39,40
 822 512 822 512 882 532 c 0,41,42
 990 568 990 568 1147 715 c 1,43,-1
 1546 289 l 1,44,45
 1515 230 1515 230 1439.5 168 c 128,-1,46
 1364 106 1364 106 1259.5 55 c 128,-1,47
 1155 4 1155 4 1030 -30 c 0,48,49
 905 -62 905 -62 775 -68 c 0,50,51
 756 -69 756 -69 738 -69 c 0,52,53
 627 -69 627 -69 519 -41 c 0,54,55
 393 -8 393 -8 287 74 c 0,56,57
 133 193 133 193 59.5 335.5 c 128,-1,58
 -14 478 -14 478 -28 630 c 0,0,1
EndSplineSet
EndChar

StartChar: uni0414
Encoding: 1044 1044 142
Width: 1474
Flags: W
LayerCount: 2
Fore
SplineSet
86 1602 m 1,0,1
 457 1674 457 1674 634 1695 c 2,2,-1
 811 1716 l 2,3,4
 880 1727 880 1727 943 1727 c 0,5,6
 1036 1727 1036 1727 1116 1703 c 0,7,8
 1249 1663 1249 1663 1341.5 1575 c 128,-1,9
 1434 1487 1434 1487 1483 1360 c 0,10,11
 1532 1234 1532 1234 1538 1088 c 0,12,13
 1539 1068 1539 1068 1539 1048 c 0,14,15
 1539 922 1539 922 1506 788 c 0,16,17
 1468 634 1468 634 1383 489 c 128,-1,18
 1298 344 1298 344 1166 220 c 128,-1,19
 1034 96 1034 96 854 12 c 1,20,-1
 818 1 l 2,21,22
 782 -10 782 -10 697 -20 c 0,23,24
 627 -28 627 -28 518 -27 c 0,25,26
 495 -27 495 -27 471 -27 c 0,27,28
 330 -25 330 -25 119 2 c 1,29,-1
 86 1602 l 1,0,1
614 467 m 1,30,31
 731 494 731 494 804 548 c 128,-1,32
 877 602 877 602 913.5 660.5 c 128,-1,33
 950 719 950 719 965.5 776.5 c 128,-1,34
 981 834 981 834 981 866 c 0,35,36
 981 901 981 901 981 903 c 0,37,38
 981 907 981 907 975 943 c 128,-1,39
 969 979 969 979 948.5 1028 c 128,-1,40
 928 1077 928 1077 891 1109 c 0,41,42
 860 1136 860 1136 811 1136 c 0,43,44
 800 1136 800 1136 790 1134 c 0,45,46
 726 1128 726 1128 635 1055 c 1,47,-1
 614 467 l 1,30,31
EndSplineSet
EndChar

StartChar: uni0415
Encoding: 1045 1045 143
Width: 1212
Flags: W
LayerCount: 2
Fore
SplineSet
72 1585 m 1,0,-1
 1202 1669 l 1,1,-1
 1139 1151 l 1,2,-1
 625 1128 l 1,3,-1
 623 1030 l 1,4,-1
 995 1057 l 1,5,-1
 952 698 l 1,6,-1
 610 672 l 1,7,-1
 606 559 l 1,8,-1
 1192 614 l 1,9,-1
 1182 49 l 1,10,-1
 86 -10 l 1,11,-1
 72 1585 l 1,0,-1
EndSplineSet
EndChar

StartChar: uni041D
Encoding: 1053 1053 144
Width: 1476
Flags: W
LayerCount: 2
Fore
SplineSet
27 1612 m 1,0,-1
 625 1669 l 1,1,-1
 553 918 l 1,2,-1
 856 940 l 1,3,-1
 881 1655 l 1,4,-1
 1464 1683 l 1,5,-1
 1298 102 l 1,6,-1
 823 45 l 1,7,-1
 850 496 l 1,8,-1
 635 465 l 1,9,-1
 614 -6 l 1,10,-1
 104 -16 l 1,11,-1
 27 1612 l 1,0,-1
EndSplineSet
EndChar

StartChar: uni041A
Encoding: 1050 1050 145
Width: 1302
Flags: W
LayerCount: 2
Fore
SplineSet
63 1612 m 1,0,-1
 664 1683 l 1,1,-1
 657 1313 l 1,2,-1
 987 1769 l 1,3,-1
 1389 1296 l 1,4,-1
 817 766 l 1,5,-1
 1321 342 l 1,6,-1
 1034 -88 l 1,7,-1
 637 287 l 1,8,-1
 633 27 l 1,9,-1
 96 -35 l 1,10,-1
 63 1612 l 1,0,-1
EndSplineSet
EndChar

StartChar: uni041C
Encoding: 1052 1052 146
Width: 1808
Flags: W
LayerCount: 2
Fore
SplineSet
-88 252 m 1,0,-1
 432 1772 l 1,1,-1
 934 1139 l 1,2,-1
 1417 1638 l 1,3,-1
 1919 258 l 1,4,-1
 1425 -145 l 1,5,-1
 1202 520 l 1,6,-1
 924 33 l 1,7,-1
 588 549 l 1,8,-1
 389 -57 l 1,9,-1
 -88 252 l 1,0,-1
EndSplineSet
EndChar

StartChar: uni0418
Encoding: 1048 1048 147
Width: 1560
Flags: W
LayerCount: 2
Fore
SplineSet
1528 -37 m 5,0,-1
 1502 1667 l 5,1,-1
 719 1018 l 5,2,-1
 701 1696 l 5,3,-1
 90 1655 l 5,4,-1
 185 92 l 5,5,-1
 969 483 l 5,6,-1
 940 0 l 5,7,-1
 1528 -37 l 5,0,-1
EndSplineSet
EndChar

StartChar: uni041E
Encoding: 1054 1054 148
Width: 1564
Flags: W
LayerCount: 2
Fore
SplineSet
-50 629 m 0,0,1
 -54 672 -54 672 -54 714 c 0,2,3
 -54 820 -54 820 -30 920 c 0,4,5
 2 1060 2 1060 76 1185.5 c 128,-1,6
 150 1311 150 1311 254 1412 c 128,-1,7
 358 1513 358 1513 488 1587 c 128,-1,8
 618 1661 618 1661 766 1700 c 0,9,10
 866 1725 866 1725 958 1725 c 0,11,12
 993 1726 993 1726 1027 1722 c 0,13,14
 1149 1708 1149 1708 1247.5 1663 c 128,-1,15
 1346 1618 1346 1618 1414.5 1553.5 c 128,-1,16
 1483 1489 1483 1489 1518 1423 c 0,17,18
 1581 1300 1581 1300 1613 1146 c 0,19,20
 1634 1046 1634 1046 1634 941 c 0,21,22
 1634 884 1634 884 1628 825 c 0,23,24
 1610 659 1610 659 1534.5 490.5 c 128,-1,25
 1459 322 1459 322 1309 168 c 0,26,27
 1235 94 1235 94 1129.5 39 c 128,-1,28
 1024 -16 1024 -16 903 -45 c 0,29,30
 790 -72 790 -72 670 -72 c 0,31,32
 662 -72 662 -72 654 -72 c 0,33,34
 526 -70 526 -70 408.5 -28 c 128,-1,35
 291 14 291 14 192.5 100 c 128,-1,36
 94 186 94 186 33 324 c 0,37,38
 -37 478 -37 478 -50 629 c 0,0,1
444 690 m 0,39,40
 444 684 444 684 444 678 c 0,41,42
 444 588 444 588 472 530 c 0,43,44
 502 468 502 468 548 439 c 128,-1,45
 594 410 594 410 654 406 c 0,46,47
 663 405 663 405 671 406 c 0,48,49
 722 406 722 406 771 424 c 0,50,51
 829 444 829 444 880.5 484 c 128,-1,52
 932 524 932 524 967 578 c 0,53,54
 1018 658 1018 658 1041.5 726.5 c 128,-1,55
 1065 795 1065 795 1070 852 c 0,56,57
 1072 870 1072 870 1072 888 c 0,58,59
 1072 924 1072 924 1064 956 c 0,60,61
 1054 1003 1054 1003 1036 1040 c 0,62,63
 1005 1106 1005 1106 949 1134 c 0,64,65
 900 1159 900 1159 843 1159 c 0,66,67
 836 1159 836 1159 828 1159 c 0,68,69
 762 1155 762 1155 694.5 1121 c 128,-1,70
 627 1087 627 1087 571.5 1027 c 128,-1,71
 516 967 516 967 480 881 c 128,-1,72
 444 795 444 795 444 690 c 0,39,40
EndSplineSet
EndChar

StartChar: uni0420
Encoding: 1056 1056 149
Width: 1310
Flags: W
LayerCount: 2
Fore
SplineSet
82 1602 m 1,0,1
 471 1647 471 1647 561 1656 c 2,2,-1
 831 1681 l 2,3,4
 883 1686 883 1686 930 1686 c 0,5,6
 1039 1686 1039 1686 1123 1658 c 0,7,8
 1243 1616 1243 1616 1313.5 1534 c 128,-1,9
 1384 1452 1384 1452 1409 1338 c 0,10,11
 1423 1276 1423 1276 1422 1211 c 0,12,13
 1422 1157 1422 1157 1414 1101 c 0,14,15
 1394 977 1394 977 1332 851 c 128,-1,16
 1270 725 1270 725 1168.5 617.5 c 128,-1,17
 1067 510 1067 510 929 431 c 128,-1,18
 791 352 791 352 618 319 c 1,19,-1
 610 -49 l 1,20,-1
 115 2 l 1,21,-1
 82 1602 l 1,0,1
563 815 m 1,22,23
 637 831 637 831 691 862 c 128,-1,24
 745 893 745 893 782 928 c 128,-1,25
 819 963 819 963 839.5 994.5 c 128,-1,26
 860 1026 860 1026 864 1044 c 0,27,28
 864 1046 864 1046 866 1066 c 0,29,30
 866 1070 866 1070 866 1075 c 0,31,32
 866 1093 866 1093 860 1116 c 0,33,34
 852 1144 852 1144 826 1164 c 0,35,36
 801 1183 801 1183 746 1183 c 0,37,38
 742 1183 742 1183 740 1183 c 0,39,40
 682 1182 682 1182 584 1143 c 1,41,-1
 563 815 l 1,22,23
EndSplineSet
EndChar

StartChar: uni042F
Encoding: 1071 1071 150
Width: 1372
Flags: W
LayerCount: 2
Fore
SplineSet
1354 1600 m 5,0,1
 965 1645 965 1645 785 1662 c 6,2,-1
 605 1679 l 6,3,4
 549 1685 549 1685 498 1685 c 4,5,6
 375 1684 375 1684 284 1650 c 4,7,8
 156 1602 156 1602 89.5 1508.5 c 132,-1,9
 23 1415 23 1415 14 1291 c 4,10,11
 12 1270 12 1270 13 1250 c 4,12,13
 13 1146 13 1146 50 1037 c 4,14,15
 95 907 95 907 192 784.5 c 132,-1,16
 289 662 289 662 433 571 c 5,17,-1
 5 291 l 5,18,-1
 322 -68 l 5,19,-1
 820 299 l 5,20,-1
 826 -51 l 5,21,-1
 1322 0 l 5,22,-1
 1354 1600 l 5,0,1
871 813 m 1,23,24
 797 829 797 829 743 860 c 128,-1,25
 689 891 689 891 652 926 c 128,-1,26
 615 961 615 961 595.5 992.5 c 128,-1,27
 576 1024 576 1024 572 1042 c 0,28,29
 572 1044 572 1044 570 1064 c 0,30,31
 570 1069 570 1069 570 1074 c 0,32,33
 570 1091 570 1091 575 1114 c 0,34,35
 582 1142 582 1142 610 1162 c 0,36,37
 637 1181 637 1181 690 1181 c 0,38,39
 694 1181 694 1181 696 1181 c 0,40,41
 754 1180 754 1180 851 1141 c 1,42,-1
 871 813 l 1,23,24
EndSplineSet
EndChar

StartChar: uni0422
Encoding: 1058 1058 151
Width: 1067
Flags: W
LayerCount: 2
Fore
SplineSet
-6 1108 m 1,0,-1
 8 1612 l 1,1,-1
 1114 1706 l 1,2,-1
 1061 1219 l 1,3,-1
 815 1190 l 1,4,-1
 815 37 l 1,5,-1
 233 -35 l 1,6,-1
 264 1135 l 1,7,-1
 -6 1108 l 1,0,-1
EndSplineSet
EndChar

StartChar: uni041B
Encoding: 1051 1051 152
Width: 1531
Flags: W
LayerCount: 2
Fore
SplineSet
1651 247 m 5,0,-1
 1068 -97 l 5,1,-1
 767 624 l 5,2,-1
 416 -81 l 5,3,-1
 -94 214 l 5,4,-1
 808 1760 l 5,5,-1
 1651 247 l 5,0,-1
EndSplineSet
EndChar

StartChar: uni0425
Encoding: 1061 1061 153
Width: 1650
Flags: W
LayerCount: 2
Fore
SplineSet
-20 1370 m 1,0,-1
 436 1714 l 1,1,-1
 838 1303 l 1,2,-1
 1217 1714 l 1,3,-1
 1675 1370 l 1,4,-1
 1190 866 l 1,5,-1
 1686 360 l 1,6,-1
 1294 -59 l 1,7,-1
 829 524 l 1,8,-1
 457 -78 l 1,9,-1
 -10 313 l 1,10,-1
 457 838 l 1,11,-1
 -20 1370 l 1,0,-1
EndSplineSet
EndChar

StartChar: uni0423
Encoding: 1059 1059 154
Width: 1435
Flags: W
LayerCount: 2
Fore
SplineSet
-123 1360 m 1,0,-1
 317 1704 l 1,1,-1
 680 1135 l 1,2,-1
 1073 1704 l 1,3,-1
 1575 1360 l 1,4,-1
 950 553 l 1,5,-1
 507 -37 l 1,6,-1
 -44 37 l 1,7,-1
 393 639 l 1,8,-1
 -123 1360 l 1,0,-1
EndSplineSet
EndChar

StartChar: uni042E
Encoding: 1070 1070 155
Width: 2356
Flags: W
LayerCount: 2
Fore
SplineSet
1236 690 m 0,0,1
 1236 684 1236 684 1236 678 c 0,2,3
 1236 588 1236 588 1264 530 c 0,4,5
 1294 468 1294 468 1340 439 c 128,-1,6
 1386 410 1386 410 1446 406 c 0,7,8
 1455 405 1455 405 1463 406 c 0,9,10
 1514 406 1514 406 1563 424 c 0,11,12
 1621 444 1621 444 1672.5 484 c 128,-1,13
 1724 524 1724 524 1759 578 c 0,14,15
 1810 658 1810 658 1833.5 726.5 c 128,-1,16
 1857 795 1857 795 1862 852 c 0,17,18
 1864 870 1864 870 1864 888 c 0,19,20
 1864 924 1864 924 1856 956 c 0,21,22
 1846 1003 1846 1003 1828 1040 c 0,23,24
 1797 1106 1797 1106 1741 1134 c 0,25,26
 1692 1159 1692 1159 1635 1159 c 0,27,28
 1628 1159 1628 1159 1620 1159 c 0,29,30
 1554 1155 1554 1155 1486.5 1121 c 128,-1,31
 1419 1087 1419 1087 1363.5 1027 c 128,-1,32
 1308 967 1308 967 1272 881 c 128,-1,33
 1236 795 1236 795 1236 690 c 0,0,1
54 -131 m 1,34,-1
 74 1516 l 1,35,-1
 676 1587 l 1,36,-1
 643.409179688 944.493164062 l 1,37,-1
 771.692382812 958.584960938 l 1,38,39
 804.271484375 1077.41992188 804.271484375 1077.41992188 868 1185.5 c 0,40,41
 942 1311 942 1311 1046 1412 c 128,-1,42
 1150 1513 1150 1513 1280 1587 c 128,-1,43
 1410 1661 1410 1661 1558 1700 c 0,44,45
 1658 1725 1658 1725 1750 1725 c 0,46,47
 1785 1726 1785 1726 1819 1722 c 0,48,49
 1941 1708 1941 1708 2039.5 1663 c 128,-1,50
 2138 1618 2138 1618 2206.5 1553.5 c 128,-1,51
 2275 1489 2275 1489 2310 1423 c 0,52,53
 2373 1300 2373 1300 2405 1146 c 0,54,55
 2426 1046 2426 1046 2426 941 c 0,56,57
 2426 884 2426 884 2420 825 c 0,58,59
 2402 659 2402 659 2326.5 490.5 c 128,-1,60
 2251 322 2251 322 2101 168 c 0,61,62
 2027 94 2027 94 1921.5 39 c 128,-1,63
 1816 -16 1816 -16 1695 -45 c 0,64,65
 1582 -72 1582 -72 1462 -72 c 0,66,67
 1454 -72 1454 -72 1446 -72 c 0,68,69
 1318 -70 1318 -70 1200.5 -28 c 128,-1,70
 1083 14 1083 14 984.5 100 c 128,-1,71
 886 186 886 186 825 324 c 0,72,73
 813.212890625 349.932617188 813.212890625 349.932617188 803.041015625 375.780273438 c 1,74,-1
 614.1484375 367.634765625 l 1,75,-1
 592 -69 l 1,76,-1
 54 -131 l 1,34,-1
EndSplineSet
EndChar

StartChar: uni042C
Encoding: 1068 1068 156
Width: 1318
Flags: W
LayerCount: 2
Fore
SplineSet
70 53 m 5,0,1
 459 8 459 8 549 -1 c 6,2,-1
 819 -26 l 6,3,4
 871 -31 871 -31 918 -31 c 4,5,6
 1027 -31 1027 -31 1111 -3 c 4,7,8
 1231 39 1231 39 1301.5 121 c 132,-1,9
 1372 203 1372 203 1397 317 c 4,10,11
 1411 379 1411 379 1410 444 c 4,12,13
 1410 498 1410 498 1402 554 c 4,14,15
 1382 678 1382 678 1320 804 c 132,-1,16
 1258 930 1258 930 1156.5 1037.5 c 132,-1,17
 1055 1145 1055 1145 917 1224 c 132,-1,18
 779 1303 779 1303 606 1336 c 5,19,-1
 598 1704 l 5,20,-1
 103 1653 l 5,21,-1
 70 53 l 5,0,1
551 840 m 5,22,23
 625 824 625 824 679 793 c 132,-1,24
 733 762 733 762 770 727 c 132,-1,25
 807 692 807 692 827.5 660.5 c 132,-1,26
 848 629 848 629 852 611 c 4,27,28
 852 609 852 609 854 589 c 4,29,30
 854 585 854 585 854 580 c 4,31,32
 854 562 854 562 848 539 c 4,33,34
 840 511 840 511 814 491 c 4,35,36
 789 472 789 472 734 472 c 4,37,38
 730 472 730 472 728 472 c 4,39,40
 670 473 670 473 572 512 c 5,41,-1
 551 840 l 5,22,23
EndSplineSet
EndChar

StartChar: uni0401
Encoding: 1025 1025 157
Width: 1224
Flags: W
LayerCount: 2
Fore
SplineSet
57 1573 m 1,0,-1
 1188 1655 l 1,1,-1
 1124 1137 l 1,2,-1
 608 1116 l 1,3,-1
 608 1016 l 1,4,-1
 979 1044 l 1,5,-1
 938 686 l 1,6,-1
 594 657 l 1,7,-1
 592 545 l 1,8,-1
 1178 600 l 1,9,-1
 1165 35 l 1,10,-1
 72 -25 l 1,11,-1
 57 1573 l 1,0,-1
162 1853 m 1,12,-1
 500 1878 l 1,13,-1
 535 1714 l 1,14,15
 502 1710 502 1710 446.5 1706 c 128,-1,16
 391 1702 391 1702 339 1700 c 128,-1,17
 287 1698 287 1698 249 1697 c 128,-1,18
 211 1696 211 1696 211 1700 c 0,19,20
 211 1702 211 1702 209 1712 c 128,-1,21
 207 1722 207 1722 197 1758 c 128,-1,22
 187 1794 187 1794 162 1853 c 1,12,-1
625 1743 m 1,23,-1
 631 1905 l 1,24,-1
 950 1974 l 1,25,-1
 969 1790 l 1,26,27
 809 1772 809 1772 717 1758 c 2,28,-1
 625 1743 l 1,23,-1
EndSplineSet
EndChar

StartChar: uni0451
Encoding: 1105 1105 158
Width: 1196
Flags: W
LayerCount: 2
Fore
SplineSet
-25 584 m 0,0,1
 -25 738 -25 738 24.5 858.5 c 128,-1,2
 74 979 74 979 158 1064 c 128,-1,3
 242 1149 242 1149 353.5 1193 c 128,-1,4
 465 1237 465 1237 592 1237 c 0,5,6
 797 1237 797 1237 947.5 1132.5 c 128,-1,7
 1098 1028 1098 1028 1171 854 c 1,8,-1
 559 391 l 1,9,10
 582 379 582 379 618.5 375 c 128,-1,11
 655 371 655 371 686 371 c 0,12,13
 778 371 778 371 843.5 404.5 c 128,-1,14
 909 438 909 438 963 485 c 1,15,-1
 1165 154 l 1,16,17
 1040 64 1040 64 909 23 c 128,-1,18
 778 -18 778 -18 608 -18 c 0,19,20
 469 -18 469 -18 353.5 30 c 128,-1,21
 238 78 238 78 154 160 c 128,-1,22
 70 242 70 242 22.5 351.5 c 128,-1,23
 -25 461 -25 461 -25 584 c 0,0,1
233 1608 m 1,24,-1
 506 1628 l 1,25,-1
 528 1409 l 1,26,-1
 256 1411 l 1,27,-1
 233 1608 l 1,24,-1
403 678 m 256,28,29
 403 639 403 639 408.5 624.5 c 128,-1,30
 414 610 414 610 420 594 c 1,31,-1
 727 825 l 1,32,33
 698 860 698 860 664.5 872.5 c 128,-1,34
 631 885 631 885 588 885 c 0,35,36
 547 885 547 885 513 866.5 c 128,-1,37
 479 848 479 848 454.5 819.5 c 128,-1,38
 430 791 430 791 416.5 754 c 128,-1,39
 403 717 403 717 403 678 c 256,28,29
666 1608 m 1,40,-1
 938 1628 l 1,41,-1
 961 1409 l 1,42,-1
 688 1411 l 1,43,-1
 666 1608 l 1,40,-1
EndSplineSet
EndChar

StartChar: uni0430
Encoding: 1072 1072 159
Width: 1234
Flags: W
LayerCount: 2
Fore
SplineSet
-18 422 m 0,0,1
 -18 506 -18 506 14.5 576.5 c 128,-1,2
 47 647 47 647 103.5 699.5 c 128,-1,3
 160 752 160 752 236.5 781.5 c 128,-1,4
 313 811 313 811 403 811 c 0,5,6
 497 811 497 811 562 783.5 c 128,-1,7
 627 756 627 756 672 721 c 1,8,-1
 672 782 l 2,9,10
 672 876 672 876 610.5 907 c 128,-1,11
 549 938 549 938 451 938 c 0,12,13
 361 938 361 938 283 919.5 c 128,-1,14
 205 901 205 901 125 877 c 1,15,-1
 205 1202 l 1,16,17
 303 1231 303 1231 409.5 1242 c 128,-1,18
 516 1253 516 1253 627 1253 c 0,19,20
 727 1253 727 1253 823.5 1229.5 c 128,-1,21
 920 1206 920 1206 992.5 1153 c 128,-1,22
 1065 1100 1065 1100 1108 1016 c 0,23,24
 1149 936 1149 936 1149 820 c 0,25,26
 1149 815 1149 815 1149 809 c 2,27,-1
 1126 35 l 1,28,-1
 715 0 l 1,29,-1
 715 139 l 1,30,-1
 711 139 l 1,31,32
 656 61 656 61 570.5 30.5 c 128,-1,33
 485 0 485 0 387 0 c 0,34,35
 305 0 305 0 231.5 29.5 c 128,-1,36
 158 59 158 59 102.5 114.5 c 128,-1,37
 47 170 47 170 14.5 248 c 128,-1,38
 -18 326 -18 326 -18 422 c 0,0,1
301 385 m 0,39,40
 310 338 310 338 360 314 c 0,41,42
 393 298 393 298 439 299 c 0,43,44
 462 299 462 299 489 303 c 0,45,46
 569 315 569 315 608 354 c 0,47,48
 640 386 640 386 640 423 c 0,49,50
 640 430 640 430 639 438 c 0,51,52
 633 476 633 476 587 504 c 0,53,54
 557 522 557 522 508 523 c 0,55,56
 484 523 484 523 455 518 c 0,57,58
 385 508 385 508 340 470 c 0,59,60
 300 436 300 436 300 396 c 0,61,62
 300 391 300 391 301 385 c 0,39,40
EndSplineSet
EndChar

StartChar: uni0440
Encoding: 1088 1088 160
Width: 1308
Flags: W
LayerCount: 2
Fore
SplineSet
66 1188 m 1,0,-1
 489 1225 l 1,1,-1
 489 1085 l 1,2,3
 555 1157 555 1157 625.5 1191 c 128,-1,4
 696 1225 696 1225 795 1225 c 0,5,6
 918 1225 918 1225 1019 1170.5 c 128,-1,7
 1120 1116 1120 1116 1191 1028 c 128,-1,8
 1262 940 1262 940 1300.5 828.5 c 128,-1,9
 1339 717 1339 717 1339 602 c 0,10,11
 1339 479 1339 479 1298 365.5 c 128,-1,12
 1257 252 1257 252 1182.5 164 c 128,-1,13
 1108 76 1108 76 1003.5 22.5 c 128,-1,14
 899 -31 899 -31 774 -31 c 0,15,16
 711 -31 711 -31 638 -12.5 c 128,-1,17
 565 6 565 6 508 61 c 1,18,-1
 520 -346 l 1,19,-1
 88 -383 l 1,20,-1
 66 1188 l 1,0,-1
482 650 m 0,21,22
 466 612 466 612 466 577 c 0,23,24
 466 539 466 539 483 504 c 0,25,26
 499 469 499 469 528 445.5 c 128,-1,27
 557 422 557 422 595 412 c 0,28,29
 623 404 623 404 653 404 c 0,30,31
 665 404 665 404 677 405 c 0,32,33
 721 409 721 409 768 432 c 0,34,35
 860 475 860 475 892 553 c 0,36,37
 908 591 908 591 908 627 c 0,38,39
 908 664 908 664 891 698 c 0,40,41
 858 768 858 768 779 792 c 0,42,43
 751 800 751 800 722 800 c 0,44,45
 667 800 667 800 608 772 c 0,46,47
 514 727 514 727 482 650 c 0,21,22
EndSplineSet
EndChar

StartChar: uni0441
Encoding: 1089 1089 161
Width: 1081
Flags: W
LayerCount: 2
Fore
SplineSet
-14 602 m 0,0,1
 -14 752 -14 752 37 871.5 c 128,-1,2
 88 991 88 991 179 1074 c 128,-1,3
 270 1157 270 1157 395 1201 c 128,-1,4
 520 1245 520 1245 666 1246 c 0,5,6
 811 1246 811 1246 918.5 1198.5 c 128,-1,7
 1026 1151 1026 1151 1100 1102 c 1,8,-1
 829 748 l 1,9,10
 800 771 800 771 762.5 785 c 128,-1,11
 725 799 725 799 686 805 c 0,12,13
 657 810 657 810 629 810 c 0,14,15
 620 810 620 810 611 809 c 0,16,17
 575 807 575 807 553 795 c 0,18,19
 514 775 514 775 486 747 c 0,20,21
 460 719 460 719 444 686 c 0,22,23
 429 655 429 655 429 620 c 0,24,25
 429 580 429 580 451 539 c 0,26,27
 492 456 492 456 568 438 c 0,28,29
 591 432 591 432 615 433 c 0,30,31
 669 433 669 433 727 461 c 2,32,-1
 831 514 l 1,33,-1
 1110 145 l 1,34,35
 1059 100 1059 100 1000.5 70.5 c 128,-1,36
 942 41 942 41 880.5 22.5 c 128,-1,37
 819 4 819 4 755.5 -3 c 128,-1,38
 692 -10 692 -10 633 -10 c 0,39,40
 494 -10 494 -10 376 37 c 128,-1,41
 258 84 258 84 171 167 c 128,-1,42
 84 250 84 250 35 361.5 c 128,-1,43
 -14 473 -14 473 -14 602 c 0,0,1
EndSplineSet
EndChar

StartChar: uni0435
Encoding: 1077 1077 162
Width: 1171
Flags: W
LayerCount: 2
Fore
SplineSet
-23 584 m 0,0,1
 -23 738 -23 738 26.5 858.5 c 128,-1,2
 76 979 76 979 160 1063 c 128,-1,3
 244 1147 244 1147 355.5 1191 c 128,-1,4
 467 1235 467 1235 594 1235 c 0,5,6
 799 1235 799 1235 949.5 1130.5 c 128,-1,7
 1100 1026 1100 1026 1174 852 c 1,8,-1
 561 391 l 1,9,10
 584 379 584 379 620.5 375 c 128,-1,11
 657 371 657 371 688 371 c 0,12,13
 782 371 782 371 846.5 404.5 c 128,-1,14
 911 438 911 438 965 485 c 1,15,-1
 1167 152 l 1,16,17
 1042 62 1042 62 911 22 c 128,-1,18
 780 -18 780 -18 610 -18 c 0,19,20
 471 -18 471 -18 355.5 30 c 128,-1,21
 240 78 240 78 156 160 c 128,-1,22
 72 242 72 242 24.5 351.5 c 128,-1,23
 -23 461 -23 461 -23 584 c 0,0,1
406 676 m 0,24,25
 406 639 406 639 411 623.5 c 128,-1,26
 416 608 416 608 424 592 c 1,27,-1
 729 823 l 1,28,29
 700 858 700 858 666.5 870.5 c 128,-1,30
 633 883 633 883 590 883 c 0,31,32
 549 883 549 883 515 865.5 c 128,-1,33
 481 848 481 848 456.5 818 c 128,-1,34
 432 788 432 788 419 751.5 c 128,-1,35
 406 715 406 715 406 676 c 0,24,25
EndSplineSet
EndChar

StartChar: uni0447
Encoding: 1095 1095 163
Width: 1202
Flags: W
LayerCount: 2
Fore
SplineSet
1152 21 m 1,0,-1
 693 -16 l 1,1,-1
 707 559 l 1,2,-1
 703 559 l 1,3,4
 652 491 652 491 584.5 461.5 c 128,-1,5
 517 432 517 432 433 432 c 0,6,7
 347 432 347 432 280.5 463 c 128,-1,8
 214 494 214 494 168.5 549 c 0,9,10
 110 619 110 619 99 679 c 0,11,12
 79 782 79 782 78 827 c 0,13,14
 78 834 78 834 78 840 c 2,15,-1
 95 1227 l 5,16,-1
 527 1263 l 5,17,-1
 523 922 l 2,18,19
 522.594222207 887.407443135 522.594222207 887.407443135 547.399283912 862.500579661 c 0,20,21
 572 838 572 838 613 838 c 0,22,23
 652 838 652 838 679.255648264 861.291190334 c 0,24,25
 707 885 707 885 707 926 c 2,26,-1
 711 1265 l 5,27,-1
 1141 1229 l 5,28,-1
 1152 21 l 1,0,-1
EndSplineSet
EndChar

StartChar: uni0427
Encoding: 1063 1063 164
Width: 1332
Flags: W
LayerCount: 2
Fore
SplineSet
1289.875 12 m 1,0,-1
 744.8125 -25 l 1,1,-1
 761.4375 550 l 1,2,-1
 756.6875 550 l 1,3,4
 696.125 482 696.125 482 615.96875 452.5 c 128,-1,5
 535.8125 423 535.8125 423 436.0625 423 c 0,6,7
 333.9375 423 333.9375 423 254.96875 454 c 128,-1,8
 176 485 176 485 121.96875 540 c 128,-1,9
 67.9375 595 67.9375 595 39.4375 670 c 0,10,11
 13.3125 739 13.3125 739 14.5 818 c 0,12,13
 14.5 825 14.5 825 14.5 831 c 2,14,-1
 29.9375 1624 l 1,15,-1
 542.9375 1660 l 1,16,-1
 542.9375 913 l 2,17,18
 542.9375 878 542.9375 878 572.03125 853.5 c 128,-1,19
 601.125 829 601.125 829 649.8125 829 c 0,20,21
 696.125 829 696.125 829 728.78125 852.5 c 128,-1,22
 761.4375 876 761.4375 876 761.4375 917 c 2,23,-1
 761.4375 1662 l 1,24,-1
 1272.0625 1626 l 1,25,-1
 1289.875 12 l 1,0,-1
EndSplineSet
EndChar

StartChar: uni043A
Encoding: 1082 1082 165
Width: 1183
Flags: W
LayerCount: 2
Fore
SplineSet
27 1188 m 1,0,-1
 492 1225 l 1,1,-1
 483 801 l 1,2,-1
 487 801 l 1,3,-1
 682 1217 l 1,4,-1
 1135 1180 l 1,5,-1
 868 664 l 1,6,-1
 1176 190 l 1,7,-1
 750 -20 l 1,8,-1
 483 494 l 1,9,-1
 479 494 l 1,10,-1
 496 16 l 1,11,-1
 70 -20 l 1,12,-1
 27 1188 l 1,0,-1
EndSplineSet
EndChar

StartChar: uni0448
Encoding: 1096 1096 166
Width: 1824
Flags: W
LayerCount: 2
Fore
SplineSet
1762 20 m 5,0,-1
 1344 -17 l 5,1,-1
 1344 172 l 5,2,-1
 1340 172 l 5,3,4
 1274 84 1274 84 1191 33.5 c 132,-1,5
 1108 -17 1108 -17 992 -17 c 4,6,7
 896 -17 896 -17 831 13 c 132,-1,8
 766 43 766 43 713 106 c 5,9,10
 660 51 660 51 592.5 17 c 132,-1,11
 525 -17 525 -17 443 -17 c 4,12,13
 351 -17 351 -17 280 15 c 132,-1,14
 209 47 209 47 161 104.5 c 132,-1,15
 113 162 113 162 87.5 238.5 c 132,-1,16
 62 315 62 315 60 403 c 6,17,-1
 47 1183 l 5,18,-1
 492 1220 l 5,19,-1
 480 477 l 6,20,21
 480 438 480 438 508.5 413.5 c 132,-1,22
 537 389 537 389 584 389 c 4,23,24
 633 389 633 389 662 419.5 c 132,-1,25
 691 450 691 450 691 483 c 6,26,-1
 678 1183 l 5,27,-1
 1123 1220 l 5,28,-1
 1114 481 l 6,29,30
 1112 440 1112 440 1143 414.5 c 132,-1,31
 1174 389 1174 389 1223 389 c 4,32,33
 1262 390 1262 390 1296 414 c 4,34,35
 1327 437 1327 437 1327 476 c 4,36,37
 1327 480 1327 480 1327 483 c 6,38,-1
 1307 1222 l 5,39,-1
 1737 1186 l 5,40,-1
 1762 20 l 5,0,-1
EndSplineSet
EndChar

StartChar: uni0442
Encoding: 1090 1090 167
Width: 1824
Flags: W
LayerCount: 2
Fore
SplineSet
57 1186 m 1,0,-1
 475 1223 l 1,1,-1
 475 1034 l 1,2,-1
 479 1034 l 1,3,4
 545 1122 545 1122 628 1172.5 c 128,-1,5
 711 1223 711 1223 827 1223 c 0,6,7
 923 1223 923 1223 988 1193 c 128,-1,8
 1053 1163 1053 1163 1106 1100 c 1,9,10
 1159 1155 1159 1155 1226.5 1189 c 128,-1,11
 1294 1223 1294 1223 1376 1223 c 0,12,13
 1468 1223 1468 1223 1539 1191 c 128,-1,14
 1610 1159 1610 1159 1658 1101.5 c 128,-1,15
 1706 1044 1706 1044 1731.5 967.5 c 128,-1,16
 1757 891 1757 891 1759 803 c 2,17,-1
 1772 23 l 1,18,-1
 1327 -14 l 1,19,-1
 1339 729 l 2,20,21
 1339 768 1339 768 1310.5 792.5 c 128,-1,22
 1282 817 1282 817 1235 817 c 0,23,24
 1186 817 1186 817 1157 786.5 c 128,-1,25
 1128 756 1128 756 1128 723 c 2,26,-1
 1141 23 l 1,27,-1
 696 -14 l 1,28,-1
 705 725 l 2,29,30
 707 766 707 766 676 791.5 c 128,-1,31
 645 817 645 817 596 817 c 0,32,33
 557 816 557 816 523 792 c 0,34,35
 492 769 492 769 492 730 c 0,36,37
 492 726 492 726 492 723 c 2,38,-1
 512 -16 l 1,39,-1
 82 20 l 1,40,-1
 57 1186 l 1,0,-1
EndSplineSet
EndChar

StartChar: uni043E
Encoding: 1086 1086 168
Width: 1263
Flags: W
LayerCount: 2
Fore
SplineSet
-14 522 m 0,0,1
 -21 575 -21 575 -21 625 c 0,2,3
 -20 709 -20 709 0 785 c 0,4,5
 34 907 34 907 108 1001.5 c 128,-1,6
 182 1096 182 1096 294 1156.5 c 128,-1,7
 406 1217 406 1217 543 1235 c 0,8,9
 598 1242 598 1242 652 1242 c 0,10,11
 730 1242 730 1242 804 1226 c 0,12,13
 928 1200 928 1200 1026 1131.5 c 128,-1,14
 1124 1063 1124 1063 1190 954.5 c 128,-1,15
 1256 846 1256 846 1276 705 c 0,16,17
 1283 652 1283 652 1284 602 c 0,18,19
 1284 518 1284 518 1262 442 c 0,20,21
 1228 320 1228 320 1153.5 226.5 c 128,-1,22
 1079 133 1079 133 967.5 72.5 c 128,-1,23
 856 12 856 12 719 -6 c 0,24,25
 664 -13 664 -13 610 -13 c 0,26,27
 531 -14 531 -14 457 2 c 0,28,29
 332 28 332 28 233.5 97 c 128,-1,30
 135 166 135 166 69.5 273.5 c 128,-1,31
 4 381 4 381 -14 522 c 0,0,1
416 530 m 0,32,33
 450 450 450 450 526 426 c 0,34,35
 554 417 554 417 586 417 c 0,36,37
 638 417 638 417 698 442 c 0,38,39
 792 483 792 483 828 554 c 0,40,41
 847 591 847 591 847 631 c 0,42,43
 847 667 847 667 831 705 c 0,44,45
 796 782 796 782 720 808 c 0,46,47
 691 818 691 818 660 818 c 0,48,49
 609 818 609 818 551 793 c 0,50,51
 455 752 455 752 419 680 c 0,52,53
 400 642 400 642 401 603 c 0,54,55
 400 567 400 567 416 530 c 0,32,33
EndSplineSet
EndChar

StartChar: uni043C
Encoding: 1084 1084 169
Width: 1658
Flags: W
LayerCount: 2
Fore
SplineSet
1680 19 m 1,0,-1
 1221 -18 l 1,1,-1
 1101 555 l 1,2,-1
 1097 555 l 1,3,-1
 980 25 l 1,4,-1
 658 0 l 1,5,-1
 537 561 l 1,6,-1
 533 561 l 1,7,-1
 413 -18 l 1,8,-1
 -34 19 l 1,9,-1
 281 1200 l 1,10,-1
 705 1233 l 1,11,-1
 820 662 l 1,12,-1
 824 662 l 1,13,-1
 941 1200 l 1,14,-1
 1361 1235 l 1,15,-1
 1680 19 l 1,0,-1
EndSplineSet
EndChar

StartChar: uni043B
Encoding: 1083 1083 170
Width: 1050
Flags: W
LayerCount: 2
Fore
SplineSet
1093 35 m 1,0,-1
 653 0 l 1,1,-1
 536 809 l 1,2,-1
 532 809 l 1,3,-1
 397 0 l 1,4,-1
 -48 35 l 1,5,-1
 235 1217 l 1,6,-1
 825 1251 l 1,7,-1
 1093 35 l 1,0,-1
EndSplineSet
EndChar

StartChar: uni0438
Encoding: 1080 1080 171
Width: 1210
Flags: W
LayerCount: 2
Fore
SplineSet
61 330 m 2,0,-1
 61 1190 l 1,1,-1
 518 1227 l 1,2,-1
 506 469 l 2,3,4
 506 465 506 465 506 461 c 0,5,6
 506 418 506 418 528 398 c 0,7,8
 552 376 552 376 600 377 c 0,9,10
 640 378 640 378 666 398 c 0,11,12
 690 417 690 417 690 460 c 0,13,14
 690 463 690 463 690 467 c 2,15,-1
 678 1190 l 1,16,-1
 1149 1227 l 1,17,-1
 1118 8 l 1,18,-1
 741 -8 l 1,19,-1
 741 180 l 1,20,-1
 737 180 l 1,21,22
 696 67 696 67 609 20 c 128,-1,23
 522 -27 522 -27 406 -27 c 0,24,25
 252 -27 252 -27 156.5 64.5 c 128,-1,26
 61 156 61 156 61 330 c 2,0,-1
EndSplineSet
EndChar

StartChar: uni0439
Encoding: 1081 1081 172
Width: 1210
Flags: W
LayerCount: 2
Fore
SplineSet
207 1548 m 1,0,-1
 434 1325 l 1,1,-1
 750 1325 l 1,2,-1
 965 1563 l 1,3,-1
 719 1665 l 1,4,-1
 639 1491 l 1,5,-1
 537 1491 l 1,6,-1
 465 1665 l 1,7,-1
 207 1548 l 1,0,-1
61 330 m 2,8,-1
 61 1190 l 1,9,-1
 518 1227 l 1,10,-1
 506 469 l 2,11,12
 506 465 506 465 506 461 c 0,13,14
 506 418 506 418 528 398 c 0,15,16
 552 376 552 376 600 377 c 0,17,18
 640 378 640 378 666 398 c 0,19,20
 690 417 690 417 690 460 c 0,21,22
 690 463 690 463 690 467 c 2,23,-1
 678 1190 l 1,24,-1
 1149 1227 l 1,25,-1
 1118 8 l 1,26,-1
 741 -8 l 1,27,-1
 741 180 l 1,28,-1
 737 180 l 1,29,30
 696 67 696 67 609 20 c 128,-1,31
 522 -27 522 -27 406 -27 c 0,32,33
 252 -27 252 -27 156.5 64.5 c 128,-1,34
 61 156 61 156 61 330 c 2,8,-1
EndSplineSet
EndChar

StartChar: uni0443
Encoding: 1091 1091 173
Width: 1028
Flags: W
LayerCount: 2
Fore
SplineSet
-31 1149 m 1,0,-1
 416 1204 l 1,1,-1
 553 754 l 1,2,-1
 557 754 l 1,3,-1
 657 1204 l 1,4,-1
 1079 1167 l 1,5,-1
 641 -377 l 1,6,-1
 178 -340 l 1,7,-1
 354 141 l 1,8,-1
 -31 1149 l 1,0,-1
EndSplineSet
EndChar

StartChar: uni0445
Encoding: 1093 1093 174
Width: 1140
Flags: W
LayerCount: 2
Fore
SplineSet
-39 25 m 1,0,-1
 233 625 l 1,1,-1
 -20 1188 l 1,2,-1
 455 1225 l 1,3,-1
 563 881 l 1,4,-1
 567 881 l 1,5,-1
 662 1225 l 1,6,-1
 1135 1188 l 1,7,-1
 891 625 l 1,8,-1
 1176 25 l 1,9,-1
 684 -10 l 1,10,-1
 567 360 l 1,11,-1
 563 360 l 1,12,-1
 444 -10 l 1,13,-1
 -39 25 l 1,0,-1
EndSplineSet
EndChar

StartChar: uni0413
Encoding: 1043 1043 175
Width: 1146
Flags: W
LayerCount: 2
Fore
SplineSet
82 47 m 5,0,-1
 698 -39 l 5,1,-1
 645 1114 l 5,2,-1
 1147 1010 l 5,3,-1
 1171 1586 l 5,4,-1
 96 1694 l 5,5,-1
 82 47 l 5,0,-1
EndSplineSet
EndChar

StartChar: uni0433
Encoding: 1075 1075 176
Width: 913
Flags: W
LayerCount: 2
Fore
SplineSet
906 864 m 4,0,1
 906 932 906 932 879 997.5 c 132,-1,2
 852 1063 852 1063 793 1116 c 132,-1,3
 734 1169 734 1169 639.5 1202 c 132,-1,4
 545 1235 545 1235 412 1235 c 4,5,6
 361 1235 361 1235 309.5 1231 c 132,-1,7
 258 1227 258 1227 212 1219.5 c 132,-1,8
 166 1212 166 1212 127 1205 c 132,-1,9
 88 1198 88 1198 62 1192 c 5,10,-1
 62 831 l 5,11,12
 113 843 113 843 162 851.5 c 132,-1,13
 211 860 211 860 269 860 c 4,14,15
 281 860 281 860 307.5 859 c 132,-1,16
 334 858 334 858 360.5 853 c 132,-1,17
 387 848 387 848 407.5 835.5 c 132,-1,18
 428 823 428 823 428 803 c 4,19,20
 428 770 428 770 395.5 753.5 c 132,-1,21
 363 737 363 737 315 723 c 132,-1,22
 267 709 267 709 209.5 688.5 c 132,-1,23
 152 668 152 668 104 630 c 132,-1,24
 56 592 56 592 23 528.5 c 132,-1,25
 -10 465 -10 465 -10 362 c 4,26,27
 -10 251 -10 251 38 177.5 c 132,-1,28
 86 104 86 104 165 60 c 132,-1,29
 244 16 244 16 346.5 -2 c 132,-1,30
 449 -20 449 -20 559 -20 c 4,31,32
 645 -20 645 -20 728 -10 c 132,-1,33
 811 0 811 0 895 23 c 5,34,-1
 895 406 l 5,35,36
 840 390 840 390 783.5 379.5 c 132,-1,37
 727 369 727 369 662 369 c 4,38,39
 633 369 633 369 601.5 370 c 132,-1,40
 570 371 570 371 544 376 c 132,-1,41
 518 381 518 381 501 393.5 c 132,-1,42
 484 406 484 406 484 430 c 4,43,44
 484 461 484 461 515.5 476.5 c 132,-1,45
 547 492 547 492 593 506 c 132,-1,46
 639 520 639 520 694.5 539.5 c 132,-1,47
 750 559 750 559 796 597 c 132,-1,48
 842 635 842 635 874 698.5 c 132,-1,49
 906 762 906 762 906 864 c 4,0,1
EndSplineSet
EndChar

StartChar: uni0417
Encoding: 1047 1047 177
Width: 1306
Flags: W
LayerCount: 2
Fore
SplineSet
-10 244 m 1,0,-1
 291 674 l 1,1,2
 438 568 438 568 530.5 534 c 128,-1,3
 623 500 623 500 674 503 c 128,-1,4
 725 506 725 506 744 526 c 2,5,-1
 762 545 l 2,6,7
 762 547 762 547 770 568.5 c 128,-1,8
 778 590 778 590 774 622.5 c 128,-1,9
 770 655 770 655 740.5 684 c 128,-1,10
 711 713 711 713 637 728 c 128,-1,11
 563 743 563 743 432 731 c 1,12,-1
 455 1081 l 1,13,14
 594 1069 594 1069 652.5 1088.5 c 128,-1,15
 711 1108 711 1108 724 1137.5 c 128,-1,16
 737 1167 737 1167 725 1193 c 2,17,-1
 713 1219 l 1,18,-1
 692 1240 l 2,19,20
 670 1260 670 1260 617.5 1265 c 128,-1,21
 565 1270 565 1270 476 1244.5 c 128,-1,22
 387 1219 387 1219 254 1126 c 1,23,-1
 53 1499 l 1,24,25
 254 1640 254 1640 426 1688.5 c 128,-1,26
 598 1737 598 1737 727 1727.5 c 128,-1,27
 856 1718 856 1718 949 1678 c 128,-1,28
 1042 1638 1042 1638 1086 1602.5 c 128,-1,29
 1130 1567 1130 1567 1135 1563 c 0,30,31
 1137 1561 1137 1561 1165.5 1525 c 128,-1,32
 1194 1489 1194 1489 1223.5 1423.5 c 128,-1,33
 1253 1358 1253 1358 1256.5 1278 c 128,-1,34
 1260 1198 1260 1198 1209.5 1108 c 128,-1,35
 1159 1018 1159 1018 1028 934 c 1,36,37
 1163 854 1163 854 1224.5 754.5 c 128,-1,38
 1286 655 1286 655 1298.5 560 c 128,-1,39
 1311 465 1311 465 1294.5 381 c 128,-1,40
 1278 297 1278 297 1257.5 251 c 128,-1,41
 1237 205 1237 205 1235 201 c 2,42,43
 1235 201 1235 201 1208 161 c 0,44,45
 1180 121 1180 121 1119.5 73 c 128,-1,46
 1059 25 1059 25 961.5 -13 c 128,-1,47
 864 -51 864 -51 726 -46 c 128,-1,48
 588 -41 588 -41 404.5 23.5 c 128,-1,49
 221 88 221 88 -10 244 c 1,0,-1
EndSplineSet
EndChar

StartChar: uni0419
Encoding: 1049 1049 178
Width: 1560
Flags: W
LayerCount: 2
Fore
SplineSet
515 1774 m 1,0,-1
 534 2009 l 1,1,-1
 1183 2038 l 1,2,-1
 1162 1764 l 1,3,-1
 515 1774 l 1,0,-1
1528 -37 m 1,4,-1
 1502 1667 l 1,5,-1
 719 1018 l 1,6,-1
 701 1696 l 1,7,-1
 90 1655 l 1,8,-1
 185 92 l 1,9,-1
 969 483 l 1,10,-1
 940 0 l 1,11,-1
 1528 -37 l 1,4,-1
EndSplineSet
EndChar

StartChar: uni0449
Encoding: 1097 1097 179
Width: 2148
Flags: W
LayerCount: 2
Fore
SplineSet
1753.48415526 19.2462051304 m 1,0,-1
 1344 -17 l 1,1,-1
 1344 172 l 1,2,-1
 1340 172 l 1,3,4
 1274 84 1274 84 1191 33.5 c 128,-1,5
 1108 -17 1108 -17 992 -17 c 0,6,7
 896 -17 896 -17 831 13 c 128,-1,8
 766 43 766 43 713 106 c 1,9,10
 660 51 660 51 592.5 17 c 128,-1,11
 525 -17 525 -17 443 -17 c 0,12,13
 351 -17 351 -17 280 15 c 128,-1,14
 209 47 209 47 161 104.5 c 128,-1,15
 113 162 113 162 87.5 238.5 c 128,-1,16
 62 315 62 315 60 403 c 2,17,-1
 47 1183 l 1,18,-1
 492 1220 l 1,19,-1
 480 477 l 2,20,21
 480 438 480 438 508.5 413.5 c 128,-1,22
 537 389 537 389 584 389 c 0,23,24
 633 389 633 389 662 419.5 c 128,-1,25
 691 450 691 450 691 483 c 2,26,-1
 678 1183 l 1,27,-1
 1123 1220 l 1,28,-1
 1114 481 l 2,29,30
 1112 440 1112 440 1143 414.5 c 128,-1,31
 1174 389 1174 389 1223 389 c 0,32,33
 1262 390 1262 390 1296 414 c 0,34,35
 1327 437 1327 437 1327 476 c 0,36,37
 1327 480 1327 480 1327 483 c 2,38,-1
 1307 1222 l 1,39,-1
 1737 1186 l 1,40,-1
 1753.33720059 424.03296462 l 1,41,-1
 2244 472 l 1,42,-1
 1937 -386 l 1,43,-1
 1754 -412 l 1,44,-1
 1753.48415526 19.2462051304 l 1,0,-1
EndSplineSet
EndChar

StartChar: uni044C
Encoding: 1100 1100 180
Width: 1028
Flags: W
LayerCount: 2
Fore
SplineSet
7.240234375 1205.23046875 m 1,0,-1
 413.870117188 1235.16015625 l 1,1,-1
 400 846.0703125 l 1,2,3
 446 872 446 872 489.790039062 889.504882812 c 0,4,5
 534 907 534 907 602.209960938 907.389648438 c 0,6,7
 692 907 692 907 766.459960938 868.700195312 c 0,8,9
 841 830 841 830 896.400390625 766.5 c 128,-1,10
 952 703 952 703 982.540039062 621.959960938 c 128,-1,11
 1013 541 1013 541 1013.20019531 457.709960938 c 0,12,13
 1013 345 1013 345 974.875 258.78515625 c 0,14,15
 937 172 937 172 873.76953125 113.150390625 c 0,16,17
 811 54 811 54 728.134765625 23.3603515625 c 0,18,19
 645 -7 645 -7 555.490234375 -7.2998046875 c 0,20,21
 487 -7 487 -7 426.280273438 16.4248046875 c 0,22,23
 366 40 366 40 313.129882812 67.16015625 c 1,24,-1
 313.129882812 2.919921875 l 1,25,-1
 16 0 l 1,26,-1
 7.240234375 1205.23046875 l 1,0,-1
375.1796875 443.83984375 m 0,27,28
 372.990234375 432.889648438 372.990234375 432.889648438 372.990234375 422.669921875 c 0,29,30
 372.990234375 406.610351562 372.990234375 406.610351562 377.370117188 390.549804688 c 0,31,32
 384.669921875 363.540039062 384.669921875 363.540039062 402.919921875 343.099609375 c 128,-1,33
 421.169921875 322.66015625 421.169921875 322.66015625 447.450195312 310.98046875 c 128,-1,34
 473.73046875 299.299804688 473.73046875 299.299804688 506.580078125 297.110351562 c 0,35,36
 512.419921875 296.379882812 512.419921875 296.379882812 518.259765625 296.379882812 c 0,37,38
 546 296.379882812 546 296.379882812 575.200195312 305.139648438 c 0,39,40
 610.969726562 315.360351562 610.969726562 315.360351562 636.51953125 333.974609375 c 128,-1,41
 662.0703125 352.58984375 662.0703125 352.58984375 677.764648438 376.6796875 c 128,-1,42
 693.459960938 400.76953125 693.459960938 400.76953125 697.83984375 427.780273438 c 0,43,44
 699.299804688 438 699.299804688 438 699.299804688 448.219726562 c 0,45,46
 699.299804688 465.009765625 699.299804688 465.009765625 694.919921875 481.0703125 c 0,47,48
 687.620117188 508.080078125 687.620117188 508.080078125 669.370117188 528.51953125 c 128,-1,49
 651.120117188 548.959960938 651.120117188 548.959960938 625.205078125 561.370117188 c 128,-1,50
 599.290039062 573.780273438 599.290039062 573.780273438 567.169921875 576.700195312 c 0,51,52
 561.330078125 577.4296875 561.330078125 577.4296875 554.759765625 576.700195312 c 0,53,54
 527.75 576.700195312 527.75 576.700195312 498.549804688 567.940429688 c 0,55,56
 462.780273438 557.719726562 462.780273438 557.719726562 436.865234375 538.375 c 128,-1,57
 410.950195312 519.030273438 410.950195312 519.030273438 395.254882812 494.940429688 c 128,-1,58
 379.559570312 470.849609375 379.559570312 470.849609375 375.1796875 443.83984375 c 0,27,28
EndSplineSet
EndChar

StartChar: uni0431
Encoding: 1073 1073 181
Width: 1148
Flags: W
LayerCount: 2
Fore
SplineSet
-34 595 m 128,-1,1
 -31 735 -31 735 36.5 908 c 128,-1,2
 104 1081 104 1081 260 1293 c 128,-1,3
 416 1505 416 1505 686 1749 c 1,4,-1
 999 1446 l 1,5,6
 919 1383 919 1383 850.5 1316 c 128,-1,7
 782 1249 782 1249 732 1194 c 128,-1,8
 682 1139 682 1139 654 1104 c 2,9,-1
 625 1069 l 1,10,11
 691 1104 691 1104 753 1105 c 128,-1,12
 815 1106 815 1106 866.5 1088.5 c 128,-1,13
 918 1071 918 1071 958.5 1044.5 c 128,-1,14
 999 1018 999 1018 1019.5 998.5 c 128,-1,15
 1040 979 1040 979 1042 977 c 0,16,17
 1167 842 1167 842 1183.5 700.5 c 128,-1,18
 1200 559 1200 559 1142.5 431 c 128,-1,19
 1085 303 1085 303 972.5 199.5 c 128,-1,20
 860 96 860 96 726 36.5 c 128,-1,21
 592 -23 592 -23 454.5 -26 c 128,-1,22
 317 -29 317 -29 213 43 c 0,23,24
 211 45 211 45 173 78 c 128,-1,25
 135 111 135 111 85 180.5 c 128,-1,26
 35 250 35 250 -1 352.5 c 128,-1,0
 -37 455 -37 455 -34 595 c 128,-1,1
416 479 m 0,27,28
 441 420 441 420 506 407.5 c 128,-1,29
 571 395 571 395 641 434 c 0,30,31
 709 475 709 475 738.5 542.5 c 128,-1,32
 768 610 768 610 743 670 c 0,33,34
 718 729 718 729 652 741.5 c 128,-1,35
 586 754 586 754 518 715 c 0,36,37
 450 674 450 674 420.5 606.5 c 128,-1,38
 391 539 391 539 416 479 c 0,27,28
EndSplineSet
EndChar

StartChar: uni0434
Encoding: 1076 1076 182
Width: 1212
Flags: W
LayerCount: 2
Fore
SplineSet
-18 750 m 0,0,1
 -18 834 -18 834 13.5 923 c 128,-1,2
 45 1012 45 1012 112.5 1085.5 c 128,-1,3
 180 1159 180 1159 284.5 1206 c 128,-1,4
 389 1253 389 1253 535 1253 c 0,5,6
 609 1253 609 1253 664 1243 c 128,-1,7
 719 1233 719 1233 768 1217 c 1,8,-1
 803 1432 l 1,9,-1
 1130 1290 l 1,10,-1
 1024 1081 l 1,11,12
 1090 1018 1090 1018 1123.5 935 c 128,-1,13
 1157 852 1157 852 1157 758 c 0,14,15
 1157 629 1157 629 1105 537.5 c 128,-1,16
 1053 446 1053 446 950 379 c 5,17,18
 1151 266 1151 266 1151 39 c 0,19,20
 1151 -70 1151 -70 1104 -155 c 128,-1,21
 1057 -240 1057 -240 970 -297 c 128,-1,22
 883 -354 883 -354 761 -384 c 128,-1,23
 639 -414 639 -414 489 -414 c 0,24,25
 309 -414 309 -414 190.5 -383 c 128,-1,26
 72 -352 72 -352 -2 -328 c 1,27,-1
 197 33 l 1,28,29
 269 8 269 8 341.5 -8.5 c 128,-1,30
 414 -25 414 -25 492 -25 c 0,31,32
 525 -25 525 -25 557.5 -20.5 c 128,-1,33
 590 -16 590 -16 616.5 -3 c 128,-1,34
 643 10 643 10 659.5 33.5 c 128,-1,35
 676 57 676 57 676 96 c 256,36,37
 676 135 676 135 656.5 160.5 c 128,-1,38
 637 186 637 186 603 201.5 c 128,-1,39
 569 217 569 217 526 222 c 128,-1,40
 483 227 483 227 438 227 c 0,41,42
 385 227 385 227 329.5 212 c 128,-1,43
 274 197 274 197 227 172 c 1,44,-1
 266 295 l 1,45,46
 131 361 131 361 56.5 474.5 c 128,-1,47
 -18 588 -18 588 -18 750 c 0,0,1
412 696 m 0,48,49
 422 643 422 643 472 618 c 0,50,51
 503 602 503 602 541 602 c 0,52,53
 565 602 565 602 592 608 c 0,54,55
 662 622 662 622 696 666 c 0,56,57
 723 699 723 699 723 739 c 0,58,59
 723 750 723 750 721 762 c 0,60,61
 709 815 709 815 658 840 c 0,62,63
 626 855 626 855 588 855 c 0,64,65
 565 855 565 855 541 850 c 0,66,67
 471 834 471 834 436 791 c 0,68,69
 409 758 409 758 409 720 c 0,70,71
 409 708 409 708 412 696 c 0,48,49
EndSplineSet
EndChar

StartChar: uni041F
Encoding: 1055 1055 183
Width: 1476
Flags: W
LayerCount: 2
Fore
SplineSet
27 1612 m 16,0,-1
 104 -16 l 1,1,-1
 614 -6 l 1,2,-1
 627 1090 l 1,3,-1
 892 1100 l 1,4,-1
 823 45 l 1,5,-1
 1298 102 l 1,6,-1
 1464 1683 l 1,7,-1
 27 1612 l 16,0,-1
EndSplineSet
EndChar

StartChar: uni043D
Encoding: 1085 1085 184
Width: 1151
Flags: W
LayerCount: 2
Fore
SplineSet
48.1201171875 1152.45996094 m 1,0,-1
 478.6796875 1196.91992188 l 1,1,-1
 449.16015625 716.040039062 l 1,2,-1
 667.3203125 733.200195312 l 1,3,-1
 663 1186 l 1,4,-1
 1082.75976562 1207.83984375 l 1,5,-1
 985.559570312 79.5595703125 l 1,6,-1
 643.559570312 35.099609375 l 1,7,-1
 663 386.879882812 l 1,8,-1
 508.200195312 362.700195312 l 1,9,-1
 493.080078125 -4.6796875 l 1,10,-1
 125.879882812 -12.48046875 l 1,11,-1
 48.1201171875 1152.45996094 l 1,0,-1
EndSplineSet
EndChar

StartChar: uni043F
Encoding: 1087 1087 185
Width: 1081
Flags: W
LayerCount: 2
Fore
SplineSet
52.025390625 1103.25 m 16,0,-1
 104 -16 l 1,1,-1
 448.25 -9.125 l 1,2,-1
 457.025390625 744.375 l 1,3,-1
 635.900390625 751.25 l 1,4,-1
 589.325195312 25.9375 l 1,5,-1
 909.950195312 65.125 l 1,6,-1
 1022 1152.0625 l 1,7,-1
 52.025390625 1103.25 l 16,0,-1
EndSplineSet
EndChar

StartChar: uni0436
Encoding: 1078 1078 186
Width: 1679
Flags: W
LayerCount: 2
Fore
SplineSet
599 -21 m 1,0,-1
 616 457 l 1,1,-1
 612 457 l 1,2,-1
 345 -57 l 1,3,-1
 -81 153 l 1,4,-1
 227 627 l 1,5,-1
 -40 1143 l 1,6,-1
 413 1180 l 1,7,-1
 608 764 l 1,8,-1
 612 764 l 1,9,-1
 603 1188 l 1,10,-1
 1069 1190 l 0,11,12
 1064 996 1064 996 1058.94726562 801 c 0,13,-1
 1063 801 l 1,14,-1
 1258 1217 l 1,15,-1
 1711 1180 l 1,16,-1
 1444 664 l 1,17,-1
 1752 190 l 1,18,-1
 1326 -20 l 1,19,-1
 1059 494 l 1,20,-1
 1055 494 l 1,21,-1
 1072 16 l 1,22,-1
 599 -21 l 1,0,-1
EndSplineSet
EndChar

StartChar: uni0446
Encoding: 1094 1094 187
Width: 1510
Flags: W
LayerCount: 2
Fore
SplineSet
61 330 m 2,0,-1
 61 1190 l 1,1,-1
 518 1227 l 1,2,-1
 506 469 l 2,3,4
 506 465 506 465 506 461 c 0,5,6
 506 418 506 418 528 398 c 0,7,8
 552 376 552 376 600 377 c 0,9,10
 640 378 640 378 666 398 c 0,11,12
 690 417 690 417 690 460 c 0,13,14
 690 463 690 463 690 467 c 2,15,-1
 678 1190 l 1,16,-1
 1149 1227 l 1,17,-1
 1128.3469544 414.868948699 l 1,18,-1
 1590 460 l 1,19,-1
 1283 -398 l 1,20,-1
 1100 -424 l 1,21,-1
 1099.48419356 7.21418328109 l 1,22,-1
 741 -8 l 1,23,-1
 741 180 l 1,24,-1
 737 180 l 1,25,26
 696 67 696 67 609 20 c 128,-1,27
 522 -27 522 -27 406 -27 c 0,28,29
 252 -27 252 -27 156.5 64.5 c 128,-1,30
 61 156 61 156 61 330 c 2,0,-1
EndSplineSet
EndChar

StartChar: uni0426
Encoding: 1062 1062 188
Width: 1476
Flags: W
LayerCount: 2
Fore
SplineSet
1966 486 m 1,0,-1
 1703 -358 l 1,1,-1
 1476 -398 l 1,2,-1
 1476 0 l 0,3,-1
 44 -31 l 1,4,-1
 125 1568 l 5,5,-1
 685 1607 l 1,6,-1
 574 396 l 1,7,-1
 988 432 l 1,8,-1
 934 1616 l 1,9,-1
 1444 1626 l 1,10,-1
 1475 438 l 0,11,-1
 1966 486 l 1,0,-1
EndSplineSet
EndChar

StartChar: uni0428
Encoding: 1064 1064 189
Width: 2184
Flags: W
LayerCount: 2
Fore
SplineSet
44 -87 m 1,0,-1
 171 1533 l 1,1,-1
 646 1590 l 1,2,-1
 502 432 l 1,3,-1
 883.672651165 420.256226118 l 1,4,-1
 894 1602 l 1,5,-1
 1404 1612 l 1,6,-1
 1265.2693188 422.458201635 l 1,7,-1
 1674 458 l 1,8,-1
 1612 1616 l 1,9,-1
 2122 1626 l 1,10,-1
 2162 26 l 1,11,-1
 44 -87 l 1,0,-1
EndSplineSet
EndChar

StartChar: uni0429
Encoding: 1065 1065 190
Width: 2490
Flags: W
LayerCount: 2
Fore
SplineSet
44 -87 m 1,0,-1
 171 1533 l 1,1,-1
 646 1590 l 1,2,-1
 502 432 l 1,3,-1
 883.672651165 420.256226118 l 1,4,-1
 894 1602 l 1,5,-1
 1404 1612 l 1,6,-1
 1265.2693188 422.458201635 l 1,7,-1
 1674 458 l 1,8,-1
 1612 1616 l 1,9,-1
 2122 1626 l 1,10,-1
 2161 464 l 5,11,-1
 2652 512 l 5,12,-1
 2345 -346 l 5,13,-1
 2162 -372 l 5,14,-1
 2162 26 l 5,15,-1
 44 -87 l 1,0,-1
EndSplineSet
EndChar

StartChar: uni0437
Encoding: 1079 1079 191
Width: 943
Flags: W
LayerCount: 2
Fore
SplineSet
-8.3837890625 178.969726562 m 1,0,-1
 211.797851562 476.959960938 l 1,1,2
 319.329101562 403.501953125 319.329101562 403.501953125 386.993164062 379.940429688 c 128,-1,3
 454.65625 356.377929688 454.65625 356.377929688 491.962890625 358.45703125 c 128,-1,4
 529.26953125 360.536132812 529.26953125 360.536132812 543.16796875 374.395507812 c 2,5,-1
 556.333984375 387.5625 l 2,6,7
 556.333984375 388.948242188 556.333984375 388.948242188 562.186523438 403.848632812 c 128,-1,8
 568.0390625 418.748046875 568.0390625 418.748046875 565.11328125 441.270507812 c 128,-1,9
 562.186523438 463.79296875 562.186523438 463.79296875 540.607421875 483.890625 c 128,-1,10
 519.028320312 503.987304688 519.028320312 503.987304688 464.896484375 514.3828125 c 128,-1,11
 410.766601562 524.77734375 410.766601562 524.77734375 314.939453125 516.4609375 c 1,12,-1
 331.763671875 759.010742188 l 1,13,14
 433.443359375 750.6953125 433.443359375 750.6953125 476.235351562 764.208007812 c 128,-1,15
 519.028320312 777.72265625 519.028320312 777.72265625 528.538085938 798.165039062 c 128,-1,16
 538.046875 818.608398438 538.046875 818.608398438 529.26953125 836.626953125 c 2,17,-1
 520.491210938 854.645507812 l 1,18,-1
 505.12890625 869.198242188 l 2,19,20
 489.037109375 883.057617188 489.037109375 883.057617188 450.6328125 886.522460938 c 128,-1,21
 412.229492188 889.98828125 412.229492188 889.98828125 347.125 872.31640625 c 128,-1,22
 282.021484375 854.645507812 282.021484375 854.645507812 184.732421875 790.1953125 c 1,23,-1
 37.701171875 1048.68554688 l 1,24,25
 184.732421875 1146.39746094 184.732421875 1146.39746094 310.55078125 1180.0078125 c 128,-1,26
 436.369140625 1213.61816406 436.369140625 1213.61816406 530.731445312 1207.03515625 c 128,-1,27
 625.095703125 1200.45214844 625.095703125 1200.45214844 693.125 1172.73242188 c 128,-1,28
 761.154296875 1145.01269531 761.154296875 1145.01269531 793.340820312 1120.41015625 c 128,-1,29
 825.526367188 1095.80859375 825.526367188 1095.80859375 829.184570312 1093.03710938 c 0,30,31
 830.646484375 1091.65039062 830.646484375 1091.65039062 851.495117188 1066.703125 c 128,-1,32
 872.342773438 1041.75488281 872.342773438 1041.75488281 893.921875 996.36328125 c 128,-1,33
 915.501953125 950.97265625 915.501953125 950.97265625 918.061523438 895.532226562 c 128,-1,34
 920.622070312 840.092773438 920.622070312 840.092773438 883.680664062 777.72265625 c 128,-1,35
 846.740234375 715.352539062 846.740234375 715.352539062 750.9140625 657.140625 c 1,36,37
 849.666992188 601.700195312 849.666992188 601.700195312 894.653320312 532.74609375 c 128,-1,38
 939.640625 463.79296875 939.640625 463.79296875 948.784179688 397.958007812 c 128,-1,39
 957.927734375 332.123046875 957.927734375 332.123046875 945.857421875 273.911132812 c 128,-1,40
 933.7890625 215.698242188 933.7890625 215.698242188 918.79296875 183.8203125 c 128,-1,41
 903.796875 151.943359375 903.796875 151.943359375 902.333984375 149.170898438 c 2,42,43
 902.333984375 149.170898438 902.333984375 149.170898438 882.583984375 121.450195312 c 0,44,45
 862.1015625 93.73046875 862.1015625 93.73046875 817.845703125 60.4677734375 c 128,-1,46
 773.590820312 27.203125 773.590820312 27.203125 702.26953125 0.8681640625 c 128,-1,47
 630.948242188 -25.46484375 630.948242188 -25.46484375 530 -22 c 128,-1,48
 429.053710938 -18.53515625 429.053710938 -18.53515625 294.823242188 26.1630859375 c 128,-1,49
 160.592773438 70.8623046875 160.592773438 70.8623046875 -8.3837890625 178.969726562 c 1,0,-1
EndSplineSet
EndChar

StartChar: uni042D
Encoding: 1069 1069 192
Width: 1531
Flags: W
LayerCount: 2
Fore
SplineSet
1062 1069 m 1,0,-1
 638 869 l 1,1,-1
 686 693 l 1,2,-1
 1102 717 l 1,3,-1
 1062 1069 l 1,0,-1
1592 630 m 0,4,5
 1596 672 1596 672 1597 714 c 0,6,7
 1597 824 1597 824 1569 934 c 0,8,9
 1531 1086 1531 1086 1462.5 1219 c 128,-1,10
 1394 1352 1394 1352 1301 1458.5 c 128,-1,11
 1208 1565 1208 1565 1111 1628 c 1,12,13
 1111 1628 1111 1628 1070 1650 c 0,14,15
 1029 1673 1029 1673 957.5 1694.5 c 128,-1,16
 886 1716 886 1716 789 1726 c 0,17,18
 764 1728 764 1728 739 1728 c 0,19,20
 663 1728 663 1728 578 1707 c 0,21,22
 464 1679 464 1679 340.5 1603 c 128,-1,23
 217 1527 217 1527 94 1380 c 1,24,-1
 452 940 l 1,25,26
 564 1058 564 1058 646 1090 c 0,27,28
 700 1111 700 1111 743 1111 c 0,29,30
 766 1110 766 1110 788 1104 c 0,31,32
 848 1086 848 1086 889.5 1032.5 c 128,-1,33
 931 979 931 979 955.5 922.5 c 128,-1,34
 980 866 980 866 990 821 c 2,35,-1
 1001 776 l 2,36,37
 1001 772 1001 772 991.5 723 c 128,-1,38
 982 674 982 674 948 614 c 0,39,40
 914 552 914 552 852 524 c 0,41,42
 825 512 825 512 789 512 c 0,43,44
 742 512 742 512 682 532 c 0,45,46
 574 568 574 568 417 715 c 1,47,-1
 18 289 l 1,48,49
 49 230 49 230 124.5 168 c 128,-1,50
 200 106 200 106 304.5 55 c 128,-1,51
 409 4 409 4 534 -30 c 0,52,53
 659 -62 659 -62 789 -68 c 0,54,55
 808 -69 808 -69 826 -69 c 0,56,57
 937 -69 937 -69 1045 -41 c 0,58,59
 1171 -8 1171 -8 1277 74 c 0,60,61
 1431 193 1431 193 1504.5 335.5 c 128,-1,62
 1578 478 1578 478 1592 630 c 0,4,5
EndSplineSet
EndChar

StartChar: uni042A
Encoding: 1066 1066 193
Width: 1454
Flags: W
LayerCount: 2
Fore
SplineSet
687 840 m 1,0,1
 761 824 761 824 815 793 c 128,-1,2
 869 762 869 762 906 727 c 128,-1,3
 943 692 943 692 963.5 660.5 c 128,-1,4
 984 629 984 629 988 611 c 0,5,6
 988 609 988 609 990 589 c 0,7,8
 990 585 990 585 990 580 c 0,9,10
 990 562 990 562 984 539 c 0,11,12
 976 511 976 511 950 491 c 0,13,14
 925 472 925 472 870 472 c 0,15,16
 866 472 866 472 864 472 c 0,17,18
 806 473 806 473 708 512 c 1,19,-1
 687 840 l 1,0,1
206 53 m 1,20,21
 652 2 652 2 685 -1 c 2,22,-1
 955 -26 l 2,23,24
 1009 -31 1009 -31 1054 -31 c 0,25,26
 1167 -31 1167 -31 1247 -3 c 0,27,28
 1367 39 1367 39 1437.5 121 c 128,-1,29
 1508 203 1508 203 1533 317 c 0,30,31
 1547 379 1547 379 1546 444 c 0,32,33
 1546 504 1546 504 1538 554 c 0,34,35
 1518 678 1518 678 1456 804 c 128,-1,36
 1394 930 1394 930 1292.5 1037.5 c 128,-1,37
 1191 1145 1191 1145 1053 1224 c 128,-1,38
 915 1303 915 1303 742 1336 c 1,39,-1
 734 1704 l 1,40,-1
 -82 1624 l 1,41,-1
 -66 1344 l 1,42,-1
 222 1304 l 1,43,-1
 206 53 l 1,20,21
EndSplineSet
EndChar

StartChar: uni042B
Encoding: 1067 1067 194
Width: 2158
Flags: W
LayerCount: 2
Fore
SplineSet
2094 0 m 1,0,-1
 2074 1647 l 1,1,-1
 1472 1718 l 1,2,-1
 1542 -48 l 1,3,-1
 2094 0 l 1,0,-1
70 53 m 1,4,5
 459 8 459 8 549 -1 c 2,6,-1
 819 -26 l 2,7,8
 871 -31 871 -31 918 -31 c 0,9,10
 1027 -31 1027 -31 1111 -3 c 0,11,12
 1231 39 1231 39 1301.5 121 c 128,-1,13
 1372 203 1372 203 1397 317 c 0,14,15
 1411 379 1411 379 1410 444 c 0,16,17
 1410 498 1410 498 1402 554 c 0,18,19
 1382 678 1382 678 1320 804 c 128,-1,20
 1258 930 1258 930 1156.5 1037.5 c 128,-1,21
 1055 1145 1055 1145 917 1224 c 128,-1,22
 779 1303 779 1303 606 1336 c 1,23,-1
 598 1704 l 1,24,-1
 103 1653 l 1,25,-1
 70 53 l 1,4,5
551 840 m 1,26,27
 625 824 625 824 679 793 c 128,-1,28
 733 762 733 762 770 727 c 128,-1,29
 807 692 807 692 827.5 660.5 c 128,-1,30
 848 629 848 629 852 611 c 0,31,32
 852 609 852 609 854 589 c 0,33,34
 854 585 854 585 854 580 c 0,35,36
 854 562 854 562 848 539 c 0,37,38
 840 511 840 511 814 491 c 0,39,40
 789 472 789 472 734 472 c 0,41,42
 730 472 730 472 728 472 c 0,43,44
 670 473 670 473 572 512 c 1,45,-1
 551 840 l 1,26,27
EndSplineSet
EndChar

StartChar: uni0411
Encoding: 1041 1041 195
Width: 1411
Flags: W
LayerCount: 2
Fore
SplineSet
602 997 m 0,0,-1
 868 1008 l 24,1,-1
 1133 977 l 8,2,3
 1305 887 1305 887 1377.5 783.5 c 128,-1,4
 1450 680 1450 680 1457 580 c 0,5,6
 1458 564 1458 564 1458 548 c 0,7,8
 1458 464 1458 464 1426 387 c 0,9,10
 1388 295 1388 295 1338 225.5 c 128,-1,11
 1288 156 1288 156 1246 114 c 2,12,-1
 1204 72 l 2,13,14
 1202 70 1202 70 1176.5 54.5 c 128,-1,15
 1151 39 1151 39 1076 18 c 0,16,17
 1000 -4 1000 -4 876 -18 c 0,18,19
 760 -32 760 -32 578 -32 c 0,20,21
 565 -32 565 -32 553 -32 c 0,22,23
 354 -31 354 -31 80 0 c 1,24,-1
 66 1599 l 0,25,26
 692 1616 692 1616 1318 1632 c 1,27,-1
 1246 1304 l 1,28,-1
 610 1212 l 1,29,-1
 602 997 l 0,0,-1
582 635 m 1,30,-1
 608 420 l 1,31,32
 645 417 645 417 677 417 c 0,33,34
 742 416 742 416 784 430 c 0,35,36
 846 450 846 450 873.5 480 c 128,-1,37
 901 510 901 510 904 524 c 2,38,-1
 911 563 l 2,39,40
 911 565 911 565 908 585.5 c 128,-1,41
 905 606 905 606 889.5 634 c 128,-1,42
 874 662 874 662 840 678 c 0,43,44
 815 690 815 690 775 690 c 0,45,46
 760 690 760 690 742 688 c 0,47,48
 680 682 680 682 582 635 c 1,30,-1
  Spiro
    582 635 v
    608 420 v
    643.75 417.75 o
    677 417 o
    736.25 419.75 o
    784 430 o
    837.375 452.5 o
    873.5 480 o
    894.875 506 o
    904 524 [
    911 563 ]
    910.25 569.625 o
    908 585.5 o
    901.875 607.875 o
    889.5 634 o
    869.375 659 o
    840 678 o
    811.25 687 o
    775 690 o
    759.25 689.5 o
    742 688 o
    671 671.75 o
    0 0 z
  EndSpiro
EndSplineSet
EndChar

StartChar: uni0416
Encoding: 1046 1046 196
Width: 1867
Flags: W
LayerCount: 2
Fore
SplineSet
1229 1683 m 1,0,-1
 1227.171875 1320.14746094 l 1,1,-1
 1552 1769 l 1,2,-1
 1954 1296 l 1,3,-1
 1382 766 l 1,4,-1
 1886 342 l 1,5,-1
 1599 -88 l 1,6,-1
 1206.38867188 282.854492188 l 1,7,-1
 1200 -36 l 1,8,-1
 661 -35 l 1,9,-1
 654.650390625 281.891601562 l 1,10,-1
 262 -89 l 1,11,-1
 -25 341 l 1,12,-1
 479 765 l 1,13,-1
 -93 1295 l 1,14,-1
 309 1768 l 1,15,-1
 633.869140625 1319.08984375 l 1,16,-1
 632 1682 l 1,17,-1
 1229 1683 l 1,0,-1
EndSplineSet
EndChar

StartChar: uni0424
Encoding: 1060 1060 197
Width: 2029
Flags: W
LayerCount: 2
Fore
SplineSet
1400.16992188 1590.45019531 m 1,0,1
 1460 1600 1460 1600 1514.34960938 1599.96484375 c 0,2,3
 1595 1600 1595 1600 1663.99511719 1579.20507812 c 0,4,5
 1779 1545 1779 1545 1859.05273438 1468.48535156 c 128,-1,6
 1939 1392 1939 1392 1981.45019531 1282.50976562 c 0,7,8
 2022.50195312 1177.8203125 2022.50195312 1177.8203125 2029.02539062 1047.23046875 c 0,9,10
 2030 1030 2030 1030 2029.88964844 1012.62988281 c 0,11,12
 2030 904 2030 904 2001.34472656 787.73046875 c 0,13,14
 1968 655 1968 655 1894.95019531 529.094726562 c 0,15,16
 1821 404 1821 404 1707.24511719 296.41015625 c 0,17,18
 1606.55078125 201.979492188 1606.55078125 201.979492188 1272.22265625 129.966796875 c 1,19,-1
 1267 27 l 1,20,-1
 729 -35 l 1,21,-1
 729.96875 44.771484375 l 1,22,23
 617.56640625 31.59765625 617.56640625 31.59765625 492.78515625 19.6103515625 c 1,24,25
 412 20 412 20 343.139648438 40.3701171875 c 0,26,27
 228 75 228 75 148.08203125 151.08984375 c 128,-1,28
 68 227 68 227 25.6845703125 337.065429688 c 0,29,30
 -15.361328125 441.818359375 -15.361328125 441.818359375 -21.8896484375 572.344726562 c 0,31,32
 -23 590 -23 590 -22.7548828125 606.9453125 c 0,33,34
 -23 716 -23 716 5.7900390625 831.844726562 c 0,35,36
 39 965 39 965 112.184570312 1090.48046875 c 0,37,38
 186 1216 186 1216 299.889648438 1323.16503906 c 0,39,40
 414 1430 414 1430 569.76953125 1503.08496094 c 1,41,-1
 600.91015625 1512.59960938 l 2,42,43
 644.857421875 1525.546875 644.857421875 1525.546875 705.575195312 1530.76464844 c 2,44,-1
 748.057617188 1534.41503906 l 1,45,-1
 749 1612 l 1,46,-1
 1351 1683 l 1,47,-1
 1346.06933594 1585.80175781 l 1,48,-1
 1400.16992188 1590.45019531 l 1,0,1
770 1064 m 1,49,50
 653 1037 653 1037 580 983 c 128,-1,51
 507 929 507 929 470.5 870.5 c 128,-1,52
 434 812 434 812 418.5 754.5 c 128,-1,53
 403 697 403 697 403 665 c 0,54,55
 403 630 403 630 403 628 c 0,56,57
 403 624 403 624 409 588 c 128,-1,58
 415 552 415 552 435.5 503 c 128,-1,59
 456 454 456 454 493 422 c 0,60,61
 529 391 529 391 573 395 c 0,62,63
 584 396 584 396 594 397 c 0,64,65
 658 403 658 403 749 476 c 1,66,-1
 770 1064 l 1,49,50
1289.62890625 473.112304688 m 1,67,68
 1390 500 1390 500 1455 548 c 0,69,70
 1528 602 1528 602 1564.5 660.5 c 128,-1,71
 1601 719 1601 719 1616.5 776.5 c 128,-1,72
 1632 834 1632 834 1632 866 c 0,73,74
 1632 901 1632 901 1632 903 c 0,75,76
 1632 907 1632 907 1626 943 c 128,-1,77
 1620 979 1620 979 1599.5 1028 c 128,-1,78
 1579 1077 1579 1077 1542 1109 c 0,79,80
 1506 1140 1506 1140 1462 1136 c 0,81,82
 1441 1134 l 0,83,84
 1371 1123 1371 1123 1301 1112 c 1,85,-1
 1289.62890625 473.112304688 l 1,67,68
EndSplineSet
EndChar

StartChar: uni0444
Encoding: 1092 1092 198
Width: 1865
Flags: W
LayerCount: 2
Fore
SplineSet
1103.45019531 455.599609375 m 0,0,1
 1131.66992188 387.599609375 1131.66992188 387.599609375 1194.75 367.200195312 c 0,2,3
 1217.99023438 359.549804688 1217.99023438 359.549804688 1244.54980469 359.549804688 c 0,4,5
 1287.70996094 359.549804688 1287.70996094 359.549804688 1337.50976562 380.799804688 c 0,6,7
 1415.53027344 415.650390625 1415.53027344 415.650390625 1445.41015625 476 c 0,8,9
 1461.1796875 507.450195312 1461.1796875 507.450195312 1461.1796875 541.450195312 c 0,10,11
 1461.1796875 572.049804688 1461.1796875 572.049804688 1447.90039062 604.349609375 c 0,12,13
 1418.84960938 669.799804688 1418.84960938 669.799804688 1355.76953125 691.900390625 c 0,14,15
 1331.70019531 700.400390625 1331.70019531 700.400390625 1305.96972656 700.400390625 c 0,16,17
 1263.63964844 700.400390625 1263.63964844 700.400390625 1215.5 679.150390625 c 0,18,19
 1135.8203125 644.299804688 1135.8203125 644.299804688 1105.94042969 583.099609375 c 0,20,21
 1102.66992188 576.403320312 1102.66992188 576.403320312 1100.11425781 569.668945312 c 0,22,23
 1102.89550781 540.114257812 1102.89550781 540.114257812 1103.45019531 511.700195312 c 0,24,25
 1103.45019531 486.127929688 1103.45019531 486.127929688 1101.10742188 461.427734375 c 0,26,27
 1102.21777344 458.517578125 1102.21777344 458.517578125 1103.45019531 455.599609375 c 0,0,1
26.1103515625 443.700195312 m 0,28,29
 20.2998046875 488.75 20.2998046875 488.75 20.2998046875 531.25 c 0,30,31
 21.1298828125 602.650390625 21.1298828125 602.650390625 37.73046875 667.25 c 0,32,33
 65.9501953125 770.950195312 65.9501953125 770.950195312 127.370117188 851.275390625 c 128,-1,34
 188.790039062 931.599609375 188.790039062 931.599609375 281.75 983.025390625 c 128,-1,35
 374.709960938 1034.45019531 374.709960938 1034.45019531 488.419921875 1049.75 c 0,36,37
 534.0703125 1055.70019531 534.0703125 1055.70019531 578.889648438 1055.70019531 c 0,38,39
 643.629882812 1055.70019531 643.629882812 1055.70019531 705.049804688 1042.09960938 c 0,40,41
 708.155273438 1041.43359375 708.155273438 1041.43359375 711.240234375 1040.73339844 c 2,42,-1
 704.219726562 1164.5 l 1,43,-1
 1112.58007812 1195.09960938 l 1,44,-1
 1109.16796875 1033.29199219 l 1,45,46
 1156.84277344 1047.85058594 1156.84277344 1047.85058594 1208.86035156 1054.84960938 c 0,47,48
 1254.50976562 1060.79980469 1254.50976562 1060.79980469 1299.33007812 1060.79980469 c 0,49,50
 1364.0703125 1060.79980469 1364.0703125 1060.79980469 1425.49023438 1047.20019531 c 0,51,52
 1528.41015625 1025.09960938 1528.41015625 1025.09960938 1609.75 966.875 c 128,-1,53
 1691.08984375 908.650390625 1691.08984375 908.650390625 1745.87011719 816.424804688 c 128,-1,54
 1800.65039062 724.200195312 1800.65039062 724.200195312 1817.25 604.349609375 c 0,55,56
 1823.05957031 559.299804688 1823.05957031 559.299804688 1823.88964844 516.799804688 c 0,57,58
 1823.88964844 445.400390625 1823.88964844 445.400390625 1805.62988281 380.799804688 c 0,59,60
 1777.41015625 277.099609375 1777.41015625 277.099609375 1715.57519531 197.625 c 128,-1,61
 1653.74023438 118.150390625 1653.74023438 118.150390625 1561.1953125 66.724609375 c 128,-1,62
 1468.65039062 15.2998046875 1468.65039062 15.2998046875 1354.94042969 0 c 0,63,64
 1309.29003906 -5.9501953125 1309.29003906 -5.9501953125 1264.46972656 -5.9501953125 c 0,65,66
 1198.90039062 -6.7998046875 1198.90039062 -6.7998046875 1137.48046875 6.7998046875 c 0,67,68
 1111.97558594 12.232421875 1111.97558594 12.232421875 1087.80078125 19.8740234375 c 1,69,-1
 1086.01953125 -64.599609375 l 1,70,-1
 773.940429688 -64.599609375 l 1,71,-1
 768.672851562 28.2509765625 l 1,72,73
 705.740234375 4.4853515625 705.740234375 4.4853515625 634.5 -5.099609375 c 0,74,75
 588.849609375 -11.0498046875 588.849609375 -11.0498046875 544.030273438 -11.0498046875 c 0,76,77
 478.459960938 -11.900390625 478.459960938 -11.900390625 417.040039062 1.7001953125 c 0,78,79
 313.290039062 23.7998046875 313.290039062 23.7998046875 231.53515625 82.4501953125 c 128,-1,80
 149.780273438 141.099609375 149.780273438 141.099609375 95.4150390625 232.474609375 c 128,-1,81
 41.0498046875 323.849609375 41.0498046875 323.849609375 26.1103515625 443.700195312 c 0,28,29
383.009765625 450.5 m 0,82,83
 411.23046875 382.5 411.23046875 382.5 474.309570312 362.099609375 c 0,84,85
 497.549804688 354.450195312 497.549804688 354.450195312 524.110351562 354.450195312 c 0,86,87
 567.26953125 354.450195312 567.26953125 354.450195312 617.0703125 375.700195312 c 0,88,89
 695.08984375 410.549804688 695.08984375 410.549804688 724.969726562 470.900390625 c 0,90,91
 738.452148438 497.787109375 738.452148438 497.787109375 740.408203125 526.538085938 c 1,92,-1
 738.366210938 562.526367188 l 2,93,94
 735.125976562 580.604492188 735.125976562 580.604492188 727.459960938 599.25 c 0,95,96
 698.41015625 664.700195312 698.41015625 664.700195312 635.330078125 686.799804688 c 0,97,98
 611.259765625 695.299804688 611.259765625 695.299804688 585.530273438 695.299804688 c 0,99,100
 543.200195312 695.299804688 543.200195312 695.299804688 495.059570312 674.049804688 c 0,101,102
 415.379882812 639.200195312 415.379882812 639.200195312 385.5 578 c 0,103,104
 369.73046875 545.700195312 369.73046875 545.700195312 370.559570312 512.549804688 c 0,105,106
 369.73046875 481.950195312 369.73046875 481.950195312 383.009765625 450.5 c 0,82,83
EndSplineSet
EndChar

StartChar: uni044F
Encoding: 1103 1103 199
Width: 1080
Flags: W
LayerCount: 2
Fore
SplineSet
1054.08007812 1204 m 1,0,1
 761.357421875 1237.86230469 761.357421875 1237.86230469 625.907226562 1250.65527344 c 2,2,-1
 490.45703125 1263.44726562 l 2,3,4
 448.317382812 1267.96289062 448.317382812 1267.96289062 409.940429688 1267.96289062 c 0,5,6
 317.3828125 1267.20996094 317.3828125 1267.20996094 248.905273438 1241.625 c 0,7,8
 152.584960938 1205.50488281 152.584960938 1205.50488281 102.543945312 1135.14648438 c 128,-1,9
 52.5029296875 1064.78710938 52.5029296875 1064.78710938 45.73046875 971.477539062 c 0,10,11
 44.224609375 955.674804688 44.224609375 955.674804688 44.9775390625 940.625 c 0,12,13
 44.9775390625 862.365234375 44.9775390625 862.365234375 72.8203125 780.342773438 c 0,14,15
 106.682617188 682.517578125 106.682617188 682.517578125 179.674804688 590.3359375 c 128,-1,16
 252.66796875 498.155273438 252.66796875 498.155273438 361.02734375 429.677734375 c 1,17,-1
 38.95703125 218.977539062 l 1,18,-1
 277.5 -51.169921875 l 1,19,-1
 652.245117188 224.997070312 l 1,20,-1
 656.759765625 -38.3779296875 l 1,21,-1
 1030 0 l 1,22,-1
 1054.08007812 1204 l 1,0,1
722 573 m 1,23,24
 648 589 648 589 594 620 c 128,-1,25
 540 651 540 651 503 686 c 128,-1,26
 466 721 466 721 446.5 752.5 c 0,27,28
 425 786 425 786 423 802 c 0,29,30
 421 815 421 815 421 824 c 0,31,32
 421 829 421 829 421 834 c 0,33,34
 421 851 421 851 426 874 c 0,35,36
 433 902 433 902 461 922 c 0,37,38
 488 941 488 941 541 941 c 0,39,40
 545 941 545 941 547 941 c 0,41,42
 605 940 605 940 702 901 c 1,43,-1
 722 573 l 1,23,24
EndSplineSet
EndChar

StartChar: uni0432
Encoding: 1074 1074 200
Width: 1199
Flags: W
LayerCount: 2
Fore
SplineSet
1118.19335938 630.232421875 m 1,0,1
 1144 659 1144 659 1162 698 c 0,2,3
 1192 762 1192 762 1192 864 c 0,4,5
 1192 932 1192 932 1165 997.5 c 128,-1,6
 1138 1063 1138 1063 1079 1116 c 128,-1,7
 1020 1169 1020 1169 925.5 1202 c 128,-1,8
 831 1235 831 1235 698 1235 c 0,9,10
 647 1235 647 1235 595.5 1231 c 128,-1,11
 544 1227 544 1227 498 1219.5 c 0,12,13
 484 1217 484 1217 469.954101562 1214.86523438 c 1,14,-1
 470 1222 l 1,15,-1
 99 1188 l 1,16,-1
 86 -47 l 1,17,-1
 462 -32 l 1,18,-1
 462.055664062 -23.212890625 l 1,19,20
 495 -29 495 -29 527 -33 c 0,21,22
 610 -43 610 -43 696 -43 c 0,23,24
 806 -43 806 -43 908.5 -25 c 128,-1,25
 1011 -7 1011 -7 1090 37 c 128,-1,26
 1169 81 1169 81 1217 154.5 c 128,-1,27
 1265 228 1265 228 1265 339 c 0,28,29
 1265 442 1265 442 1232 505.5 c 128,-1,30
 1199 569 1199 569 1151 607 c 0,31,32
 1135 620 1135 620 1118.19335938 630.232421875 c 1,0,1
448.176757812 854.51953125 m 1,33,34
 501 860 501 860 560.415039062 860 c 0,35,36
 576 860 576 860 609.887695312 859 c 0,37,38
 644 858 644 858 677.9921875 853 c 128,-1,39
 712 848 712 848 738.387695312 835.5 c 0,40,41
 765 823 765 823 764.73046875 803 c 0,42,43
 765 770 765 770 722.967773438 753.5 c 128,-1,44
 681 737 681 737 619.525390625 723 c 128,-1,45
 558 709 558 709 483.95703125 688.5 c 0,46,47
 465 683 465 683 446.719726562 676.784179688 c 1,48,-1
 448.176757812 854.51953125 l 1,33,34
445.828125 567.939453125 m 1,49,50
 501 535 501 535 567.482421875 516.5 c 0,51,52
 639 497 639 497 697.91015625 483 c 128,-1,53
 757 469 757 469 797.497070312 453.5 c 128,-1,54
 838 438 838 438 837.974609375 407 c 0,55,56
 838 383 838 383 816.129882812 370.5 c 0,57,58
 794 358 794 358 760.875 353 c 0,59,60
 727 348 727 348 686.987304688 347 c 128,-1,61
 647 346 647 346 609.245117188 346 c 0,62,63
 526 346 526 346 453.1171875 356.5 c 0,64,65
 444 358 444 358 444.106445312 357.825195312 c 2,66,-1
 445.828125 567.939453125 l 1,49,50
EndSplineSet
EndChar

StartChar: uni044E
Encoding: 1102 1102 201
Width: 1881
Flags: WO
LayerCount: 2
Fore
SplineSet
1034 530 m 0,0,1
 1068 450 1068 450 1144 426 c 0,2,3
 1172 417 1172 417 1204 417 c 0,4,5
 1256 417 1256 417 1316 442 c 0,6,7
 1410 483 1410 483 1446 554 c 0,8,9
 1465 591 1465 591 1465 631 c 0,10,11
 1465 667 1465 667 1449 705 c 0,12,13
 1414 782 1414 782 1338 808 c 0,14,15
 1309 818 1309 818 1278 818 c 0,16,17
 1227 818 1227 818 1169 793 c 0,18,19
 1073 752 1073 752 1037 680 c 0,20,21
 1018 642 1018 642 1019 603 c 0,22,23
 1018 567 1018 567 1034 530 c 0,0,1
19 0 m 1,24,-1
 19 1181 l 1,25,-1
 476 1218 l 1,26,-1
 467.91015625 802.241210938 l 1,27,-1
 623.130859375 802.516601562 l 1,28,29
 657.356445312 913.83984375 657.356445312 913.83984375 726 1001.5 c 0,30,31
 800 1096 800 1096 912 1156.5 c 128,-1,32
 1024 1217 1024 1217 1161 1235 c 0,33,34
 1216 1242 1216 1242 1270 1242 c 0,35,36
 1348 1242 1348 1242 1422 1226 c 0,37,38
 1546 1200 1546 1200 1644 1131.5 c 128,-1,39
 1742 1063 1742 1063 1808 954.5 c 128,-1,40
 1874 846 1874 846 1894 705 c 0,41,42
 1901 652 1901 652 1902 602 c 0,43,44
 1902 518 1902 518 1880 442 c 0,45,46
 1846 320 1846 320 1771.5 226.5 c 128,-1,47
 1697 133 1697 133 1585.5 72.5 c 128,-1,48
 1474 12 1474 12 1337 -6 c 0,49,50
 1282 -13 1282 -13 1228 -13 c 0,51,52
 1149 -14 1149 -14 1075 2 c 0,53,54
 950 28 950 28 851.5 97 c 128,-1,55
 753 166 753 166 687.5 273.5 c 0,56,57
 662.973632812 313.75390625 662.973632812 313.75390625 645.106445312 358.705078125 c 1,58,-1
 459.107421875 349.874023438 l 1,59,-1
 453 36 l 1,60,-1
 19 0 l 1,24,-1
EndSplineSet
EndChar

StartChar: uni044D
Encoding: 1101 1101 202
Width: 1081
Flags: W
LayerCount: 2
Fore
SplineSet
1102 602 m 0,0,1
 1102 752 1102 752 1051 871.5 c 128,-1,2
 1000 991 1000 991 909 1074 c 128,-1,3
 818 1157 818 1157 693 1201 c 128,-1,4
 568 1245 568 1245 422 1246 c 0,5,6
 277 1246 277 1246 169.5 1198.5 c 128,-1,7
 62 1151 62 1151 -12 1102 c 1,8,-1
 259 748 l 1,9,10
 288 771 288 771 325.5 785 c 128,-1,11
 363 799 363 799 402 805 c 0,12,13
 431 810 431 810 459 810 c 0,14,15
 468 810 468 810 477 809 c 0,16,17
 513 807 513 807 535 795 c 0,18,19
 574 775 574 775 602 747 c 0,20,21
 612.4 735.8 612.4 735.8 621.2 723.8 c 1,22,-1
 322 649 l 1,23,-1
 328 553 l 1,24,-1
 648.119048084 563.243809539 l 1,25,26
 643.528059522 551.165929109 643.528059522 551.165929109 637 539 c 0,27,28
 596 456 596 456 520 438 c 0,29,30
 497 432 497 432 473 433 c 0,31,32
 419 433 419 433 361 461 c 2,33,-1
 257 514 l 1,34,-1
 -22 145 l 1,35,36
 29 100 29 100 87.5 70.5 c 128,-1,37
 146 41 146 41 207.5 22.5 c 128,-1,38
 269 4 269 4 332.5 -3 c 128,-1,39
 396 -10 396 -10 455 -10 c 0,40,41
 594 -10 594 -10 712 37 c 128,-1,42
 830 84 830 84 917 167 c 128,-1,43
 1004 250 1004 250 1053 361.5 c 128,-1,44
 1102 473 1102 473 1102 602 c 0,0,1
EndSplineSet
EndChar

StartChar: uni044A
Encoding: 1098 1098 203
Width: 1274
Flags: W
LayerCount: 2
Fore
SplineSet
621.1796875 443.83984375 m 0,0,1
 618.990234375 432.889648438 618.990234375 432.889648438 618.990234375 422.669921875 c 0,2,3
 618.990234375 406.610351562 618.990234375 406.610351562 623.370117188 390.549804688 c 0,4,5
 630.669921875 363.540039062 630.669921875 363.540039062 648.919921875 343.099609375 c 128,-1,6
 667.169921875 322.66015625 667.169921875 322.66015625 693.450195312 310.98046875 c 128,-1,7
 719.73046875 299.299804688 719.73046875 299.299804688 752.580078125 297.110351562 c 0,8,9
 758.419921875 296.379882812 758.419921875 296.379882812 764.259765625 296.379882812 c 0,10,11
 792 296.379882812 792 296.379882812 821.200195312 305.139648438 c 0,12,13
 856.969726562 315.360351562 856.969726562 315.360351562 882.51953125 333.974609375 c 128,-1,14
 908.0703125 352.58984375 908.0703125 352.58984375 923.764648438 376.6796875 c 128,-1,15
 939.459960938 400.76953125 939.459960938 400.76953125 943.83984375 427.780273438 c 0,16,17
 945.299804688 438 945.299804688 438 945.299804688 448.219726562 c 0,18,19
 945.299804688 465.009765625 945.299804688 465.009765625 940.919921875 481.0703125 c 0,20,21
 933.620117188 508.080078125 933.620117188 508.080078125 915.370117188 528.51953125 c 128,-1,22
 897.120117188 548.959960938 897.120117188 548.959960938 871.205078125 561.370117188 c 128,-1,23
 845.290039062 573.780273438 845.290039062 573.780273438 813.169921875 576.700195312 c 0,24,25
 807.330078125 577.4296875 807.330078125 577.4296875 800.759765625 576.700195312 c 0,26,27
 773.75 576.700195312 773.75 576.700195312 744.549804688 567.940429688 c 0,28,29
 708.780273438 557.719726562 708.780273438 557.719726562 682.865234375 538.375 c 128,-1,30
 656.950195312 519.030273438 656.950195312 519.030273438 641.254882812 494.940429688 c 128,-1,31
 625.559570312 470.849609375 625.559570312 470.849609375 621.1796875 443.83984375 c 0,0,1
659.870117188 1235.16015625 m 1,32,-1
 646 846.0703125 l 1,33,34
 692 872 692 872 735.790039062 889.504882812 c 0,35,36
 780 907 780 907 848.209960938 907.389648438 c 0,37,38
 938 907 938 907 1012.45996094 868.700195312 c 0,39,40
 1087 830 1087 830 1142.40039062 766.5 c 128,-1,41
 1198 703 1198 703 1228.54003906 621.959960938 c 128,-1,42
 1259 541 1259 541 1259.20019531 457.709960938 c 0,43,44
 1259 345 1259 345 1220.875 258.78515625 c 0,45,46
 1183 172 1183 172 1119.76953125 113.150390625 c 0,47,48
 1057 54 1057 54 974.134765625 23.3603515625 c 0,49,50
 891 -7 891 -7 801.490234375 -7.2998046875 c 0,51,52
 733 -7 733 -7 672.280273438 16.4248046875 c 0,53,54
 612 40 612 40 559.129882812 67.16015625 c 1,55,-1
 559.129882812 2.919921875 l 1,56,-1
 262 0 l 1,57,-1
 255.109375 948.12109375 l 1,58,-1
 -60 1030 l 1,59,-1
 -60 1178 l 1,60,-1
 659.870117188 1235.16015625 l 1,32,-1
EndSplineSet
EndChar

StartChar: uni044B
Encoding: 1099 1099 204
Width: 1618
Flags: W
LayerCount: 2
Fore
SplineSet
1129 1213 m 1,0,-1
 1133 17 l 1,1,-1
 1590 -20 l 1,2,-1
 1563 1177 l 1,3,-1
 1129 1213 l 1,0,-1
16.240234375 1205.23046875 m 1,4,-1
 422.870117188 1235.16015625 l 1,5,-1
 409 846.0703125 l 1,6,7
 455 872 455 872 498.790039062 889.504882812 c 0,8,9
 543 907 543 907 611.209960938 907.389648438 c 0,10,11
 701 907 701 907 775.459960938 868.700195312 c 0,12,13
 850 830 850 830 905.400390625 766.5 c 128,-1,14
 961 703 961 703 991.540039062 621.959960938 c 128,-1,15
 1022 541 1022 541 1022.20019531 457.709960938 c 0,16,17
 1022 345 1022 345 983.875 258.78515625 c 0,18,19
 946 172 946 172 882.76953125 113.150390625 c 0,20,21
 820 54 820 54 737.134765625 23.3603515625 c 0,22,23
 654 -7 654 -7 564.490234375 -7.2998046875 c 0,24,25
 496 -7 496 -7 435.280273438 16.4248046875 c 0,26,27
 375 40 375 40 322.129882812 67.16015625 c 1,28,-1
 322.129882812 2.919921875 l 1,29,-1
 25 0 l 1,30,-1
 16.240234375 1205.23046875 l 1,4,-1
384.1796875 443.83984375 m 0,31,32
 381.990234375 432.889648438 381.990234375 432.889648438 381.990234375 422.669921875 c 0,33,34
 381.990234375 406.610351562 381.990234375 406.610351562 386.370117188 390.549804688 c 0,35,36
 393.669921875 363.540039062 393.669921875 363.540039062 411.919921875 343.099609375 c 128,-1,37
 430.169921875 322.66015625 430.169921875 322.66015625 456.450195312 310.98046875 c 128,-1,38
 482.73046875 299.299804688 482.73046875 299.299804688 515.580078125 297.110351562 c 0,39,40
 521.419921875 296.379882812 521.419921875 296.379882812 527.259765625 296.379882812 c 0,41,42
 555 296.379882812 555 296.379882812 584.200195312 305.139648438 c 0,43,44
 619.969726562 315.360351562 619.969726562 315.360351562 645.51953125 333.974609375 c 128,-1,45
 671.0703125 352.58984375 671.0703125 352.58984375 686.764648438 376.6796875 c 128,-1,46
 702.459960938 400.76953125 702.459960938 400.76953125 706.83984375 427.780273438 c 0,47,48
 708.299804688 438 708.299804688 438 708.299804688 448.219726562 c 0,49,50
 708.299804688 465.009765625 708.299804688 465.009765625 703.919921875 481.0703125 c 0,51,52
 696.620117188 508.080078125 696.620117188 508.080078125 678.370117188 528.51953125 c 128,-1,53
 660.120117188 548.959960938 660.120117188 548.959960938 634.205078125 561.370117188 c 128,-1,54
 608.290039062 573.780273438 608.290039062 573.780273438 576.169921875 576.700195312 c 0,55,56
 570.330078125 577.4296875 570.330078125 577.4296875 563.759765625 576.700195312 c 0,57,58
 536.75 576.700195312 536.75 576.700195312 507.549804688 567.940429688 c 0,59,60
 471.780273438 557.719726562 471.780273438 557.719726562 445.865234375 538.375 c 128,-1,61
 419.950195312 519.030273438 419.950195312 519.030273438 404.254882812 494.940429688 c 128,-1,62
 388.559570312 470.849609375 388.559570312 470.849609375 384.1796875 443.83984375 c 0,31,32
EndSplineSet
EndChar
